<?xml version="1.0" encoding="UTF-8" standalone="no"?>
<!DOCTYPE svg PUBLIC "-//W3C//DTD SVG 1.0//EN" "http://www.w3.org/TR/2001/REC-SVG-20010904/DTD/svg10.dtd">
<svg width="21.59cm" height="27.94cm" xmlns="http://www.w3.org/2000/svg">
<rect width="21.59cm" height="27.94cm" style="fill: none;"/>
<polygon fill="#ff3f00" style="stroke:#000000;  stroke-width:0.50pt;" points="382.50,900.00 340.71,900.00 340.72,899.63 340.72,899.27 340.73,898.90 340.74,898.54 340.75,898.18 340.77,897.81 340.79,897.45 340.82,897.08 340.84,896.72 340.87,896.36 340.91,895.99 340.94,895.63 340.98,895.27 341.03,894.91 341.07,894.54 341.12,894.18 341.17,893.82 341.23,893.46 341.29,893.10 341.35,892.74 341.41,892.38 341.48,892.03 341.55,891.67 341.63,891.31 341.70,890.95 341.78,890.60 341.87,890.24 341.95,889.89 342.04,889.54 342.14,889.18 342.23,888.83 342.33,888.48 342.43,888.13 342.54,887.78 342.65,887.43 342.76,887.09 342.87,886.74 342.99,886.39 343.11,886.05 343.23,885.71 343.36,885.36 343.49,885.02 343.62,884.68 343.76,884.35 343.89,884.01 344.04,883.67 344.18,883.34 344.33,883.00 344.48,882.67 344.63,882.34 344.78,882.01 344.94,881.68 345.10,881.35 345.27,881.03 345.43,880.70 345.60,880.38 345.78,880.06 345.95,879.74 346.13,879.42 346.31,879.11 346.50,878.79 346.68,878.48 346.87,878.17 347.06,877.86 347.26,877.55 347.45,877.24 347.65,876.94 347.86,876.63 348.06,876.33 348.27,876.03 348.48,875.73 348.69,875.44 348.91,875.14 349.13,874.85 349.35,874.56 349.57,874.27 349.80,873.99 350.03,873.70 350.26,873.42 350.49,873.14 350.73,872.86 350.96,872.58 351.20,872.31 351.45,872.04 351.69,871.77 351.94,871.50 352.19,871.23 352.44,870.97 352.70,870.71 352.95,870.45 353.21,870.19 353.47,869.94 353.74,869.69 354.00,869.44 354.27,869.19 354.54,868.95 354.81,868.70 355.09,868.46 355.36,868.22 355.64,867.99 355.92,867.76 356.20,867.52 356.49,867.30 356.77,867.07 357.06,866.85 357.35,866.63 357.64,866.41 357.94,866.19 358.23,865.98 358.53,865.77 358.83,865.56 359.13,865.36 359.44,865.15 359.74,864.95 360.05,864.76 360.36,864.56 360.67,864.37 360.98,864.18 361.29,863.99 361.61,863.81 361.92,863.63 362.24,863.45 362.56,863.28 362.88,863.10 363.20,862.93 363.53,862.77 363.85,862.60 364.18,862.44 364.51,862.28 364.84,862.13 365.17,861.97 365.50,861.83 365.84,861.68 366.17,861.53 366.51,861.39 366.85,861.26 367.18,861.12 367.52,860.99 367.87,860.86 368.21,860.73 368.55,860.61 368.90,860.49 369.24,860.37 369.59,860.26 369.93,860.15 370.28,860.04 370.63,859.93 370.98,859.83 371.33,859.73 371.68,859.64 372.04,859.54 372.39,859.45 372.74,859.37 373.10,859.28 373.46,859.20 373.81,859.13 374.17,859.05 374.53,858.98 374.88,858.91 375.24,858.85 375.60,858.79 375.96,858.73 376.32,858.67 376.68,858.62 377.05,858.57 377.41,858.52 377.77,858.48 378.13,858.44 378.49,858.40 378.86,858.37 379.22,858.34 379.58,858.31 379.95,858.29 380.31,858.27 380.68,858.25 381.04,858.24 381.41,858.23 381.77,858.22 382.13,858.21 382.50,858.21 382.86,858.21 383.23,858.22 383.59,858.23 383.96,858.24 384.32,858.25 384.69,858.27 385.05,858.29 385.41,858.31 385.78,858.34 386.14,858.37 386.50,858.40 386.87,858.44 387.23,858.48 387.59,858.52 387.95,858.57 388.31,858.62 388.68,858.67 389.04,858.73 389.40,858.79 389.76,858.85 390.11,858.91 390.47,858.98 390.83,859.05 391.19,859.13 391.54,859.20 391.90,859.28 392.25,859.37 392.61,859.45 392.96,859.54 393.31,859.64 393.67,859.73 394.02,859.83 394.37,859.93 394.72,860.04 395.06,860.15 395.41,860.26 395.76,860.37 396.10,860.49 396.45,860.61 396.79,860.73 397.13,860.86 397.47,860.99 397.81,861.12 398.15,861.26 398.49,861.39 398.83,861.53 399.16,861.68 399.49,861.83 399.83,861.97 400.16,862.13 400.49,862.28 400.82,862.44 401.14,862.60 401.47,862.77 401.79,862.93 402.12,863.10 402.44,863.28 402.76,863.45 403.08,863.63 403.39,863.81 403.71,863.99 404.02,864.18 404.33,864.37 404.64,864.56 404.95,864.76 405.26,864.95 405.56,865.15 405.87,865.36 406.17,865.56 406.47,865.77 406.76,865.98 407.06,866.19 407.35,866.41 407.65,866.63 407.94,866.85 408.23,867.07 408.51,867.30 408.80,867.52 409.08,867.76 409.36,867.99 409.64,868.22 409.91,868.46 410.19,868.70 410.46,868.95 410.73,869.19 411.00,869.44 411.26,869.69 411.53,869.94 411.79,870.19 412.05,870.45 412.30,870.71 412.56,870.97 412.81,871.23 413.06,871.50 413.31,871.77 413.55,872.04 413.79,872.31 414.04,872.58 414.27,872.86 414.51,873.14 414.74,873.42 414.97,873.70 415.20,873.99 415.43,874.27 415.65,874.56 415.87,874.85 416.09,875.14 416.30,875.44 416.52,875.73 416.73,876.03 416.94,876.33 417.14,876.63 417.34,876.94 417.54,877.24 417.74,877.55 417.94,877.86 418.13,878.17 418.32,878.48 418.50,878.79 418.69,879.11 418.87,879.42 419.05,879.74 419.22,880.06 419.39,880.38 419.56,880.70 419.73,881.03 419.89,881.35 420.06,881.68 420.21,882.01 420.37,882.34 420.52,882.67 420.67,883.00 420.82,883.34 420.96,883.67 421.10,884.01 421.24,884.35 421.38,884.68 421.51,885.02 421.64,885.36 421.76,885.71 421.89,886.05 422.01,886.39 422.13,886.74 422.24,887.09 422.35,887.43 422.46,887.78 422.56,888.13 422.67,888.48 422.77,888.83 422.86,889.18 422.95,889.54 423.04,889.89 423.13,890.24 423.21,890.60 423.29,890.95 423.37,891.31 423.45,891.67 423.52,892.03 423.59,892.38 423.65,892.74 423.71,893.10 423.77,893.46 423.83,893.82 423.88,894.18 423.93,894.54 423.97,894.91 424.02,895.27 424.06,895.63 424.09,895.99 424.13,896.36 424.16,896.72 424.18,897.08 424.21,897.45 424.23,897.81 424.25,898.18 424.26,898.54 424.27,898.90 424.28,899.27 424.28,899.63 424.28,900.00"/>
<polygon fill="#ffaf0f" style="stroke:#000000;  stroke-width:0.50pt;" points="340.71,900.00 298.93,900.00 298.93,899.27 298.94,898.54 298.96,897.81 298.98,897.08 299.01,896.35 299.04,895.62 299.08,894.90 299.13,894.17 299.19,893.44 299.25,892.71 299.31,891.99 299.39,891.26 299.47,890.54 299.55,889.81 299.64,889.09 299.74,888.37 299.85,887.65 299.96,886.92 300.07,886.20 300.20,885.49 300.33,884.77 300.46,884.05 300.61,883.34 300.75,882.62 300.91,881.91 301.07,881.20 301.24,880.49 301.41,879.78 301.59,879.07 301.78,878.37 301.97,877.66 302.17,876.96 302.37,876.26 302.58,875.56 302.80,874.87 303.02,874.17 303.25,873.48 303.48,872.79 303.72,872.10 303.97,871.42 304.22,870.73 304.48,870.05 304.74,869.37 305.01,868.69 305.29,868.02 305.57,867.34 305.86,866.67 306.15,866.01 306.45,865.34 306.76,864.68 307.07,864.02 307.39,863.36 307.71,862.71 308.04,862.06 308.37,861.41 308.71,860.76 309.06,860.12 309.41,859.48 309.76,858.85 310.12,858.21 310.49,857.58 310.86,856.96 311.24,856.33 311.63,855.71 312.02,855.10 312.41,854.48 312.81,853.87 313.22,853.27 313.63,852.66 314.04,852.06 314.46,851.47 314.89,850.88 315.32,850.29 315.76,849.70 316.20,849.12 316.64,848.55 317.10,847.97 317.55,847.41 318.01,846.84 318.48,846.28 318.95,845.72 319.43,845.17 319.91,844.62 320.39,844.08 320.88,843.54 321.38,843.00 321.88,842.47 322.38,841.94 322.89,841.42 323.41,840.90 323.92,840.39 324.45,839.88 324.97,839.38 325.50,838.88 326.04,838.38 326.58,837.89 327.12,837.41 327.67,836.93 328.22,836.45 328.78,835.98 329.34,835.51 329.91,835.05 330.47,834.59 331.05,834.14 331.62,833.70 332.20,833.26 332.79,832.82 333.38,832.39 333.97,831.96 334.56,831.54 335.16,831.12 335.77,830.71 336.37,830.31 336.98,829.91 337.60,829.51 338.21,829.13 338.83,828.74 339.46,828.36 340.08,827.99 340.71,827.62 341.35,827.26 341.98,826.91 342.62,826.55 343.26,826.21 343.91,825.87 344.56,825.54 345.21,825.21 345.86,824.88 346.52,824.57 347.18,824.26 347.84,823.95 348.51,823.65 349.18,823.36 349.85,823.07 350.52,822.79 351.19,822.51 351.87,822.24 352.55,821.98 353.23,821.72 353.92,821.47 354.60,821.22 355.29,820.98 355.98,820.75 356.67,820.52 357.37,820.29 358.07,820.08 358.76,819.87 359.46,819.66 360.17,819.47 360.87,819.27 361.57,819.09 362.28,818.91 362.99,818.74 363.70,818.57 364.41,818.41 365.12,818.25 365.84,818.10 366.55,817.96 367.27,817.83 367.99,817.70 368.71,817.57 369.43,817.46 370.15,817.34 370.87,817.24 371.59,817.14 372.31,817.05 373.04,816.96 373.76,816.88 374.49,816.81 375.22,816.74 375.94,816.68 376.67,816.63 377.40,816.58 378.13,816.54 378.85,816.51 379.58,816.48 380.31,816.46 381.04,816.44 381.77,816.43 382.50,816.43 382.50,858.21 382.50,858.21 382.13,858.21 381.77,858.22 381.41,858.23 381.04,858.24 380.68,858.25 380.31,858.27 379.95,858.29 379.58,858.31 379.22,858.34 378.86,858.37 378.49,858.40 378.13,858.44 377.77,858.48 377.41,858.52 377.05,858.57 376.68,858.62 376.32,858.67 375.96,858.73 375.60,858.79 375.24,858.85 374.88,858.91 374.53,858.98 374.17,859.05 373.81,859.13 373.46,859.20 373.10,859.28 372.74,859.37 372.39,859.45 372.04,859.54 371.68,859.64 371.33,859.73 370.98,859.83 370.63,859.93 370.28,860.04 369.93,860.15 369.59,860.26 369.24,860.37 368.90,860.49 368.55,860.61 368.21,860.73 367.87,860.86 367.52,860.99 367.18,861.12 366.85,861.26 366.51,861.39 366.17,861.53 365.84,861.68 365.50,861.83 365.17,861.97 364.84,862.13 364.51,862.28 364.18,862.44 363.85,862.60 363.53,862.77 363.20,862.93 362.88,863.10 362.56,863.28 362.24,863.45 361.92,863.63 361.61,863.81 361.29,863.99 360.98,864.18 360.67,864.37 360.36,864.56 360.05,864.76 359.74,864.95 359.44,865.15 359.13,865.36 358.83,865.56 358.53,865.77 358.23,865.98 357.94,866.19 357.64,866.41 357.35,866.63 357.06,866.85 356.77,867.07 356.49,867.30 356.20,867.52 355.92,867.76 355.64,867.99 355.36,868.22 355.09,868.46 354.81,868.70 354.54,868.95 354.27,869.19 354.00,869.44 353.74,869.69 353.47,869.94 353.21,870.19 352.95,870.45 352.70,870.71 352.44,870.97 352.19,871.23 351.94,871.50 351.69,871.77 351.45,872.04 351.20,872.31 350.96,872.58 350.73,872.86 350.49,873.14 350.26,873.42 350.03,873.70 349.80,873.99 349.57,874.27 349.35,874.56 349.13,874.85 348.91,875.14 348.69,875.44 348.48,875.73 348.27,876.03 348.06,876.33 347.86,876.63 347.65,876.94 347.45,877.24 347.26,877.55 347.06,877.86 346.87,878.17 346.68,878.48 346.50,878.79 346.31,879.11 346.13,879.42 345.95,879.74 345.78,880.06 345.60,880.38 345.43,880.70 345.27,881.03 345.10,881.35 344.94,881.68 344.78,882.01 344.63,882.34 344.48,882.67 344.33,883.00 344.18,883.34 344.04,883.67 343.89,884.01 343.76,884.35 343.62,884.68 343.49,885.02 343.36,885.36 343.23,885.71 343.11,886.05 342.99,886.39 342.87,886.74 342.76,887.09 342.65,887.43 342.54,887.78 342.43,888.13 342.33,888.48 342.23,888.83 342.14,889.18 342.04,889.54 341.95,889.89 341.87,890.24 341.78,890.60 341.70,890.95 341.63,891.31 341.55,891.67 341.48,892.03 341.41,892.38 341.35,892.74 341.29,893.10 341.23,893.46 341.17,893.82 341.12,894.18 341.07,894.54 341.03,894.91 340.98,895.27 340.94,895.63 340.91,895.99 340.87,896.36 340.84,896.72 340.82,897.08 340.79,897.45 340.77,897.81 340.75,898.18 340.74,898.54 340.73,898.90 340.72,899.27 340.72,899.63"/>
<polygon fill="#ffaf0f" style="stroke:#000000;  stroke-width:0.50pt;" points="382.50,858.21 382.50,816.43 383.23,816.43 383.96,816.44 384.69,816.46 385.42,816.48 386.14,816.51 386.87,816.54 387.60,816.58 388.33,816.63 389.06,816.68 389.78,816.74 390.51,816.81 391.23,816.88 391.96,816.96 392.68,817.05 393.41,817.14 394.13,817.24 394.85,817.34 395.57,817.46 396.29,817.57 397.01,817.70 397.73,817.83 398.45,817.96 399.16,818.10 399.87,818.25 400.59,818.41 401.30,818.57 402.01,818.74 402.72,818.91 403.42,819.09 404.13,819.27 404.83,819.47 405.53,819.66 406.23,819.87 406.93,820.08 407.63,820.29 408.32,820.52 409.02,820.75 409.71,820.98 410.40,821.22 411.08,821.47 411.77,821.72 412.45,821.98 413.13,822.24 413.81,822.51 414.48,822.79 415.15,823.07 415.82,823.36 416.49,823.65 417.16,823.95 417.82,824.26 418.48,824.57 419.13,824.88 419.79,825.21 420.44,825.54 421.09,825.87 421.73,826.21 422.38,826.55 423.02,826.91 423.65,827.26 424.28,827.62 424.91,827.99 425.54,828.36 426.17,828.74 426.79,829.13 427.40,829.51 428.02,829.91 428.63,830.31 429.23,830.71 429.83,831.12 430.43,831.54 431.03,831.96 431.62,832.39 432.21,832.82 432.79,833.26 433.37,833.70 433.95,834.14 434.52,834.59 435.09,835.05 435.66,835.51 436.22,835.98 436.77,836.45 437.33,836.93 437.88,837.41 438.42,837.89 438.96,838.38 439.49,838.88 440.03,839.38 440.55,839.88 441.08,840.39 441.59,840.90 442.11,841.42 442.62,841.94 443.12,842.47 443.62,843.00 444.11,843.54 444.60,844.08 445.09,844.62 445.57,845.17 446.05,845.72 446.52,846.28 446.98,846.84 447.45,847.41 447.90,847.97 448.35,848.55 448.80,849.12 449.24,849.70 449.68,850.29 450.11,850.88 450.54,851.47 450.96,852.06 451.37,852.66 451.78,853.27 452.19,853.87 452.59,854.48 452.98,855.10 453.37,855.71 453.76,856.33 454.13,856.96 454.51,857.58 454.87,858.21 455.24,858.85 455.59,859.48 455.94,860.12 456.29,860.76 456.63,861.41 456.96,862.06 457.29,862.71 457.61,863.36 457.93,864.02 458.24,864.68 458.55,865.34 458.85,866.01 459.14,866.67 459.43,867.34 459.71,868.02 459.99,868.69 460.26,869.37 460.52,870.05 460.78,870.73 461.03,871.42 461.28,872.10 461.52,872.79 461.75,873.48 461.98,874.17 462.20,874.87 462.42,875.56 462.63,876.26 462.83,876.96 463.03,877.66 463.22,878.37 463.41,879.07 463.59,879.78 463.76,880.49 463.93,881.20 464.09,881.91 464.24,882.62 464.39,883.34 464.54,884.05 464.67,884.77 464.80,885.49 464.92,886.20 465.04,886.92 465.15,887.65 465.26,888.37 465.36,889.09 465.45,889.81 465.53,890.54 465.61,891.26 465.69,891.99 465.75,892.71 465.81,893.44 465.87,894.17 465.91,894.90 465.96,895.62 465.99,896.35 466.02,897.08 466.04,897.81 466.06,898.54 466.07,899.27 466.07,900.00 424.28,900.00 424.28,900.00 424.28,899.63 424.28,899.27 424.27,898.90 424.26,898.54 424.25,898.18 424.23,897.81 424.21,897.45 424.18,897.08 424.16,896.72 424.13,896.36 424.09,895.99 424.06,895.63 424.02,895.27 423.97,894.91 423.93,894.54 423.88,894.18 423.83,893.82 423.77,893.46 423.71,893.10 423.65,892.74 423.59,892.38 423.52,892.03 423.45,891.67 423.37,891.31 423.29,890.95 423.21,890.60 423.13,890.24 423.04,889.89 422.95,889.54 422.86,889.18 422.77,888.83 422.67,888.48 422.56,888.13 422.46,887.78 422.35,887.43 422.24,887.09 422.13,886.74 422.01,886.39 421.89,886.05 421.76,885.71 421.64,885.36 421.51,885.02 421.38,884.68 421.24,884.35 421.10,884.01 420.96,883.67 420.82,883.34 420.67,883.00 420.52,882.67 420.37,882.34 420.21,882.01 420.06,881.68 419.89,881.35 419.73,881.03 419.56,880.70 419.39,880.38 419.22,880.06 419.05,879.74 418.87,879.42 418.69,879.11 418.50,878.79 418.32,878.48 418.13,878.17 417.94,877.86 417.74,877.55 417.54,877.24 417.34,876.94 417.14,876.63 416.94,876.33 416.73,876.03 416.52,875.73 416.30,875.44 416.09,875.14 415.87,874.85 415.65,874.56 415.43,874.27 415.20,873.99 414.97,873.70 414.74,873.42 414.51,873.14 414.27,872.86 414.04,872.58 413.79,872.31 413.55,872.04 413.31,871.77 413.06,871.50 412.81,871.23 412.56,870.97 412.30,870.71 412.05,870.45 411.79,870.19 411.53,869.94 411.26,869.69 411.00,869.44 410.73,869.19 410.46,868.95 410.19,868.70 409.91,868.46 409.64,868.22 409.36,867.99 409.08,867.76 408.80,867.52 408.51,867.30 408.23,867.07 407.94,866.85 407.65,866.63 407.35,866.41 407.06,866.19 406.76,865.98 406.47,865.77 406.17,865.56 405.87,865.36 405.56,865.15 405.26,864.95 404.95,864.76 404.64,864.56 404.33,864.37 404.02,864.18 403.71,863.99 403.39,863.81 403.08,863.63 402.76,863.45 402.44,863.28 402.12,863.10 401.79,862.93 401.47,862.77 401.14,862.60 400.82,862.44 400.49,862.28 400.16,862.13 399.83,861.97 399.49,861.83 399.16,861.68 398.83,861.53 398.49,861.39 398.15,861.26 397.81,861.12 397.47,860.99 397.13,860.86 396.79,860.73 396.45,860.61 396.10,860.49 395.76,860.37 395.41,860.26 395.06,860.15 394.72,860.04 394.37,859.93 394.02,859.83 393.67,859.73 393.31,859.64 392.96,859.54 392.61,859.45 392.25,859.37 391.90,859.28 391.54,859.20 391.19,859.13 390.83,859.05 390.47,858.98 390.11,858.91 389.76,858.85 389.40,858.79 389.04,858.73 388.68,858.67 388.31,858.62 387.95,858.57 387.59,858.52 387.23,858.48 386.87,858.44 386.50,858.40 386.14,858.37 385.78,858.34 385.41,858.31 385.05,858.29 384.69,858.27 384.32,858.25 383.96,858.24 383.59,858.23 383.23,858.22 382.86,858.21"/>
<polygon fill="#ffdf57" style="stroke:#000000;  stroke-width:0.50pt;" points="298.93,900.00 257.14,900.00 257.15,898.90 257.16,897.81 257.19,896.72 257.22,895.62 257.26,894.53 257.31,893.44 257.38,892.35 257.45,891.25 257.53,890.16 257.62,889.07 257.72,887.98 257.83,886.89 257.95,885.81 258.08,884.72 258.21,883.64 258.36,882.55 258.52,881.47 258.69,880.39 258.86,879.31 259.05,878.23 259.24,877.15 259.45,876.08 259.66,875.01 259.88,873.94 260.11,872.87 260.36,871.80 260.61,870.73 260.87,869.67 261.14,868.61 261.41,867.55 261.70,866.50 262.00,865.45 262.30,864.39 262.62,863.35 262.94,862.30 263.28,861.26 263.62,860.22 263.97,859.19 264.33,858.15 264.70,857.12 265.08,856.10 265.47,855.07 265.86,854.05 266.27,853.04 266.68,852.03 267.11,851.02 267.54,850.01 267.98,849.01 268.43,848.01 268.89,847.02 269.35,846.03 269.83,845.05 270.31,844.06 270.81,843.09 271.31,842.11 271.82,841.15 272.33,840.18 272.86,839.22 273.39,838.27 273.94,837.32 274.49,836.37 275.05,835.43 275.61,834.50 276.19,833.57 276.77,832.64 277.37,831.72 277.97,830.81 278.57,829.90 279.19,829.00 279.81,828.10 280.44,827.20 281.08,826.32 281.73,825.43 282.38,824.56 283.05,823.69 283.72,822.82 284.39,821.96 285.08,821.11 285.77,820.26 286.47,819.42 287.18,818.59 287.89,817.76 288.61,816.93 289.34,816.12 290.08,815.31 290.82,814.51 291.57,813.71 292.33,812.92 293.09,812.13 293.86,811.36 293.86,811.36 323.41,840.90 323.41,840.90 322.89,841.42 322.38,841.94 321.88,842.47 321.38,843.00 320.88,843.54 320.39,844.08 319.91,844.62 319.43,845.17 318.95,845.72 318.48,846.28 318.01,846.84 317.55,847.41 317.10,847.97 316.64,848.55 316.20,849.12 315.76,849.70 315.32,850.29 314.89,850.88 314.46,851.47 314.04,852.06 313.63,852.66 313.22,853.27 312.81,853.87 312.41,854.48 312.02,855.10 311.63,855.71 311.24,856.33 310.86,856.96 310.49,857.58 310.12,858.21 309.76,858.85 309.41,859.48 309.06,860.12 308.71,860.76 308.37,861.41 308.04,862.06 307.71,862.71 307.39,863.36 307.07,864.02 306.76,864.68 306.45,865.34 306.15,866.01 305.86,866.67 305.57,867.34 305.29,868.02 305.01,868.69 304.74,869.37 304.48,870.05 304.22,870.73 303.97,871.42 303.72,872.10 303.48,872.79 303.25,873.48 303.02,874.17 302.80,874.87 302.58,875.56 302.37,876.26 302.17,876.96 301.97,877.66 301.78,878.37 301.59,879.07 301.41,879.78 301.24,880.49 301.07,881.20 300.91,881.91 300.75,882.62 300.61,883.34 300.46,884.05 300.33,884.77 300.20,885.49 300.07,886.20 299.96,886.92 299.85,887.65 299.74,888.37 299.64,889.09 299.55,889.81 299.47,890.54 299.39,891.26 299.31,891.99 299.25,892.71 299.19,893.44 299.13,894.17 299.08,894.90 299.04,895.62 299.01,896.35 298.98,897.08 298.96,897.81 298.94,898.54 298.93,899.27 298.93,900.00"/>
<polygon fill="#ffdf57" style="stroke:#000000;  stroke-width:0.50pt;" points="323.41,840.90 293.86,811.36 294.64,810.59 295.42,809.82 296.21,809.07 297.01,808.32 297.81,807.58 298.62,806.84 299.44,806.11 300.26,805.39 301.09,804.68 301.92,803.97 302.76,803.27 303.61,802.58 304.46,801.89 305.32,801.22 306.19,800.55 307.06,799.88 307.93,799.23 308.82,798.58 309.70,797.94 310.60,797.31 311.50,796.69 312.40,796.07 313.31,795.46 314.22,794.87 315.15,794.27 316.07,793.69 317.00,793.11 317.94,792.55 318.88,791.99 319.82,791.44 320.77,790.89 321.73,790.36 322.68,789.83 323.65,789.31 324.62,788.81 325.59,788.30 326.57,787.81 327.55,787.33 328.53,786.85 329.52,786.39 330.51,785.93 331.51,785.48 332.51,785.04 333.52,784.61 334.53,784.18 335.54,783.77 336.56,783.36 337.58,782.97 338.60,782.58 339.62,782.20 340.65,781.83 341.69,781.47 342.72,781.12 343.76,780.78 344.80,780.44 345.85,780.12 346.90,779.80 347.95,779.50 349.00,779.20 350.05,778.91 351.11,778.63 352.17,778.36 353.24,778.10 354.30,777.85 355.37,777.61 356.44,777.38 357.51,777.16 358.58,776.94 359.65,776.74 360.73,776.55 361.81,776.36 362.89,776.18 363.97,776.02 365.05,775.86 366.14,775.71 367.22,775.58 368.31,775.45 369.40,775.33 370.48,775.22 371.57,775.12 372.66,775.03 373.75,774.95 374.85,774.88 375.94,774.81 377.03,774.76 378.12,774.72 379.22,774.68 380.31,774.66 381.41,774.65 382.50,774.64 382.50,816.43 382.50,816.43 381.77,816.43 381.04,816.44 380.31,816.46 379.58,816.48 378.85,816.51 378.13,816.54 377.40,816.58 376.67,816.63 375.94,816.68 375.22,816.74 374.49,816.81 373.76,816.88 373.04,816.96 372.31,817.05 371.59,817.14 370.87,817.24 370.15,817.34 369.43,817.46 368.71,817.57 367.99,817.70 367.27,817.83 366.55,817.96 365.84,818.10 365.12,818.25 364.41,818.41 363.70,818.57 362.99,818.74 362.28,818.91 361.57,819.09 360.87,819.27 360.17,819.47 359.46,819.66 358.76,819.87 358.07,820.08 357.37,820.29 356.67,820.52 355.98,820.75 355.29,820.98 354.60,821.22 353.92,821.47 353.23,821.72 352.55,821.98 351.87,822.24 351.19,822.51 350.52,822.79 349.85,823.07 349.18,823.36 348.51,823.65 347.84,823.95 347.18,824.26 346.52,824.57 345.86,824.88 345.21,825.21 344.56,825.54 343.91,825.87 343.26,826.21 342.62,826.55 341.98,826.91 341.35,827.26 340.71,827.62 340.08,827.99 339.46,828.36 338.83,828.74 338.21,829.13 337.60,829.51 336.98,829.91 336.37,830.31 335.77,830.71 335.16,831.12 334.56,831.54 333.97,831.96 333.38,832.39 332.79,832.82 332.20,833.26 331.62,833.70 331.05,834.14 330.47,834.59 329.91,835.05 329.34,835.51 328.78,835.98 328.22,836.45 327.67,836.93 327.12,837.41 326.58,837.89 326.04,838.38 325.50,838.88 324.97,839.38 324.45,839.88 323.92,840.39"/>
<polygon fill="#ffdf57" style="stroke:#000000;  stroke-width:0.50pt;" points="382.50,816.43 382.50,774.64 383.59,774.65 384.69,774.66 385.78,774.68 386.87,774.72 387.97,774.76 389.06,774.81 390.15,774.88 391.24,774.95 392.33,775.03 393.42,775.12 394.51,775.22 395.60,775.33 396.69,775.45 397.78,775.58 398.86,775.71 399.95,775.86 401.03,776.02 402.11,776.18 403.19,776.36 404.27,776.55 405.34,776.74 406.42,776.94 407.49,777.16 408.56,777.38 409.63,777.61 410.70,777.85 411.76,778.10 412.83,778.36 413.89,778.63 414.94,778.91 416.00,779.20 417.05,779.50 418.10,779.80 419.15,780.12 420.19,780.44 421.24,780.78 422.28,781.12 423.31,781.47 424.34,781.83 425.37,782.20 426.40,782.58 427.42,782.97 428.44,783.36 429.46,783.77 430.47,784.18 431.48,784.61 432.49,785.04 433.49,785.48 434.48,785.93 435.48,786.39 436.47,786.85 437.45,787.33 438.43,787.81 439.41,788.30 440.38,788.81 441.35,789.31 442.31,789.83 443.27,790.36 444.23,790.89 445.18,791.44 446.12,791.99 447.06,792.55 448.00,793.11 448.93,793.69 449.85,794.27 450.77,794.87 451.69,795.46 452.60,796.07 453.50,796.69 454.40,797.31 455.29,797.94 456.18,798.58 457.06,799.23 457.94,799.88 458.81,800.55 459.68,801.22 460.54,801.89 461.39,802.58 462.24,803.27 463.08,803.97 463.91,804.68 464.74,805.39 465.56,806.11 466.38,806.84 467.19,807.58 467.99,808.32 468.79,809.07 469.58,809.82 470.36,810.59 471.14,811.36 441.59,840.90 441.59,840.90 441.08,840.39 440.55,839.88 440.03,839.38 439.49,838.88 438.96,838.38 438.42,837.89 437.88,837.41 437.33,836.93 436.77,836.45 436.22,835.98 435.66,835.51 435.09,835.05 434.52,834.59 433.95,834.14 433.37,833.70 432.79,833.26 432.21,832.82 431.62,832.39 431.03,831.96 430.43,831.54 429.83,831.12 429.23,830.71 428.63,830.31 428.02,829.91 427.40,829.51 426.79,829.13 426.17,828.74 425.54,828.36 424.91,827.99 424.28,827.62 423.65,827.26 423.02,826.91 422.38,826.55 421.73,826.21 421.09,825.87 420.44,825.54 419.79,825.21 419.13,824.88 418.48,824.57 417.82,824.26 417.16,823.95 416.49,823.65 415.82,823.36 415.15,823.07 414.48,822.79 413.81,822.51 413.13,822.24 412.45,821.98 411.77,821.72 411.08,821.47 410.40,821.22 409.71,820.98 409.02,820.75 408.32,820.52 407.63,820.29 406.93,820.08 406.23,819.87 405.53,819.66 404.83,819.47 404.13,819.27 403.42,819.09 402.72,818.91 402.01,818.74 401.30,818.57 400.59,818.41 399.87,818.25 399.16,818.10 398.45,817.96 397.73,817.83 397.01,817.70 396.29,817.57 395.57,817.46 394.85,817.34 394.13,817.24 393.41,817.14 392.68,817.05 391.96,816.96 391.23,816.88 390.51,816.81 389.78,816.74 389.06,816.68 388.33,816.63 387.60,816.58 386.87,816.54 386.14,816.51 385.42,816.48 384.69,816.46 383.96,816.44 383.23,816.43"/>
<polygon fill="#ffdf57" style="stroke:#000000;  stroke-width:0.50pt;" points="441.59,840.90 471.14,811.36 471.91,812.13 472.67,812.92 473.43,813.71 474.18,814.51 474.92,815.31 475.66,816.12 476.39,816.93 477.11,817.76 477.82,818.59 478.53,819.42 479.23,820.26 479.92,821.11 480.60,821.96 481.28,822.82 481.95,823.69 482.61,824.56 483.27,825.43 483.92,826.32 484.55,827.20 485.19,828.10 485.81,829.00 486.42,829.90 487.03,830.81 487.63,831.72 488.22,832.64 488.81,833.57 489.38,834.50 489.95,835.43 490.51,836.37 491.06,837.32 491.60,838.27 492.14,839.22 492.67,840.18 493.18,841.15 493.69,842.11 494.19,843.09 494.69,844.06 495.17,845.05 495.64,846.03 496.11,847.02 496.57,848.01 497.02,849.01 497.46,850.01 497.89,851.02 498.31,852.03 498.73,853.04 499.13,854.05 499.53,855.07 499.92,856.10 500.30,857.12 500.67,858.15 501.03,859.19 501.38,860.22 501.72,861.26 502.05,862.30 502.38,863.35 502.69,864.39 503.00,865.45 503.30,866.50 503.58,867.55 503.86,868.61 504.13,869.67 504.39,870.73 504.64,871.80 504.88,872.87 505.12,873.94 505.34,875.01 505.55,876.08 505.76,877.15 505.95,878.23 506.14,879.31 506.31,880.39 506.48,881.47 506.64,882.55 506.78,883.64 506.92,884.72 507.05,885.81 507.17,886.89 507.28,887.98 507.38,889.07 507.47,890.16 507.55,891.25 507.62,892.35 507.68,893.44 507.74,894.53 507.78,895.62 507.81,896.72 507.84,897.81 507.85,898.90 507.86,900.00 466.07,900.00 466.07,900.00 466.07,899.27 466.06,898.54 466.04,897.81 466.02,897.08 465.99,896.35 465.96,895.62 465.91,894.90 465.87,894.17 465.81,893.44 465.75,892.71 465.69,891.99 465.61,891.26 465.53,890.54 465.45,889.81 465.36,889.09 465.26,888.37 465.15,887.65 465.04,886.92 464.92,886.20 464.80,885.49 464.67,884.77 464.54,884.05 464.39,883.34 464.24,882.62 464.09,881.91 463.93,881.20 463.76,880.49 463.59,879.78 463.41,879.07 463.22,878.37 463.03,877.66 462.83,876.96 462.63,876.26 462.42,875.56 462.20,874.87 461.98,874.17 461.75,873.48 461.52,872.79 461.28,872.10 461.03,871.42 460.78,870.73 460.52,870.05 460.26,869.37 459.99,868.69 459.71,868.02 459.43,867.34 459.14,866.67 458.85,866.01 458.55,865.34 458.24,864.68 457.93,864.02 457.61,863.36 457.29,862.71 456.96,862.06 456.63,861.41 456.29,860.76 455.94,860.12 455.59,859.48 455.24,858.85 454.87,858.21 454.51,857.58 454.13,856.96 453.76,856.33 453.37,855.71 452.98,855.10 452.59,854.48 452.19,853.87 451.78,853.27 451.37,852.66 450.96,852.06 450.54,851.47 450.11,850.88 449.68,850.29 449.24,849.70 448.80,849.12 448.35,848.55 447.90,847.97 447.45,847.41 446.98,846.84 446.52,846.28 446.05,845.72 445.57,845.17 445.09,844.62 444.60,844.08 444.11,843.54 443.62,843.00 443.12,842.47 442.62,841.94 442.11,841.42"/>
<polygon fill="#ffff6f" style="stroke:#000000;  stroke-width:0.50pt;" points="257.14,900.00 173.57,900.00 173.58,898.17 173.60,896.35 173.64,894.53 173.70,892.71 173.77,890.88 173.86,889.06 173.96,887.24 174.08,885.42 174.22,883.61 174.37,881.79 174.53,879.97 174.72,878.16 174.91,876.35 175.13,874.54 175.36,872.73 175.60,870.92 175.87,869.12 176.14,867.31 176.44,865.52 176.75,863.72 177.07,861.92 177.41,860.13 177.77,858.34 178.14,856.56 178.52,854.78 178.93,853.00 179.34,851.22 179.78,849.45 180.23,847.69 180.69,845.92 181.17,844.16 181.66,842.41 182.17,840.66 182.70,838.91 183.24,837.17 183.80,835.44 184.37,833.70 184.95,831.98 185.55,830.26 186.17,828.54 186.80,826.83 187.45,825.13 188.11,823.43 188.78,821.73 189.47,820.04 189.47,820.04 266.68,852.03 266.68,852.03 266.27,853.04 265.86,854.05 265.47,855.07 265.08,856.10 264.70,857.12 264.33,858.15 263.97,859.19 263.62,860.22 263.28,861.26 262.94,862.30 262.62,863.35 262.30,864.39 262.00,865.45 261.70,866.50 261.41,867.55 261.14,868.61 260.87,869.67 260.61,870.73 260.36,871.80 260.11,872.87 259.88,873.94 259.66,875.01 259.45,876.08 259.24,877.15 259.05,878.23 258.86,879.31 258.69,880.39 258.52,881.47 258.36,882.55 258.21,883.64 258.08,884.72 257.95,885.81 257.83,886.89 257.72,887.98 257.62,889.07 257.53,890.16 257.45,891.25 257.38,892.35 257.31,893.44 257.26,894.53 257.22,895.62 257.19,896.72 257.16,897.81 257.15,898.90 257.14,900.00"/>
<polygon fill="#ffff6f" style="stroke:#000000;  stroke-width:0.50pt;" points="266.68,852.03 189.47,820.04 190.18,818.36 190.90,816.69 191.63,815.02 192.38,813.36 193.15,811.70 193.92,810.05 194.72,808.41 195.52,806.77 196.34,805.15 197.18,803.53 198.03,801.91 198.89,800.31 199.77,798.71 200.66,797.12 201.56,795.53 202.48,793.96 203.41,792.39 204.36,790.83 205.32,789.28 206.29,787.74 207.28,786.21 208.28,784.68 209.29,783.17 210.32,781.66 211.36,780.16 212.41,778.67 213.47,777.19 214.55,775.72 215.64,774.26 216.75,772.81 217.86,771.37 218.99,769.94 220.13,768.52 221.29,767.10 222.45,765.70 223.63,764.31 224.82,762.93 226.02,761.56 227.24,760.20 228.46,758.85 229.70,757.51 230.95,756.18 232.21,754.86 233.48,753.56 234.76,752.26 234.76,752.26 293.86,811.36 293.86,811.36 293.09,812.13 292.33,812.92 291.57,813.71 290.82,814.51 290.08,815.31 289.34,816.12 288.61,816.93 287.89,817.76 287.18,818.59 286.47,819.42 285.77,820.26 285.08,821.11 284.39,821.96 283.72,822.82 283.05,823.69 282.38,824.56 281.73,825.43 281.08,826.32 280.44,827.20 279.81,828.10 279.19,829.00 278.57,829.90 277.97,830.81 277.37,831.72 276.77,832.64 276.19,833.57 275.61,834.50 275.05,835.43 274.49,836.37 273.94,837.32 273.39,838.27 272.86,839.22 272.33,840.18 271.82,841.15 271.31,842.11 270.81,843.09 270.31,844.06 269.83,845.05 269.35,846.03 268.89,847.02 268.43,848.01 267.98,849.01 267.54,850.01 267.11,851.02 266.68,852.03"/>
<polygon fill="#ffff6f" style="stroke:#000000;  stroke-width:0.50pt;" points="293.86,811.36 234.76,752.26 236.06,750.98 237.37,749.71 238.68,748.45 240.01,747.20 241.35,745.96 242.70,744.73 244.06,743.52 245.43,742.32 246.81,741.13 248.20,739.95 249.60,738.78 251.02,737.63 252.44,736.49 253.87,735.36 255.31,734.24 256.76,733.14 258.22,732.05 259.69,730.97 261.17,729.91 262.66,728.85 264.16,727.82 265.67,726.79 267.18,725.78 268.71,724.78 270.24,723.79 271.78,722.82 273.33,721.86 274.89,720.91 276.46,719.98 278.04,719.06 279.62,718.16 281.21,717.27 282.81,716.39 284.41,715.53 286.03,714.68 287.65,713.84 289.28,713.02 290.91,712.21 292.55,711.42 294.20,710.64 295.86,709.88 297.52,709.13 299.19,708.40 300.86,707.68 302.55,706.97 334.53,784.18 334.53,784.18 333.52,784.61 332.51,785.04 331.51,785.48 330.51,785.93 329.52,786.39 328.53,786.85 327.55,787.33 326.57,787.81 325.59,788.30 324.62,788.81 323.65,789.31 322.68,789.83 321.73,790.36 320.77,790.89 319.82,791.44 318.88,791.99 317.94,792.55 317.00,793.11 316.07,793.69 315.15,794.27 314.22,794.87 313.31,795.46 312.40,796.07 311.50,796.69 310.60,797.31 309.70,797.94 308.82,798.58 307.93,799.23 307.06,799.88 306.19,800.55 305.32,801.22 304.46,801.89 303.61,802.58 302.76,803.27 301.92,803.97 301.09,804.68 300.26,805.39 299.44,806.11 298.62,806.84 297.81,807.58 297.01,808.32 296.21,809.07 295.42,809.82 294.64,810.59"/>
<polygon fill="#ffff6f" style="stroke:#000000;  stroke-width:0.50pt;" points="334.53,784.18 302.55,706.97 304.23,706.28 305.93,705.61 307.63,704.95 309.33,704.30 311.04,703.67 312.76,703.05 314.48,702.45 316.21,701.87 317.94,701.30 319.67,700.74 321.41,700.20 323.16,699.67 324.91,699.16 326.67,698.67 328.42,698.19 330.19,697.72 331.95,697.28 333.73,696.84 335.50,696.42 337.28,696.02 339.06,695.64 340.85,695.26 342.63,694.91 344.43,694.57 346.22,694.24 348.02,693.94 349.82,693.64 351.62,693.36 353.42,693.10 355.23,692.86 357.04,692.63 358.85,692.41 360.66,692.21 362.47,692.03 364.29,691.87 366.11,691.71 367.93,691.58 369.74,691.46 371.56,691.36 373.39,691.27 375.21,691.20 377.03,691.14 378.85,691.10 380.68,691.08 382.50,691.07 382.50,774.64 382.50,774.64 381.41,774.65 380.31,774.66 379.22,774.68 378.12,774.72 377.03,774.76 375.94,774.81 374.85,774.88 373.75,774.95 372.66,775.03 371.57,775.12 370.48,775.22 369.40,775.33 368.31,775.45 367.22,775.58 366.14,775.71 365.05,775.86 363.97,776.02 362.89,776.18 361.81,776.36 360.73,776.55 359.65,776.74 358.58,776.94 357.51,777.16 356.44,777.38 355.37,777.61 354.30,777.85 353.24,778.10 352.17,778.36 351.11,778.63 350.05,778.91 349.00,779.20 347.95,779.50 346.90,779.80 345.85,780.12 344.80,780.44 343.76,780.78 342.72,781.12 341.69,781.47 340.65,781.83 339.62,782.20 338.60,782.58 337.58,782.97 336.56,783.36 335.54,783.77"/>
<polygon fill="#ffff6f" style="stroke:#000000;  stroke-width:0.50pt;" points="382.50,774.64 382.50,691.07 384.32,691.08 386.15,691.10 387.97,691.14 389.79,691.20 391.61,691.27 393.43,691.36 395.25,691.46 397.07,691.58 398.89,691.71 400.71,691.87 402.52,692.03 404.34,692.21 406.15,692.41 407.96,692.63 409.77,692.86 411.58,693.10 413.38,693.36 415.18,693.64 416.98,693.94 418.78,694.24 420.57,694.57 422.36,694.91 424.15,695.26 425.94,695.64 427.72,696.02 429.50,696.42 431.27,696.84 433.04,697.28 434.81,697.72 436.57,698.19 438.33,698.67 440.09,699.16 441.84,699.67 443.58,700.20 445.33,700.74 447.06,701.30 448.79,701.87 450.52,702.45 452.24,703.05 453.96,703.67 455.67,704.30 457.37,704.95 459.07,705.61 460.77,706.28 462.45,706.97 430.47,784.18 430.47,784.18 429.46,783.77 428.44,783.36 427.42,782.97 426.40,782.58 425.37,782.20 424.34,781.83 423.31,781.47 422.28,781.12 421.24,780.78 420.19,780.44 419.15,780.12 418.10,779.80 417.05,779.50 416.00,779.20 414.94,778.91 413.89,778.63 412.83,778.36 411.76,778.10 410.70,777.85 409.63,777.61 408.56,777.38 407.49,777.16 406.42,776.94 405.34,776.74 404.27,776.55 403.19,776.36 402.11,776.18 401.03,776.02 399.95,775.86 398.86,775.71 397.78,775.58 396.69,775.45 395.60,775.33 394.51,775.22 393.42,775.12 392.33,775.03 391.24,774.95 390.15,774.88 389.06,774.81 387.97,774.76 386.87,774.72 385.78,774.68 384.69,774.66 383.59,774.65"/>
<polygon fill="#ffff6f" style="stroke:#000000;  stroke-width:0.50pt;" points="430.47,784.18 462.45,706.97 464.13,707.68 465.81,708.40 467.48,709.13 469.14,709.88 470.80,710.64 472.45,711.42 474.09,712.21 475.72,713.02 477.35,713.84 478.97,714.68 480.59,715.53 482.19,716.39 483.79,717.27 485.38,718.16 486.96,719.06 488.54,719.98 490.11,720.91 491.66,721.86 493.21,722.82 494.76,723.79 496.29,724.78 497.81,725.78 499.33,726.79 500.84,727.82 502.34,728.85 503.82,729.91 505.30,730.97 506.77,732.05 508.24,733.14 509.69,734.24 511.13,735.36 512.56,736.49 513.98,737.63 515.39,738.78 516.80,739.95 518.19,741.13 519.57,742.32 520.94,743.52 522.30,744.73 523.65,745.96 524.99,747.20 526.32,748.45 527.63,749.71 528.94,750.98 530.23,752.26 471.14,811.36 471.14,811.36 470.36,810.59 469.58,809.82 468.79,809.07 467.99,808.32 467.19,807.58 466.38,806.84 465.56,806.11 464.74,805.39 463.91,804.68 463.08,803.97 462.24,803.27 461.39,802.58 460.54,801.89 459.68,801.22 458.81,800.55 457.94,799.88 457.06,799.23 456.18,798.58 455.29,797.94 454.40,797.31 453.50,796.69 452.60,796.07 451.69,795.46 450.77,794.87 449.85,794.27 448.93,793.69 448.00,793.11 447.06,792.55 446.12,791.99 445.18,791.44 444.23,790.89 443.27,790.36 442.31,789.83 441.35,789.31 440.38,788.81 439.41,788.30 438.43,787.81 437.45,787.33 436.47,786.85 435.48,786.39 434.48,785.93 433.49,785.48 432.49,785.04 431.48,784.61"/>
<polygon fill="#ffff6f" style="stroke:#000000;  stroke-width:0.50pt;" points="471.14,811.36 530.23,752.26 531.52,753.56 532.79,754.86 534.05,756.18 535.30,757.51 536.54,758.85 537.76,760.20 538.98,761.56 540.18,762.93 541.37,764.31 542.55,765.70 543.71,767.10 544.87,768.52 546.01,769.94 547.14,771.37 548.25,772.81 549.36,774.26 550.45,775.72 551.53,777.19 552.59,778.67 553.64,780.16 554.68,781.66 555.71,783.17 556.72,784.68 557.72,786.21 558.71,787.74 559.68,789.28 560.64,790.83 561.59,792.39 562.52,793.96 563.44,795.53 564.34,797.12 565.23,798.71 566.11,800.31 566.97,801.91 567.82,803.53 568.66,805.15 569.48,806.77 570.28,808.41 571.07,810.05 571.85,811.70 572.62,813.36 573.36,815.02 574.10,816.69 574.82,818.36 575.52,820.04 498.31,852.03 498.31,852.03 497.89,851.02 497.46,850.01 497.02,849.01 496.57,848.01 496.11,847.02 495.64,846.03 495.17,845.05 494.69,844.06 494.19,843.09 493.69,842.11 493.18,841.15 492.67,840.18 492.14,839.22 491.60,838.27 491.06,837.32 490.51,836.37 489.95,835.43 489.38,834.50 488.81,833.57 488.22,832.64 487.63,831.72 487.03,830.81 486.42,829.90 485.81,829.00 485.19,828.10 484.55,827.20 483.92,826.32 483.27,825.43 482.61,824.56 481.95,823.69 481.28,822.82 480.60,821.96 479.92,821.11 479.23,820.26 478.53,819.42 477.82,818.59 477.11,817.76 476.39,816.93 475.66,816.12 474.92,815.31 474.18,814.51 473.43,813.71 472.67,812.92 471.91,812.13"/>
<polygon fill="#ffff6f" style="stroke:#000000;  stroke-width:0.50pt;" points="498.31,852.03 575.52,820.04 576.21,821.73 576.89,823.43 577.55,825.13 578.20,826.83 578.83,828.54 579.44,830.26 580.04,831.98 580.63,833.70 581.20,835.44 581.76,837.17 582.30,838.91 582.82,840.66 583.33,842.41 583.83,844.16 584.31,845.92 584.77,847.69 585.22,849.45 585.65,851.22 586.07,853.00 586.47,854.78 586.86,856.56 587.23,858.34 587.59,860.13 587.93,861.92 588.25,863.72 588.56,865.52 588.86,867.31 589.13,869.12 589.39,870.92 589.64,872.73 589.87,874.54 590.08,876.35 590.28,878.16 590.47,879.97 590.63,881.79 590.78,883.61 590.92,885.42 591.04,887.24 591.14,889.06 591.23,890.88 591.30,892.71 591.36,894.53 591.40,896.35 591.42,898.17 591.43,900.00 507.86,900.00 507.86,900.00 507.85,898.90 507.84,897.81 507.81,896.72 507.78,895.62 507.74,894.53 507.68,893.44 507.62,892.35 507.55,891.25 507.47,890.16 507.38,889.07 507.28,887.98 507.17,886.89 507.05,885.81 506.92,884.72 506.78,883.64 506.64,882.55 506.48,881.47 506.31,880.39 506.14,879.31 505.95,878.23 505.76,877.15 505.55,876.08 505.34,875.01 505.12,873.94 504.88,872.87 504.64,871.80 504.39,870.73 504.13,869.67 503.86,868.61 503.58,867.55 503.30,866.50 503.00,865.45 502.69,864.39 502.38,863.35 502.05,862.30 501.72,861.26 501.38,860.22 501.03,859.19 500.67,858.15 500.30,857.12 499.92,856.10 499.53,855.07 499.13,854.05 498.73,853.04"/>
<polygon fill="#9fff9f" style="stroke:#000000;  stroke-width:0.50pt;" points="173.57,900.00 90.00,900.00 90.01,897.45 90.04,894.89 90.10,892.34 90.18,889.79 90.28,887.24 90.40,884.69 90.55,882.14 90.71,879.59 90.90,877.05 91.11,874.51 91.35,871.96 91.60,869.42 91.88,866.89 92.18,864.35 92.50,861.82 92.85,859.29 93.21,856.76 93.60,854.24 94.01,851.72 94.44,849.21 94.90,846.69 95.37,844.19 95.62,842.93 177.59,859.24 177.59,859.24 177.24,861.03 176.91,862.82 176.59,864.62 176.29,866.41 176.00,868.22 175.73,870.02 175.48,871.82 175.24,873.63 175.02,875.44 174.81,877.25 174.62,879.07 174.45,880.88 174.29,882.70 174.15,884.51 174.02,886.33 173.91,888.15 173.81,889.97 173.73,891.80 173.67,893.62 173.62,895.44 173.59,897.26 173.57,899.09"/>
<polygon fill="#9fff9f" style="stroke:#000000;  stroke-width:0.50pt;" points="177.59,859.24 95.62,842.93 96.13,840.43 96.66,837.94 97.21,835.44 97.79,832.96 98.38,830.48 99.00,828.00 99.64,825.53 100.30,823.06 100.98,820.60 101.69,818.15 102.41,815.70 103.16,813.26 103.92,810.83 104.71,808.40 105.52,805.98 106.35,803.56 107.21,801.16 108.08,798.76 108.97,796.37 109.89,793.99 110.82,791.61 111.78,789.24 112.27,788.06 189.47,820.04 189.47,820.04 188.78,821.73 188.11,823.43 187.45,825.13 186.80,826.83 186.17,828.54 185.55,830.26 184.95,831.98 184.37,833.70 183.80,835.44 183.24,837.17 182.70,838.91 182.17,840.66 181.66,842.41 181.17,844.16 180.69,845.92 180.23,847.69 179.78,849.45 179.34,851.22 178.93,853.00 178.52,854.78 178.14,856.56 177.77,858.34"/>
<polygon fill="#9fff9f" style="stroke:#000000;  stroke-width:0.50pt;" points="189.47,820.04 112.27,788.06 113.25,785.71 114.26,783.36 115.29,781.03 116.34,778.70 117.40,776.38 118.49,774.07 119.60,771.77 120.73,769.49 121.88,767.21 123.05,764.94 124.24,762.68 125.45,760.43 126.67,758.19 127.92,755.96 129.19,753.75 130.47,751.54 131.78,749.35 133.10,747.17 134.45,745.00 135.81,742.84 137.19,740.69 138.59,738.56 139.29,737.49 208.78,783.92 208.78,783.92 207.78,785.44 206.78,786.97 205.80,788.51 204.84,790.06 203.88,791.61 202.95,793.17 202.02,794.75 201.11,796.32 200.21,797.91 199.33,799.51 198.46,801.11 197.60,802.72 196.76,804.34 195.93,805.96 195.12,807.59 194.32,809.23 193.53,810.88 192.76,812.53 192.01,814.19 191.26,815.85 190.54,817.53 189.83,819.20"/>
<polygon fill="#9fff9f" style="stroke:#000000;  stroke-width:0.50pt;" points="208.78,783.92 139.29,737.49 140.72,735.38 142.17,733.27 143.63,731.18 145.11,729.11 146.61,727.04 148.13,724.99 149.67,722.95 151.22,720.93 152.79,718.91 154.38,716.92 155.99,714.93 157.61,712.96 159.25,711.01 160.91,709.07 162.59,707.14 164.28,705.23 165.99,703.33 167.71,701.45 169.45,699.58 171.21,697.73 172.98,695.89 174.77,694.07 175.67,693.17 234.76,752.26 234.76,752.26 233.48,753.56 232.21,754.86 230.95,756.18 229.70,757.51 228.46,758.85 227.24,760.20 226.02,761.56 224.82,762.93 223.63,764.31 222.45,765.70 221.29,767.10 220.13,768.52 218.99,769.94 217.86,771.37 216.75,772.81 215.64,774.26 214.55,775.72 213.47,777.19 212.41,778.67 211.36,780.16 210.32,781.66 209.29,783.17"/>
<polygon fill="#9fff9f" style="stroke:#000000;  stroke-width:0.50pt;" points="234.76,752.26 175.67,693.17 177.48,691.37 179.31,689.59 181.16,687.83 183.02,686.08 184.89,684.35 186.78,682.63 188.68,680.93 190.60,679.25 192.54,677.58 194.48,675.93 196.45,674.30 198.42,672.68 200.41,671.09 202.42,669.51 204.44,667.94 206.47,666.40 208.51,664.87 210.57,663.36 212.64,661.87 214.73,660.40 216.83,658.94 218.94,657.51 220.00,656.79 266.42,726.28 266.42,726.28 264.91,727.30 263.41,728.33 261.92,729.38 260.43,730.44 258.96,731.51 257.49,732.59 256.04,733.69 254.59,734.80 253.15,735.92 251.73,737.06 250.31,738.21 248.90,739.37 247.51,740.54 246.12,741.72 244.74,742.92 243.38,744.13 242.02,745.35 240.68,746.58 239.35,747.82 238.02,749.08 236.71,750.34 235.41,751.62"/>
<polygon fill="#9fff9f" style="stroke:#000000;  stroke-width:0.50pt;" points="266.42,726.28 220.00,656.79 222.12,655.38 224.26,653.99 226.42,652.62 228.58,651.27 230.76,649.94 232.95,648.62 235.15,647.33 237.36,646.05 239.58,644.79 241.81,643.56 244.05,642.34 246.31,641.14 248.57,639.96 250.85,638.80 253.13,637.66 255.42,636.54 257.73,635.45 260.04,634.37 262.36,633.31 264.70,632.27 267.04,631.25 269.39,630.25 270.56,629.76 302.55,706.97 302.55,706.97 300.86,707.68 299.19,708.40 297.52,709.13 295.86,709.88 294.20,710.64 292.55,711.42 290.91,712.21 289.28,713.02 287.65,713.84 286.03,714.68 284.41,715.53 282.81,716.39 281.21,717.27 279.62,718.16 278.04,719.06 276.46,719.98 274.89,720.91 273.33,721.86 271.78,722.82 270.24,723.79 268.71,724.78 267.18,725.78"/>
<polygon fill="#9fff9f" style="stroke:#000000;  stroke-width:0.50pt;" points="302.55,706.97 270.56,629.76 272.93,628.80 275.30,627.85 277.68,626.93 280.06,626.02 282.46,625.14 284.86,624.28 287.27,623.43 289.69,622.61 292.11,621.81 294.54,621.04 296.98,620.28 299.42,619.54 301.88,618.83 304.33,618.14 306.79,617.47 309.26,616.82 311.74,616.19 314.22,615.58 316.70,615.00 319.19,614.43 321.69,613.89 324.18,613.37 325.44,613.12 341.74,695.08 341.74,695.08 339.95,695.45 338.17,695.83 336.39,696.22 334.61,696.63 332.84,697.06 331.07,697.50 329.31,697.96 327.54,698.43 325.79,698.91 324.04,699.42 322.29,699.93 320.54,700.47 318.80,701.02 317.07,701.58 315.34,702.16 313.62,702.75 311.90,703.36 310.19,703.98 308.48,704.62 306.78,705.28 305.08,705.94 303.39,706.63"/>
<polygon fill="#9fff9f" style="stroke:#000000;  stroke-width:0.50pt;" points="341.74,695.08 325.44,613.12 327.94,612.63 330.45,612.17 332.96,611.72 335.48,611.30 338.00,610.90 340.53,610.53 343.06,610.17 345.59,609.84 348.12,609.53 350.66,609.24 353.19,608.97 355.74,608.73 358.28,608.50 360.82,608.30 363.37,608.13 365.92,607.97 368.47,607.84 371.02,607.72 373.57,607.64 376.12,607.57 378.67,607.52 381.22,607.50 382.50,607.50 382.50,691.07 382.50,691.07 380.68,691.08 378.85,691.10 377.03,691.14 375.21,691.20 373.39,691.27 371.56,691.36 369.74,691.46 367.93,691.58 366.11,691.71 364.29,691.87 362.47,692.03 360.66,692.21 358.85,692.41 357.04,692.63 355.23,692.86 353.42,693.10 351.62,693.36 349.82,693.64 348.02,693.94 346.22,694.24 344.43,694.57 342.63,694.91"/>
<polygon fill="#9fff9f" style="stroke:#000000;  stroke-width:0.50pt;" points="382.50,691.07 382.50,607.50 385.05,607.51 387.60,607.54 390.16,607.60 392.71,607.68 395.26,607.78 397.81,607.90 400.36,608.04 402.90,608.21 405.45,608.40 407.99,608.61 410.53,608.85 413.07,609.10 415.61,609.38 418.15,609.68 420.68,610.00 423.21,610.35 425.73,610.71 428.26,611.10 430.78,611.51 433.29,611.94 435.80,612.40 438.31,612.87 439.56,613.12 423.26,695.08 423.26,695.08 421.47,694.74 419.68,694.40 417.88,694.09 416.08,693.79 414.28,693.50 412.48,693.23 410.67,692.98 408.87,692.74 407.06,692.52 405.24,692.31 403.43,692.12 401.62,691.95 399.80,691.79 397.98,691.64 396.16,691.52 394.34,691.41 392.52,691.31 390.70,691.23 388.88,691.17 387.06,691.12 385.23,691.09 383.41,691.07"/>
<polygon fill="#9fff9f" style="stroke:#000000;  stroke-width:0.50pt;" points="423.26,695.08 439.56,613.12 442.06,613.63 444.56,614.16 447.05,614.71 449.54,615.29 452.02,615.88 454.50,616.50 456.97,617.14 459.44,617.80 461.90,618.48 464.35,619.18 466.80,619.91 469.24,620.66 471.67,621.42 474.10,622.21 476.52,623.02 478.93,623.85 481.34,624.70 483.74,625.58 486.13,626.47 488.51,627.39 490.89,628.32 493.25,629.28 494.43,629.76 462.45,706.97 462.45,706.97 460.77,706.28 459.07,705.61 457.37,704.95 455.67,704.30 453.96,703.67 452.24,703.05 450.52,702.45 448.79,701.87 447.06,701.30 445.33,700.74 443.58,700.20 441.84,699.67 440.09,699.16 438.33,698.67 436.57,698.19 434.81,697.72 433.04,697.28 431.27,696.84 429.50,696.42 427.72,696.02 425.94,695.64 424.15,695.26"/>
<polygon fill="#9fff9f" style="stroke:#000000;  stroke-width:0.50pt;" points="462.45,706.97 494.43,629.76 496.79,630.75 499.13,631.76 501.47,632.79 503.80,633.84 506.11,634.90 508.42,635.99 510.72,637.10 513.01,638.23 515.29,639.38 517.56,640.55 519.82,641.74 522.07,642.94 524.31,644.17 526.53,645.42 528.75,646.69 530.95,647.97 533.15,649.28 535.33,650.60 537.50,651.94 539.66,653.31 541.81,654.69 543.94,656.09 545.00,656.79 498.57,726.28 498.57,726.28 497.05,725.27 495.52,724.28 493.99,723.30 492.44,722.34 490.89,721.38 489.32,720.44 487.75,719.52 486.17,718.61 484.59,717.71 482.99,716.83 481.39,715.96 479.78,715.10 478.16,714.26 476.54,713.43 474.91,712.62 473.27,711.82 471.62,711.03 469.97,710.26 468.31,709.51 466.64,708.76 464.97,708.04 463.29,707.32"/>
<polygon fill="#9fff9f" style="stroke:#000000;  stroke-width:0.50pt;" points="498.57,726.28 545.00,656.79 547.12,658.22 549.22,659.67 551.31,661.13 553.39,662.61 555.46,664.11 557.51,665.63 559.55,667.17 561.57,668.72 563.58,670.29 565.58,671.88 567.57,673.49 569.53,675.11 571.49,676.75 573.43,678.41 575.36,680.09 577.27,681.78 579.17,683.48 581.05,685.21 582.91,686.95 584.77,688.71 586.60,690.48 588.42,692.27 589.33,693.17 530.23,752.26 530.23,752.26 528.94,750.98 527.63,749.71 526.32,748.45 524.99,747.20 523.65,745.96 522.30,744.73 520.94,743.52 519.57,742.32 518.19,741.13 516.80,739.95 515.39,738.78 513.98,737.63 512.56,736.49 511.13,735.36 509.69,734.24 508.24,733.14 506.77,732.05 505.30,730.97 503.82,729.91 502.34,728.85 500.84,727.82 499.33,726.79"/>
<polygon fill="#9fff9f" style="stroke:#000000;  stroke-width:0.50pt;" points="530.23,752.26 589.33,693.17 591.12,694.98 592.91,696.81 594.67,698.65 596.42,700.51 598.15,702.39 599.87,704.28 601.57,706.18 603.25,708.10 604.92,710.04 606.57,711.98 608.20,713.95 609.81,715.92 611.41,717.91 612.99,719.92 614.55,721.94 616.10,723.97 617.63,726.01 619.14,728.07 620.63,730.14 622.10,732.23 623.56,734.32 624.99,736.43 625.70,737.49 556.22,783.92 556.22,783.92 555.20,782.41 554.16,780.91 553.12,779.42 552.06,777.93 550.99,776.46 549.90,774.99 548.81,773.54 547.70,772.09 546.57,770.65 545.44,769.23 544.29,767.81 543.13,766.40 541.96,765.00 540.78,763.62 539.58,762.24 538.37,760.88 537.15,759.52 535.92,758.18 534.68,756.84 533.42,755.52 532.15,754.21 530.88,752.91"/>
<polygon fill="#9fff9f" style="stroke:#000000;  stroke-width:0.50pt;" points="556.22,783.92 625.70,737.49 627.11,739.62 628.50,741.76 629.87,743.92 631.23,746.08 632.56,748.26 633.88,750.45 635.17,752.64 636.45,754.86 637.70,757.08 638.94,759.31 640.16,761.55 641.36,763.81 642.54,766.07 643.70,768.34 644.83,770.63 645.95,772.92 647.05,775.23 648.13,777.54 649.19,779.86 650.23,782.20 651.25,784.54 652.24,786.89 652.73,788.06 575.52,820.04 575.52,820.04 574.82,818.36 574.10,816.69 573.36,815.02 572.62,813.36 571.85,811.70 571.07,810.05 570.28,808.41 569.48,806.77 568.66,805.15 567.82,803.53 566.97,801.91 566.11,800.31 565.23,798.71 564.34,797.12 563.44,795.53 562.52,793.96 561.59,792.39 560.64,790.83 559.68,789.28 558.71,787.74 557.72,786.21 556.72,784.68"/>
<polygon fill="#9fff9f" style="stroke:#000000;  stroke-width:0.50pt;" points="575.52,820.04 652.73,788.06 653.70,790.43 654.65,792.80 655.57,795.18 656.48,797.56 657.36,799.96 658.22,802.36 659.06,804.77 659.88,807.19 660.68,809.61 661.46,812.04 662.22,814.48 662.95,816.92 663.67,819.37 664.36,821.83 665.03,824.29 665.68,826.76 666.31,829.24 666.92,831.72 667.50,834.20 668.07,836.69 668.61,839.18 669.13,841.68 669.38,842.93 587.41,859.24 587.41,859.24 587.05,857.45 586.67,855.67 586.28,853.89 585.87,852.11 585.44,850.34 585.00,848.57 584.54,846.80 584.07,845.04 583.58,843.29 583.08,841.53 582.56,839.79 582.03,838.04 581.48,836.30 580.92,834.57 580.34,832.84 579.75,831.12 579.14,829.40 578.51,827.68 577.88,825.98 577.22,824.27 576.55,822.58 575.87,820.89"/>
<polygon fill="#9fff9f" style="stroke:#000000;  stroke-width:0.50pt;" points="587.41,859.24 669.38,842.93 669.87,845.44 670.33,847.95 670.77,850.46 671.20,852.98 671.59,855.50 671.97,858.03 672.33,860.55 672.66,863.09 672.97,865.62 673.26,868.15 673.53,870.69 673.77,873.23 673.99,875.78 674.19,878.32 674.37,880.87 674.53,883.42 674.66,885.96 674.77,888.51 674.86,891.07 674.93,893.62 674.97,896.17 675.00,898.72 675.00,900.00 591.43,900.00 591.43,900.00 591.42,898.17 591.40,896.35 591.36,894.53 591.30,892.71 591.23,890.88 591.14,889.06 591.04,887.24 590.92,885.42 590.78,883.61 590.63,881.79 590.47,879.97 590.28,878.16 590.08,876.35 589.87,874.54 589.64,872.73 589.39,870.92 589.13,869.12 588.86,867.31 588.56,865.52 588.25,863.72 587.93,861.92 587.59,860.13"/>
<text x="5.35cm" y="3.30cm" style="fill:#000000;font-weight:bold;font-size:18pt; font-family:sans-serif;">5 Generation Fan Chart for Jacques RUAUX</text>
<text x="361.27" y="865.61" transform="rotate(0 382.53 879.11)" style="fill:#000000; font-size:9pt; font-family:sans-serif;"><tspan x="361.27" dy="9">Jacques</tspan><tspan x="362.28" dy="9">RUAUX</tspan><tspan x="365.02" dy="9">* 1953</tspan></text>
<text x="309.24" y="842.11" transform="rotate(-45 338.25 855.61)" style="fill:#000000; font-size:9pt; font-family:sans-serif;"><tspan x="309.24" dy="9">Jean Marcel</tspan><tspan x="318.00" dy="9">RUAUX</tspan><tspan x="309.73" dy="9">1918 - 1972</tspan></text>
<text x="398.37" y="842.25" transform="rotate(45 426.89 855.75)" style="fill:#000000; font-size:9pt; font-family:sans-serif;"><tspan x="405.88" dy="9">Paulette</tspan><tspan x="402.39" dy="9">POTHIER</tspan><tspan x="398.37" dy="9">1922 - 2006</tspan></text>
<text x="257.53" y="846.37" transform="rotate(-67 286.05 859.87)" style="fill:#000000; font-size:9pt; font-family:sans-serif;"><tspan x="271.54" dy="9">Lon</tspan><tspan x="265.80" dy="9">RUAUX</tspan><tspan x="257.53" dy="9">1891 - 1954</tspan></text>
<text x="314.16" y="789.92" transform="rotate(-22 342.68 803.42)" style="fill:#000000; font-size:9pt; font-family:sans-serif;"><tspan x="323.42" dy="9">Jeanne</tspan><tspan x="320.92" dy="9">POIROT</tspan><tspan x="314.16" dy="9">1891 - 1981</tspan></text>
<text x="394.11" y="790.05" transform="rotate(22 422.63 803.55)" style="fill:#000000; font-size:9pt; font-family:sans-serif;"><tspan x="403.63" dy="9">Gabriel</tspan><tspan x="398.13" dy="9">POTHIER</tspan><tspan x="394.11" dy="9">1889 - 1970</tspan></text>
<text x="450.56" y="846.68" transform="rotate(67 479.08 860.18)" style="fill:#000000; font-size:9pt; font-family:sans-serif;"><tspan x="463.33" dy="9">Marie</tspan><tspan x="451.32" dy="9">MARULIER</tspan><tspan x="450.56" dy="9">1895 - 1983</tspan></text>
<text x="196.44" y="856.63" transform="rotate(371 218.62 867.13)" style="fill:#000000; font-size:7pt; font-family:sans-serif;"><tspan x="207.34" dy="7">Lon</tspan><tspan x="202.87" dy="7">RUAUX</tspan><tspan x="196.44" dy="7">1851 - 1920</tspan></text>
<text x="224.22" y="796.42" transform="rotate(393 243.67 806.92)" style="fill:#000000; font-size:7pt; font-family:sans-serif;"><tspan x="224.22" dy="7">Josphine</tspan><tspan x="226.76" dy="7">POIROT</tspan><tspan x="230.06" dy="7">* 1860</tspan></text>
<text x="272.94" y="750.38" transform="rotate(416 289.86 760.88)" style="fill:#000000; font-size:7pt; font-family:sans-serif;"><tspan x="276.05" dy="7">Lucien</tspan><tspan x="272.94" dy="7">POIROT</tspan><tspan x="276.24" dy="7">* 1860</tspan></text>
<text x="331.10" y="725.52" transform="rotate(438 350.15 736.02)" style="fill:#000000; font-size:7pt; font-family:sans-serif;"><tspan x="335.57" dy="7">Justine</tspan><tspan x="331.10" dy="7">POTHIER</tspan><tspan x="336.54" dy="7">* 1855</tspan></text>
<text x="392.03" y="725.62" transform="rotate(281 415.37 736.12)" style="fill:#000000; font-size:7pt; font-family:sans-serif;"><tspan x="392.03" dy="7">Nicolas Flix</tspan><tspan x="396.31" dy="7">POTHIER</tspan><tspan x="401.75" dy="7">* 1851</tspan></text>
<text x="458.08" y="750.67" transform="rotate(303 475.58 761.17)" style="fill:#000000; font-size:7pt; font-family:sans-serif;"><tspan x="464.88" dy="7">Julie</tspan><tspan x="458.08" dy="7">BALAUD</tspan><tspan x="461.96" dy="7">* 1851</tspan></text>
<text x="492.26" y="796.86" transform="rotate(326 521.62 807.36)" style="fill:#000000; font-size:7pt; font-family:sans-serif;"><tspan x="492.26" dy="7">Nicolas Franois</tspan><tspan x="500.04" dy="7">MARULIER</tspan><tspan x="508.00" dy="7">* 1849</tspan></text>
<text x="525.48" y="857.15" transform="rotate(348 546.48 867.65)" style="fill:#000000; font-size:7pt; font-family:sans-serif;"><tspan x="525.48" dy="7">Marie Aline</tspan><tspan x="525.87" dy="7">BERNARD</tspan><tspan x="532.86" dy="7">* 1856</tspan></text>
<text x="114.02" y="866.02" transform="rotate(365 133.03 875.02)" style="fill:#000000; font-size:6pt; font-family:sans-serif;"><tspan x="118.53" dy="6">Francois</tspan><tspan x="119.53" dy="6">RUAUX</tspan><tspan x="114.02" dy="6">1808 - 1880</tspan></text>
<text x="120.19" y="817.84" transform="rotate(376 142.70 826.84)" style="fill:#000000; font-size:6pt; font-family:sans-serif;"><tspan x="120.19" dy="6">Marie-Thrse</tspan><tspan x="125.03" dy="6">BERNARD</tspan><tspan x="123.69" dy="6">1819 - 1889</tspan></text>
<text x="142.57" y="772.46" transform="rotate(388 161.58 781.46)" style="fill:#000000; font-size:6pt; font-family:sans-serif;"><tspan x="149.58" dy="6">Isidore</tspan><tspan x="147.08" dy="6">POIROT</tspan><tspan x="142.57" dy="6">1821 - 1878</tspan></text>
<text x="169.94" y="731.64" transform="rotate(399 188.95 740.64)" style="fill:#000000; font-size:6pt; font-family:sans-serif;"><tspan x="172.61" dy="6">Augustine</tspan><tspan x="176.78" dy="6">VIARD</tspan><tspan x="169.94" dy="6">1823 - 1898</tspan></text>
<text x="204.75" y="696.94" transform="rotate(410 223.76 705.94)" style="fill:#000000; font-size:6pt; font-family:sans-serif;"><tspan x="211.09" dy="6">Joseph</tspan><tspan x="209.26" dy="6">POIROT</tspan><tspan x="204.75" dy="6">1819 - 1889</tspan></text>
<text x="243.83" y="669.70" transform="rotate(421 264.67 678.70)" style="fill:#000000; font-size:6pt; font-family:sans-serif;"><tspan x="243.83" dy="6">Anne Rosalie</tspan><tspan x="247.00" dy="6">BERNARD</tspan><tspan x="245.66" dy="6">1829 - 1902</tspan></text>
<text x="287.10" y="650.96" transform="rotate(433 310.10 659.96)" style="fill:#000000; font-size:6pt; font-family:sans-serif;"><tspan x="287.10" dy="6">Francois Victor</tspan><tspan x="293.77" dy="6">POTHIER</tspan><tspan x="298.43" dy="6">* 1824</tspan></text>
<text x="339.65" y="641.45" transform="rotate(444 358.32 650.45)" style="fill:#000000; font-size:6pt; font-family:sans-serif;"><tspan x="345.32" dy="6">Rosalie</tspan><tspan x="339.65" dy="6">CHAPELLE</tspan><tspan x="346.65" dy="6">* 1824</tspan></text>
<text x="391.14" y="641.53" transform="rotate(275 407.47 650.53)" style="fill:#000000; font-size:6pt; font-family:sans-serif;"><tspan x="394.64" dy="6">Nicolas</tspan><tspan x="391.14" dy="6">POTHIER</tspan><tspan x="395.80" dy="6">* 1812</tspan></text>
<text x="436.99" y="651.20" transform="rotate(286 455.66 660.20)" style="fill:#000000; font-size:6pt; font-family:sans-serif;"><tspan x="446.49" dy="6">Julie</tspan><tspan x="436.99" dy="6">CHAPELLE</tspan><tspan x="443.99" dy="6">* 1815</tspan></text>
<text x="482.03" y="670.08" transform="rotate(298 501.04 679.08)" style="fill:#000000; font-size:6pt; font-family:sans-serif;"><tspan x="488.37" dy="6">Joseph</tspan><tspan x="486.04" dy="6">BALAUD</tspan><tspan x="482.03" dy="6">1814 - 1898</tspan></text>
<text x="518.85" y="697.45" transform="rotate(309 541.86 706.45)" style="fill:#000000; font-size:6pt; font-family:sans-serif;"><tspan x="518.85" dy="6">Marie Adelaide</tspan><tspan x="523.19" dy="6">CHAPELLE</tspan><tspan x="522.85" dy="6">1818 - 1860</tspan></text>
<text x="547.88" y="732.26" transform="rotate(320 576.56 741.26)" style="fill:#000000; font-size:6pt; font-family:sans-serif;"><tspan x="547.88" dy="6">Francois Hyacinthe</tspan><tspan x="558.06" dy="6">MARULIER</tspan><tspan x="564.88" dy="6">* 1818</tspan></text>
<text x="587.46" y="773.17" transform="rotate(331 603.80 782.17)" style="fill:#000000; font-size:6pt; font-family:sans-serif;"><tspan x="591.29" dy="6">Agathe</tspan><tspan x="587.46" dy="6">ANTOINE</tspan><tspan x="592.12" dy="6">* 1825</tspan></text>
<text x="603.52" y="818.60" transform="rotate(343 622.53 827.60)" style="fill:#000000; font-size:6pt; font-family:sans-serif;"><tspan x="608.03" dy="6">Francois</tspan><tspan x="604.87" dy="6">BERNARD</tspan><tspan x="603.52" dy="6">1816 - 1874</tspan></text>
<text x="611.71" y="866.82" transform="rotate(354 632.04 875.82)" style="fill:#000000; font-size:6pt; font-family:sans-serif;"><tspan x="616.04" dy="6">Catherine</tspan><tspan x="611.71" dy="6">FOMBARON</tspan><tspan x="613.03" dy="6">1818 - 1892</tspan></text>
</svg>
