<?xml version="1.0" encoding="UTF-8" standalone="no"?>
<!DOCTYPE svg PUBLIC "-//W3C//DTD SVG 1.0//EN" "http://www.w3.org/TR/2001/REC-SVG-20010904/DTD/svg10.dtd">
<svg width="21.59cm" height="27.94cm" xmlns="http://www.w3.org/2000/svg">
<rect width="21.59cm" height="27.94cm" style="fill: none;"/>
<line x1="10.04cm" y1="5.14cm" x2="10.04cm" y2="25.40cm" style="stroke:#000000; stroke-dasharray: 2,4; stroke-width:0.50pt;"/>
<line x1="11.74cm" y1="5.14cm" x2="11.74cm" y2="25.40cm" style="stroke:#000000; stroke-dasharray: 2,4; stroke-width:0.50pt;"/>
<line x1="13.44cm" y1="5.14cm" x2="13.44cm" y2="25.40cm" style="stroke:#000000; stroke-dasharray: 2,4; stroke-width:0.50pt;"/>
<line x1="15.15cm" y1="5.14cm" x2="15.15cm" y2="25.40cm" style="stroke:#000000; stroke-dasharray: 2,4; stroke-width:0.50pt;"/>
<line x1="16.85cm" y1="5.14cm" x2="16.85cm" y2="25.40cm" style="stroke:#000000; stroke-dasharray: 2,4; stroke-width:0.50pt;"/>
<line x1="18.55cm" y1="5.14cm" x2="18.55cm" y2="25.40cm" style="stroke:#000000; stroke-dasharray: 2,4; stroke-width:0.50pt;"/>
<polygon fill="#ffffff" style="stroke:#000000;  stroke-width:0.50pt;" points="488.40,204.00 490.18,210.25 488.40,216.50 486.63,210.25"/>
<polygon fill="#000000" style="stroke:#000000;  stroke-width:0.50pt;" points="523.99,204.00 525.76,210.25 523.99,216.50 522.22,210.25"/>
<line x1="13.83cm" y1="5.93cm" x2="14.74cm" y2="5.93cm" style="stroke:#000000; stroke-width:0.50pt;"/>
<polygon fill="#ffffff" style="stroke:#000000;  stroke-width:0.50pt;" points="488.40,225.88 490.18,232.13 488.40,238.38 486.63,232.13"/>
<polygon fill="#000000" style="stroke:#000000;  stroke-width:0.50pt;" points="531.83,225.88 533.60,232.13 531.83,238.38 530.06,232.13"/>
<line x1="13.83cm" y1="6.55cm" x2="14.96cm" y2="6.55cm" style="stroke:#000000; stroke-width:0.50pt;"/>
<polygon fill="#ffffff" style="stroke:#000000;  stroke-width:0.50pt;" points="488.40,247.75 490.18,254.00 488.40,260.25 486.63,254.00"/>
<polygon fill="#ffffff" style="stroke:#000000;  stroke-width:0.50pt;" points="489.01,269.63 490.78,275.88 489.01,282.13 487.24,275.88"/>
<polygon fill="#000000" style="stroke:#000000;  stroke-width:0.50pt;" points="514.34,269.63 516.11,275.88 514.34,282.13 512.57,275.88"/>
<line x1="13.85cm" y1="7.79cm" x2="14.47cm" y2="7.79cm" style="stroke:#000000; stroke-width:0.50pt;"/>
<polygon fill="#ffffff" style="stroke:#000000;  stroke-width:0.50pt;" points="491.42,291.50 493.19,297.75 491.42,304.00 489.65,297.75"/>
<polygon fill="#000000" style="stroke:#000000;  stroke-width:0.50pt;" points="532.43,291.50 534.21,297.75 532.43,304.00 530.66,297.75"/>
<line x1="13.92cm" y1="8.40cm" x2="14.98cm" y2="8.40cm" style="stroke:#000000; stroke-width:0.50pt;"/>
<polygon fill="#ffffff" style="stroke:#000000;  stroke-width:0.50pt;" points="491.42,313.38 493.19,319.63 491.42,325.88 489.65,319.63"/>
<polygon fill="#ffffff" style="stroke:#000000;  stroke-width:0.50pt;" points="492.63,335.25 494.40,341.50 492.63,347.75 490.86,341.50"/>
<polygon fill="#ffffff" style="stroke:#000000;  stroke-width:0.50pt;" points="493.23,357.13 495.00,363.37 493.23,369.62 491.46,363.37"/>
<polygon fill="#000000" style="stroke:#000000;  stroke-width:0.50pt;" points="524.59,357.13 526.36,363.37 524.59,369.62 522.82,363.37"/>
<line x1="13.97cm" y1="10.26cm" x2="14.76cm" y2="10.26cm" style="stroke:#000000; stroke-width:0.50pt;"/>
<polygon fill="#ffffff" style="stroke:#000000;  stroke-width:0.50pt;" points="494.44,379.00 496.21,385.25 494.44,391.50 492.66,385.25"/>
<polygon fill="#ffffff" style="stroke:#000000;  stroke-width:0.50pt;" points="494.44,400.87 496.21,407.12 494.44,413.37 492.66,407.12"/>
<polygon fill="#ffffff" style="stroke:#000000;  stroke-width:0.50pt;" points="494.44,422.75 496.21,429.00 494.44,435.25 492.66,429.00"/>
<polygon fill="#000000" style="stroke:#000000;  stroke-width:0.50pt;" points="530.02,422.75 531.79,429.00 530.02,435.25 528.25,429.00"/>
<line x1="14.00cm" y1="12.11cm" x2="14.91cm" y2="12.11cm" style="stroke:#000000; stroke-width:0.50pt;"/>
<polygon fill="#ffffff" style="stroke:#000000;  stroke-width:0.50pt;" points="494.44,444.62 496.21,450.87 494.44,457.12 492.66,450.87"/>
<polygon fill="#ffffff" style="stroke:#000000;  stroke-width:0.50pt;" points="494.44,466.50 496.21,472.75 494.44,479.00 492.66,472.75"/>
<polygon fill="#000000" style="stroke:#000000;  stroke-width:0.50pt;" points="521.58,466.50 523.35,472.75 521.58,479.00 519.81,472.75"/>
<line x1="14.00cm" y1="13.34cm" x2="14.67cm" y2="13.34cm" style="stroke:#000000; stroke-width:0.50pt;"/>
<polygon fill="#ffffff" style="stroke:#000000;  stroke-width:0.50pt;" points="495.04,488.37 496.81,494.62 495.04,500.87 493.27,494.62"/>
<polygon fill="#ffffff" style="stroke:#000000;  stroke-width:0.50pt;" points="495.64,510.25 497.41,516.50 495.64,522.75 493.87,516.50"/>
<polygon fill="#000000" style="stroke:#000000;  stroke-width:0.50pt;" points="534.85,510.25 536.62,516.50 534.85,522.75 533.07,516.50"/>
<line x1="14.04cm" y1="14.58cm" x2="15.04cm" y2="14.58cm" style="stroke:#000000; stroke-width:0.50pt;"/>
<polygon fill="#ffffff" style="stroke:#000000;  stroke-width:0.50pt;" points="495.64,532.12 497.41,538.37 495.64,544.62 493.87,538.37"/>
<polygon fill="#000000" style="stroke:#000000;  stroke-width:0.50pt;" points="539.07,532.12 540.84,538.37 539.07,544.62 537.30,538.37"/>
<line x1="14.04cm" y1="15.19cm" x2="15.16cm" y2="15.19cm" style="stroke:#000000; stroke-width:0.50pt;"/>
<polygon fill="#ffffff" style="stroke:#000000;  stroke-width:0.50pt;" points="496.25,554.00 498.02,560.25 496.25,566.50 494.47,560.25"/>
<polygon fill="#000000" style="stroke:#000000;  stroke-width:0.50pt;" points="538.46,554.00 540.24,560.25 538.46,566.50 536.69,560.25"/>
<line x1="14.06cm" y1="15.81cm" x2="15.15cm" y2="15.81cm" style="stroke:#000000; stroke-width:0.50pt;"/>
<polygon fill="#ffffff" style="stroke:#000000;  stroke-width:0.50pt;" points="496.25,575.87 498.02,582.12 496.25,588.37 494.47,582.12"/>
<polygon fill="#ffffff" style="stroke:#000000;  stroke-width:0.50pt;" points="496.25,597.75 498.02,604.00 496.25,610.25 494.47,604.00"/>
<polygon fill="#ffffff" style="stroke:#000000;  stroke-width:0.50pt;" points="496.25,619.62 498.02,625.87 496.25,632.12 494.47,625.87"/>
<polygon fill="#ffffff" style="stroke:#000000;  stroke-width:0.50pt;" points="496.25,641.50 498.02,647.75 496.25,654.00 494.47,647.75"/>
<polygon fill="#ffffff" style="stroke:#000000;  stroke-width:0.50pt;" points="497.45,663.37 499.22,669.62 497.45,675.87 495.68,669.62"/>
<polygon fill="#ffffff" style="stroke:#000000;  stroke-width:0.50pt;" points="497.45,685.25 499.22,691.50 497.45,697.75 495.68,691.50"/>
<polygon fill="#000000" style="stroke:#000000;  stroke-width:0.50pt;" points="516.15,685.25 517.92,691.50 516.15,697.75 514.38,691.50"/>
<line x1="14.09cm" y1="19.52cm" x2="14.52cm" y2="19.52cm" style="stroke:#000000; stroke-width:0.50pt;"/>
<polygon fill="#ffffff" style="stroke:#000000;  stroke-width:0.50pt;" points="498.05,707.12 499.83,713.37 498.05,719.62 496.28,713.37"/>
<polygon fill="#000000" style="stroke:#000000;  stroke-width:0.50pt;" points="540.27,707.12 542.05,713.37 540.27,719.62 538.50,713.37"/>
<line x1="14.11cm" y1="20.13cm" x2="15.20cm" y2="20.13cm" style="stroke:#000000; stroke-width:0.50pt;"/>
<polygon fill="#ffffff" style="stroke:#000000;  stroke-width:0.50pt;" points="498.66,729.00 500.43,735.25 498.66,741.50 496.89,735.25"/>
<polygon fill="#000000" style="stroke:#000000;  stroke-width:0.50pt;" points="528.81,729.00 530.59,735.25 528.81,741.50 527.04,735.25"/>
<line x1="14.12cm" y1="20.75cm" x2="14.87cm" y2="20.75cm" style="stroke:#000000; stroke-width:0.50pt;"/>
<polygon fill="#ffffff" style="stroke:#000000;  stroke-width:0.50pt;" points="498.66,750.87 500.43,757.12 498.66,763.37 496.89,757.12"/>
<polygon fill="#000000" style="stroke:#000000;  stroke-width:0.50pt;" points="520.97,750.87 522.75,757.12 520.97,763.37 519.20,757.12"/>
<line x1="14.12cm" y1="21.37cm" x2="14.65cm" y2="21.37cm" style="stroke:#000000; stroke-width:0.50pt;"/>
<polygon fill="#ffffff" style="stroke:#000000;  stroke-width:0.50pt;" points="498.66,772.75 500.43,779.00 498.66,785.25 496.89,779.00"/>
<polygon fill="#000000" style="stroke:#000000;  stroke-width:0.50pt;" points="558.97,772.75 560.74,779.00 558.97,785.25 557.20,779.00"/>
<line x1="14.12cm" y1="21.99cm" x2="15.73cm" y2="21.99cm" style="stroke:#000000; stroke-width:0.50pt;"/>
<polygon fill="#ffffff" style="stroke:#000000;  stroke-width:0.50pt;" points="499.26,794.62 501.03,800.87 499.26,807.12 497.49,800.87"/>
<polygon fill="#000000" style="stroke:#000000;  stroke-width:0.50pt;" points="548.12,794.62 549.89,800.87 548.12,807.12 546.34,800.87"/>
<line x1="14.14cm" y1="22.60cm" x2="15.42cm" y2="22.60cm" style="stroke:#000000; stroke-width:0.50pt;"/>
<polygon fill="#ffffff" style="stroke:#000000;  stroke-width:0.50pt;" points="500.47,816.50 502.24,822.75 500.47,829.00 498.70,822.75"/>
<polygon fill="#ffffff" style="stroke:#000000;  stroke-width:0.50pt;" points="501.07,838.37 502.84,844.62 501.07,850.87 499.30,844.62"/>
<polygon fill="#ffffff" style="stroke:#000000;  stroke-width:0.50pt;" points="501.07,860.25 502.84,866.50 501.07,872.75 499.30,866.50"/>
<polygon fill="#ffffff" style="stroke:#000000;  stroke-width:0.50pt;" points="501.67,882.12 503.45,888.37 501.67,894.62 499.90,888.37"/>
<text x="7.01cm" y="3.13cm" style="fill:#000000;font-size:14pt; font-family:sans-serif;">Graphique temporel -- Trié par Naissance</text>
<text x="8.22cm" y="3.74cm" style="fill:#000000;font-size:14pt; font-family:sans-serif;">(Toute la base de données)</text>
<text x="6.17cm" y="4.34cm" style="fill:#000000;font-size:14pt; font-family:sans-serif;">(Individus vivants : Inclus, avec toutes les données)</text>
<text x="9.68cm" y="5.14cm" style="fill:#000000;font-size:8pt; font-family:sans-serif;">1520</text>
<text x="11.38cm" y="5.14cm" style="fill:#000000;font-size:8pt; font-family:sans-serif;">1620</text>
<text x="13.09cm" y="5.14cm" style="fill:#000000;font-size:8pt; font-family:sans-serif;">1720</text>
<text x="14.79cm" y="5.14cm" style="fill:#000000;font-size:8pt; font-family:sans-serif;">1820</text>
<text x="16.49cm" y="5.14cm" style="fill:#000000;font-size:8pt; font-family:sans-serif;">1920</text>
<text x="18.19cm" y="5.14cm" style="fill:#000000;font-size:8pt; font-family:sans-serif;">2020</text>
<text x="3.16cm" y="6.18cm" style="fill:#000000;font-size:10pt; font-family:sans-serif;">GUYOT, Andre</text>
<text x="3.16cm" y="6.80cm" style="fill:#000000;font-size:10pt; font-family:sans-serif;">PERRY, Francois</text>
<text x="3.16cm" y="7.42cm" style="fill:#000000;font-size:10pt; font-family:sans-serif;">POTHIER, Agathe</text>
<text x="3.16cm" y="8.03cm" style="fill:#000000;font-size:10pt; font-family:sans-serif;">MARULIER, Therese</text>
<text x="3.16cm" y="8.65cm" style="fill:#000000;font-size:10pt; font-family:sans-serif;">EURIAT, Céline</text>
<text x="3.16cm" y="9.27cm" style="fill:#000000;font-size:10pt; font-family:sans-serif;">RUAUX, Marie Therese</text>
<text x="3.16cm" y="9.88cm" style="fill:#000000;font-size:10pt; font-family:sans-serif;">DAVILAIRE, Marie Barbe</text>
<text x="3.16cm" y="10.50cm" style="fill:#000000;font-size:10pt; font-family:sans-serif;">VARROY, Jean</text>
<text x="3.16cm" y="11.12cm" style="fill:#000000;font-size:10pt; font-family:sans-serif;">BARTHELEMY, Joseph</text>
<text x="3.16cm" y="11.74cm" style="fill:#000000;font-size:10pt; font-family:sans-serif;">BERNARD, Jean Nicolas</text>
<text x="3.16cm" y="12.35cm" style="fill:#000000;font-size:10pt; font-family:sans-serif;">MARULIER, Jean-Francois</text>
<text x="3.16cm" y="12.97cm" style="fill:#000000;font-size:10pt; font-family:sans-serif;">RUAUX, Marie Anne</text>
<text x="3.16cm" y="13.59cm" style="fill:#000000;font-size:10pt; font-family:sans-serif;">RUAUX, Etienne</text>
<text x="3.16cm" y="14.21cm" style="fill:#000000;font-size:10pt; font-family:sans-serif;">POIROT, Marie-Thérése</text>
<text x="3.16cm" y="14.82cm" style="fill:#000000;font-size:10pt; font-family:sans-serif;">MAMELLE, Francoise</text>
<text x="3.16cm" y="15.44cm" style="fill:#000000;font-size:10pt; font-family:sans-serif;">MARULIER, Jean Joseph</text>
<text x="3.16cm" y="16.06cm" style="fill:#000000;font-size:10pt; font-family:sans-serif;">BERTRAND, Anne</text>
<text x="3.16cm" y="16.68cm" style="fill:#000000;font-size:10pt; font-family:sans-serif;">CHAPELLE, Charles</text>
<text x="3.16cm" y="17.29cm" style="fill:#000000;font-size:10pt; font-family:sans-serif;">JEANMICHEL, Marie Anne</text>
<text x="3.16cm" y="17.91cm" style="fill:#000000;font-size:10pt; font-family:sans-serif;">CHAPELLE, Charles</text>
<text x="3.16cm" y="18.53cm" style="fill:#000000;font-size:10pt; font-family:sans-serif;">JEANMICHEL, Anne Marguerite</text>
<text x="3.16cm" y="19.15cm" style="fill:#000000;font-size:10pt; font-family:sans-serif;">RUAUX, Elisabeth</text>
<text x="3.16cm" y="19.76cm" style="fill:#000000;font-size:10pt; font-family:sans-serif;">VIRTEL, Marie</text>
<text x="3.16cm" y="20.38cm" style="fill:#000000;font-size:10pt; font-family:sans-serif;">POIROT, Marie Anne</text>
<text x="3.16cm" y="21.00cm" style="fill:#000000;font-size:10pt; font-family:sans-serif;">FOMBARON, Jean Nicolas</text>
<text x="3.16cm" y="21.61cm" style="fill:#000000;font-size:10pt; font-family:sans-serif;">HOYET, Marguerite</text>
<text x="3.16cm" y="22.23cm" style="fill:#000000;font-size:10pt; font-family:sans-serif;">DUHOUX, Catherine</text>
<text x="3.16cm" y="22.85cm" style="fill:#000000;font-size:10pt; font-family:sans-serif;">POIROT, Nicolas</text>
<text x="3.16cm" y="23.47cm" style="fill:#000000;font-size:10pt; font-family:sans-serif;">POIROT, François</text>
<text x="3.16cm" y="24.08cm" style="fill:#000000;font-size:10pt; font-family:sans-serif;">BERNARD, Jean Nicolas</text>
<text x="3.16cm" y="24.70cm" style="fill:#000000;font-size:10pt; font-family:sans-serif;">BERNARD, Jean Nicolas</text>
<text x="3.16cm" y="25.32cm" style="fill:#000000;font-size:10pt; font-family:sans-serif;">CUNIN, Anne Marie</text>
</svg>
