<?xml version="1.0" encoding="UTF-8" standalone="no"?>
<!DOCTYPE svg PUBLIC "-//W3C//DTD SVG 1.0//EN" "http://www.w3.org/TR/2001/REC-SVG-20010904/DTD/svg10.dtd">
<svg width="21.59cm" height="27.94cm" xmlns="http://www.w3.org/2000/svg">
<rect width="21.59cm" height="27.94cm" style="fill: none;"/>
<line x1="10.04cm" y1="5.14cm" x2="10.04cm" y2="25.40cm" style="stroke:#000000; stroke-dasharray: 2,4; stroke-width:0.50pt;"/>
<line x1="11.74cm" y1="5.14cm" x2="11.74cm" y2="25.40cm" style="stroke:#000000; stroke-dasharray: 2,4; stroke-width:0.50pt;"/>
<line x1="13.44cm" y1="5.14cm" x2="13.44cm" y2="25.40cm" style="stroke:#000000; stroke-dasharray: 2,4; stroke-width:0.50pt;"/>
<line x1="15.15cm" y1="5.14cm" x2="15.15cm" y2="25.40cm" style="stroke:#000000; stroke-dasharray: 2,4; stroke-width:0.50pt;"/>
<line x1="16.85cm" y1="5.14cm" x2="16.85cm" y2="25.40cm" style="stroke:#000000; stroke-dasharray: 2,4; stroke-width:0.50pt;"/>
<line x1="18.55cm" y1="5.14cm" x2="18.55cm" y2="25.40cm" style="stroke:#000000; stroke-dasharray: 2,4; stroke-width:0.50pt;"/>
<polygon fill="#ffffff" style="stroke:#000000;  stroke-width:0.50pt;" points="501.67,204.00 503.45,210.25 501.67,216.50 499.90,210.25"/>
<polygon fill="#000000" style="stroke:#000000;  stroke-width:0.50pt;" points="547.51,204.00 549.28,210.25 547.51,216.50 545.74,210.25"/>
<line x1="14.21cm" y1="5.93cm" x2="15.40cm" y2="5.93cm" style="stroke:#000000; stroke-width:0.50pt;"/>
<polygon fill="#ffffff" style="stroke:#000000;  stroke-width:0.50pt;" points="501.67,225.88 503.45,232.13 501.67,238.38 499.90,232.13"/>
<polygon fill="#000000" style="stroke:#000000;  stroke-width:0.50pt;" points="543.89,225.88 545.66,232.13 543.89,238.38 542.12,232.13"/>
<line x1="14.21cm" y1="6.55cm" x2="15.30cm" y2="6.55cm" style="stroke:#000000; stroke-width:0.50pt;"/>
<polygon fill="#ffffff" style="stroke:#000000;  stroke-width:0.50pt;" points="501.67,247.75 503.45,254.00 501.67,260.25 499.90,254.00"/>
<polygon fill="#000000" style="stroke:#000000;  stroke-width:0.50pt;" points="533.64,247.75 535.41,254.00 533.64,260.25 531.87,254.00"/>
<line x1="14.21cm" y1="7.17cm" x2="15.01cm" y2="7.17cm" style="stroke:#000000; stroke-width:0.50pt;"/>
<polygon fill="#ffffff" style="stroke:#000000;  stroke-width:0.50pt;" points="502.28,269.63 504.05,275.88 502.28,282.13 500.51,275.88"/>
<polygon fill="#000000" style="stroke:#000000;  stroke-width:0.50pt;" points="549.32,269.63 551.09,275.88 549.32,282.13 547.55,275.88"/>
<line x1="14.23cm" y1="7.79cm" x2="15.45cm" y2="7.79cm" style="stroke:#000000; stroke-width:0.50pt;"/>
<polygon fill="#ffffff" style="stroke:#000000;  stroke-width:0.50pt;" points="502.88,291.50 504.65,297.75 502.88,304.00 501.11,297.75"/>
<polygon fill="#000000" style="stroke:#000000;  stroke-width:0.50pt;" points="545.10,291.50 546.87,297.75 545.10,304.00 543.33,297.75"/>
<line x1="14.24cm" y1="8.40cm" x2="15.33cm" y2="8.40cm" style="stroke:#000000; stroke-width:0.50pt;"/>
<polygon fill="#ffffff" style="stroke:#000000;  stroke-width:0.50pt;" points="503.48,313.38 505.25,319.63 503.48,325.88 501.71,319.63"/>
<polygon fill="#000000" style="stroke:#000000;  stroke-width:0.50pt;" points="521.58,313.38 523.35,319.63 521.58,325.88 519.81,319.63"/>
<line x1="14.26cm" y1="9.02cm" x2="14.67cm" y2="9.02cm" style="stroke:#000000; stroke-width:0.50pt;"/>
<polygon fill="#ffffff" style="stroke:#000000;  stroke-width:0.50pt;" points="504.09,335.25 505.86,341.50 504.09,347.75 502.31,341.50"/>
<polygon fill="#000000" style="stroke:#000000;  stroke-width:0.50pt;" points="522.78,335.25 524.56,341.50 522.78,347.75 521.01,341.50"/>
<line x1="14.28cm" y1="9.64cm" x2="14.70cm" y2="9.64cm" style="stroke:#000000; stroke-width:0.50pt;"/>
<polygon fill="#ffffff" style="stroke:#000000;  stroke-width:0.50pt;" points="504.09,357.13 505.86,363.37 504.09,369.62 502.31,363.37"/>
<polygon fill="#ffffff" style="stroke:#000000;  stroke-width:0.50pt;" points="505.29,379.00 507.06,385.25 505.29,391.50 503.52,385.25"/>
<polygon fill="#ffffff" style="stroke:#000000;  stroke-width:0.50pt;" points="506.50,400.87 508.27,407.12 506.50,413.37 504.73,407.12"/>
<polygon fill="#ffffff" style="stroke:#000000;  stroke-width:0.50pt;" points="506.50,422.75 508.27,429.00 506.50,435.25 504.73,429.00"/>
<polygon fill="#ffffff" style="stroke:#000000;  stroke-width:0.50pt;" points="506.50,444.62 508.27,450.87 506.50,457.12 504.73,450.87"/>
<polygon fill="#ffffff" style="stroke:#000000;  stroke-width:0.50pt;" points="507.10,466.50 508.87,472.75 507.10,479.00 505.33,472.75"/>
<polygon fill="#000000" style="stroke:#000000;  stroke-width:0.50pt;" points="548.72,466.50 550.49,472.75 548.72,479.00 546.95,472.75"/>
<line x1="14.36cm" y1="13.34cm" x2="15.44cm" y2="13.34cm" style="stroke:#000000; stroke-width:0.50pt;"/>
<polygon fill="#ffffff" style="stroke:#000000;  stroke-width:0.50pt;" points="509.51,488.37 511.29,494.62 509.51,500.87 507.74,494.62"/>
<polygon fill="#000000" style="stroke:#000000;  stroke-width:0.50pt;" points="551.13,488.37 552.90,494.62 551.13,500.87 549.36,494.62"/>
<line x1="14.43cm" y1="13.96cm" x2="15.50cm" y2="13.96cm" style="stroke:#000000; stroke-width:0.50pt;"/>
<polygon fill="#ffffff" style="stroke:#000000;  stroke-width:0.50pt;" points="510.72,510.25 512.49,516.50 510.72,522.75 508.95,516.50"/>
<polygon fill="#ffffff" style="stroke:#000000;  stroke-width:0.50pt;" points="511.32,532.12 513.10,538.37 511.32,544.62 509.55,538.37"/>
<polygon fill="#000000" style="stroke:#000000;  stroke-width:0.50pt;" points="546.91,532.12 548.68,538.37 546.91,544.62 545.14,538.37"/>
<line x1="14.48cm" y1="15.19cm" x2="15.39cm" y2="15.19cm" style="stroke:#000000; stroke-width:0.50pt;"/>
<polygon fill="#ffffff" style="stroke:#000000;  stroke-width:0.50pt;" points="511.32,554.00 513.10,560.25 511.32,566.50 509.55,560.25"/>
<polygon fill="#ffffff" style="stroke:#000000;  stroke-width:0.50pt;" points="511.32,575.87 513.10,582.12 511.32,588.37 509.55,582.12"/>
<polygon fill="#000000" style="stroke:#000000;  stroke-width:0.50pt;" points="557.16,575.87 558.93,582.12 557.16,588.37 555.39,582.12"/>
<line x1="14.48cm" y1="16.43cm" x2="15.67cm" y2="16.43cm" style="stroke:#000000; stroke-width:0.50pt;"/>
<polygon fill="#ffffff" style="stroke:#000000;  stroke-width:0.50pt;" points="512.53,597.75 514.30,604.00 512.53,610.25 510.76,604.00"/>
<polygon fill="#000000" style="stroke:#000000;  stroke-width:0.50pt;" points="553.54,597.75 555.31,604.00 553.54,610.25 551.77,604.00"/>
<line x1="14.51cm" y1="17.05cm" x2="15.57cm" y2="17.05cm" style="stroke:#000000; stroke-width:0.50pt;"/>
<polygon fill="#ffffff" style="stroke:#000000;  stroke-width:0.50pt;" points="512.53,619.62 514.30,625.87 512.53,632.12 510.76,625.87"/>
<polygon fill="#ffffff" style="stroke:#000000;  stroke-width:0.50pt;" points="513.13,641.50 514.90,647.75 513.13,654.00 511.36,647.75"/>
<polygon fill="#000000" style="stroke:#000000;  stroke-width:0.50pt;" points="554.75,641.50 556.52,647.75 554.75,654.00 552.98,647.75"/>
<line x1="14.53cm" y1="18.28cm" x2="15.61cm" y2="18.28cm" style="stroke:#000000; stroke-width:0.50pt;"/>
<polygon fill="#ffffff" style="stroke:#000000;  stroke-width:0.50pt;" points="513.74,663.37 515.51,669.62 513.74,675.87 511.96,669.62"/>
<polygon fill="#000000" style="stroke:#000000;  stroke-width:0.50pt;" points="542.08,663.37 543.86,669.62 542.08,675.87 540.31,669.62"/>
<line x1="14.55cm" y1="18.90cm" x2="15.25cm" y2="18.90cm" style="stroke:#000000; stroke-width:0.50pt;"/>
<polygon fill="#ffffff" style="stroke:#000000;  stroke-width:0.50pt;" points="514.34,685.25 516.11,691.50 514.34,697.75 512.57,691.50"/>
<polygon fill="#ffffff" style="stroke:#000000;  stroke-width:0.50pt;" points="514.34,707.12 516.11,713.37 514.34,719.62 512.57,713.37"/>
<polygon fill="#000000" style="stroke:#000000;  stroke-width:0.50pt;" points="567.42,707.12 569.19,713.37 567.42,719.62 565.64,713.37"/>
<line x1="14.57cm" y1="20.13cm" x2="15.96cm" y2="20.13cm" style="stroke:#000000; stroke-width:0.50pt;"/>
<polygon fill="#ffffff" style="stroke:#000000;  stroke-width:0.50pt;" points="514.34,729.00 516.11,735.25 514.34,741.50 512.57,735.25"/>
<polygon fill="#000000" style="stroke:#000000;  stroke-width:0.50pt;" points="553.54,729.00 555.31,735.25 553.54,741.50 551.77,735.25"/>
<line x1="14.57cm" y1="20.75cm" x2="15.57cm" y2="20.75cm" style="stroke:#000000; stroke-width:0.50pt;"/>
<polygon fill="#ffffff" style="stroke:#000000;  stroke-width:0.50pt;" points="514.94,750.87 516.71,757.12 514.94,763.37 513.17,757.12"/>
<polygon fill="#000000" style="stroke:#000000;  stroke-width:0.50pt;" points="563.19,750.87 564.96,757.12 563.19,763.37 561.42,757.12"/>
<line x1="14.58cm" y1="21.37cm" x2="15.84cm" y2="21.37cm" style="stroke:#000000; stroke-width:0.50pt;"/>
<polygon fill="#ffffff" style="stroke:#000000;  stroke-width:0.50pt;" points="515.55,772.75 517.32,779.00 515.55,785.25 513.77,779.00"/>
<polygon fill="#000000" style="stroke:#000000;  stroke-width:0.50pt;" points="559.57,772.75 561.35,779.00 559.57,785.25 557.80,779.00"/>
<line x1="14.60cm" y1="21.99cm" x2="15.74cm" y2="21.99cm" style="stroke:#000000; stroke-width:0.50pt;"/>
<polygon fill="#ffffff" style="stroke:#000000;  stroke-width:0.50pt;" points="516.15,794.62 517.92,800.87 516.15,807.12 514.38,800.87"/>
<polygon fill="#000000" style="stroke:#000000;  stroke-width:0.50pt;" points="552.34,794.62 554.11,800.87 552.34,807.12 550.57,800.87"/>
<line x1="14.62cm" y1="22.60cm" x2="15.54cm" y2="22.60cm" style="stroke:#000000; stroke-width:0.50pt;"/>
<polygon fill="#ffffff" style="stroke:#000000;  stroke-width:0.50pt;" points="516.75,816.50 518.52,822.75 516.75,829.00 514.98,822.75"/>
<polygon fill="#ffffff" style="stroke:#000000;  stroke-width:0.50pt;" points="516.75,838.37 518.52,844.62 516.75,850.87 514.98,844.62"/>
<polygon fill="#000000" style="stroke:#000000;  stroke-width:0.50pt;" points="561.99,838.37 563.76,844.62 561.99,850.87 560.22,844.62"/>
<line x1="14.63cm" y1="23.84cm" x2="15.81cm" y2="23.84cm" style="stroke:#000000; stroke-width:0.50pt;"/>
<polygon fill="#ffffff" style="stroke:#000000;  stroke-width:0.50pt;" points="517.36,860.25 519.13,866.50 517.36,872.75 515.58,866.50"/>
<polygon fill="#000000" style="stroke:#000000;  stroke-width:0.50pt;" points="501.67,860.25 503.45,866.50 501.67,872.75 499.90,866.50"/>
<line x1="14.65cm" y1="24.45cm" x2="14.11cm" y2="24.45cm" style="stroke:#000000; stroke-width:0.50pt;"/>
<polygon fill="#ffffff" style="stroke:#000000;  stroke-width:0.50pt;" points="518.56,882.12 520.33,888.37 518.56,894.62 516.79,888.37"/>
<polygon fill="#000000" style="stroke:#000000;  stroke-width:0.50pt;" points="556.56,882.12 558.33,888.37 556.56,894.62 554.79,888.37"/>
<line x1="14.68cm" y1="25.07cm" x2="15.66cm" y2="25.07cm" style="stroke:#000000; stroke-width:0.50pt;"/>
<text x="7.01cm" y="3.13cm" style="fill:#000000;font-size:14pt; font-family:sans-serif;">Graphique temporel -- Trié par Naissance</text>
<text x="8.22cm" y="3.74cm" style="fill:#000000;font-size:14pt; font-family:sans-serif;">(Toute la base de données)</text>
<text x="6.17cm" y="4.34cm" style="fill:#000000;font-size:14pt; font-family:sans-serif;">(Individus vivants : Inclus, avec toutes les données)</text>
<text x="9.68cm" y="5.14cm" style="fill:#000000;font-size:8pt; font-family:sans-serif;">1520</text>
<text x="11.38cm" y="5.14cm" style="fill:#000000;font-size:8pt; font-family:sans-serif;">1620</text>
<text x="13.09cm" y="5.14cm" style="fill:#000000;font-size:8pt; font-family:sans-serif;">1720</text>
<text x="14.79cm" y="5.14cm" style="fill:#000000;font-size:8pt; font-family:sans-serif;">1820</text>
<text x="16.49cm" y="5.14cm" style="fill:#000000;font-size:8pt; font-family:sans-serif;">1920</text>
<text x="18.19cm" y="5.14cm" style="fill:#000000;font-size:8pt; font-family:sans-serif;">2020</text>
<text x="3.16cm" y="6.18cm" style="fill:#000000;font-size:10pt; font-family:sans-serif;">CUNIN, Dominique</text>
<text x="3.16cm" y="6.80cm" style="fill:#000000;font-size:10pt; font-family:sans-serif;">POTHIER, Elisabeth</text>
<text x="3.16cm" y="7.42cm" style="fill:#000000;font-size:10pt; font-family:sans-serif;">VANCON, Marie Anne</text>
<text x="3.16cm" y="8.03cm" style="fill:#000000;font-size:10pt; font-family:sans-serif;">MARULIER, Joseph</text>
<text x="3.16cm" y="8.65cm" style="fill:#000000;font-size:10pt; font-family:sans-serif;">TACHET, Nicolas</text>
<text x="3.16cm" y="9.27cm" style="fill:#000000;font-size:10pt; font-family:sans-serif;">POIROT, Nicolas</text>
<text x="3.16cm" y="9.88cm" style="fill:#000000;font-size:10pt; font-family:sans-serif;">THOUVENOT, Marie Anne</text>
<text x="3.16cm" y="10.50cm" style="fill:#000000;font-size:10pt; font-family:sans-serif;">POTHIER, Etienne</text>
<text x="3.16cm" y="11.12cm" style="fill:#000000;font-size:10pt; font-family:sans-serif;">JEANDIDIER, Anne</text>
<text x="3.16cm" y="11.74cm" style="fill:#000000;font-size:10pt; font-family:sans-serif;">BARTHELEMY, Anne</text>
<text x="3.16cm" y="12.35cm" style="fill:#000000;font-size:10pt; font-family:sans-serif;">JEANDEL, Jean Joseph</text>
<text x="3.16cm" y="12.97cm" style="fill:#000000;font-size:10pt; font-family:sans-serif;">JEANMICHEL, Anne Marguerite</text>
<text x="3.16cm" y="13.59cm" style="fill:#000000;font-size:10pt; font-family:sans-serif;">PERRY, Céline</text>
<text x="3.16cm" y="14.21cm" style="fill:#000000;font-size:10pt; font-family:sans-serif;">COLLETTE, Céline</text>
<text x="3.16cm" y="14.82cm" style="fill:#000000;font-size:10pt; font-family:sans-serif;">JEANDEL, Marie</text>
<text x="3.16cm" y="15.44cm" style="fill:#000000;font-size:10pt; font-family:sans-serif;">CHAPELLE, Etienne</text>
<text x="3.16cm" y="16.06cm" style="fill:#000000;font-size:10pt; font-family:sans-serif;">PARISOT, Luirin</text>
<text x="3.16cm" y="16.68cm" style="fill:#000000;font-size:10pt; font-family:sans-serif;">RUAUX, Jean-François</text>
<text x="3.16cm" y="17.29cm" style="fill:#000000;font-size:10pt; font-family:sans-serif;">MARULIER, Jean Francois</text>
<text x="3.16cm" y="17.91cm" style="fill:#000000;font-size:10pt; font-family:sans-serif;">CHAPELLE, Jean Etienne</text>
<text x="3.16cm" y="18.53cm" style="fill:#000000;font-size:10pt; font-family:sans-serif;">FOMBARON, Jean Francois</text>
<text x="3.16cm" y="19.15cm" style="fill:#000000;font-size:10pt; font-family:sans-serif;">MOUROT, Nicolas</text>
<text x="3.16cm" y="19.76cm" style="fill:#000000;font-size:10pt; font-family:sans-serif;">ANTOINE, Francois</text>
<text x="3.16cm" y="20.38cm" style="fill:#000000;font-size:10pt; font-family:sans-serif;">RUAUX, Joseph</text>
<text x="3.16cm" y="21.00cm" style="fill:#000000;font-size:10pt; font-family:sans-serif;">GUYOT, Agnes</text>
<text x="3.16cm" y="21.61cm" style="fill:#000000;font-size:10pt; font-family:sans-serif;">BALAUD, Jean</text>
<text x="3.16cm" y="22.23cm" style="fill:#000000;font-size:10pt; font-family:sans-serif;">TACHET, Marguerite</text>
<text x="3.16cm" y="22.85cm" style="fill:#000000;font-size:10pt; font-family:sans-serif;">MARULIER, Marie Agathe</text>
<text x="3.16cm" y="23.47cm" style="fill:#000000;font-size:10pt; font-family:sans-serif;">MARCHAND, Veronique</text>
<text x="3.16cm" y="24.08cm" style="fill:#000000;font-size:10pt; font-family:sans-serif;">VARROY, Jean Philippe</text>
<text x="3.16cm" y="24.70cm" style="fill:#000000;font-size:10pt; font-family:sans-serif;">MARULIER, Marie Anne</text>
<text x="3.16cm" y="25.32cm" style="fill:#000000;font-size:10pt; font-family:sans-serif;">BERNARD, Joseph</text>
</svg>
