<?xml version="1.0" encoding="UTF-8" standalone="no"?>
<!DOCTYPE svg PUBLIC "-//W3C//DTD SVG 1.0//EN" "http://www.w3.org/TR/2001/REC-SVG-20010904/DTD/svg10.dtd">
<svg width="21.59cm" height="27.94cm" xmlns="http://www.w3.org/2000/svg">
<rect width="21.59cm" height="27.94cm" style="fill: none;"/>
<line x1="10.04cm" y1="5.14cm" x2="10.04cm" y2="25.40cm" style="stroke:#000000; stroke-dasharray: 2,4; stroke-width:0.50pt;"/>
<line x1="11.74cm" y1="5.14cm" x2="11.74cm" y2="25.40cm" style="stroke:#000000; stroke-dasharray: 2,4; stroke-width:0.50pt;"/>
<line x1="13.44cm" y1="5.14cm" x2="13.44cm" y2="25.40cm" style="stroke:#000000; stroke-dasharray: 2,4; stroke-width:0.50pt;"/>
<line x1="15.15cm" y1="5.14cm" x2="15.15cm" y2="25.40cm" style="stroke:#000000; stroke-dasharray: 2,4; stroke-width:0.50pt;"/>
<line x1="16.85cm" y1="5.14cm" x2="16.85cm" y2="25.40cm" style="stroke:#000000; stroke-dasharray: 2,4; stroke-width:0.50pt;"/>
<line x1="18.55cm" y1="5.14cm" x2="18.55cm" y2="25.40cm" style="stroke:#000000; stroke-dasharray: 2,4; stroke-width:0.50pt;"/>
<polygon fill="#ffffff" style="stroke:#000000;  stroke-width:0.50pt;" points="647.63,204.00 649.40,210.25 647.63,216.50 645.86,210.25"/>
<polygon fill="#ffffff" style="stroke:#000000;  stroke-width:0.50pt;" points="647.63,225.88 649.40,232.13 647.63,238.38 645.86,232.13"/>
<polygon fill="#ffffff" style="stroke:#000000;  stroke-width:0.50pt;" points="647.63,247.75 649.40,254.00 647.63,260.25 645.86,254.00"/>
<polygon fill="#ffffff" style="stroke:#000000;  stroke-width:0.50pt;" points="648.84,269.63 650.61,275.88 648.84,282.13 647.07,275.88"/>
<polygon fill="#ffffff" style="stroke:#000000;  stroke-width:0.50pt;" points="649.44,291.50 651.21,297.75 649.44,304.00 647.67,297.75"/>
<polygon fill="#ffffff" style="stroke:#000000;  stroke-width:0.50pt;" points="652.46,313.38 654.23,319.63 652.46,325.88 650.69,319.63"/>
<polygon fill="#ffffff" style="stroke:#000000;  stroke-width:0.50pt;" points="653.06,335.25 654.83,341.50 653.06,347.75 651.29,341.50"/>
<polygon fill="#ffffff" style="stroke:#000000;  stroke-width:0.50pt;" points="653.06,357.13 654.83,363.37 653.06,369.62 651.29,363.37"/>
<polygon fill="#ffffff" style="stroke:#000000;  stroke-width:0.50pt;" points="654.87,379.00 656.64,385.25 654.87,391.50 653.10,385.25"/>
<polygon fill="#ffffff" style="stroke:#000000;  stroke-width:0.50pt;" points="654.87,400.87 656.64,407.12 654.87,413.37 653.10,407.12"/>
<polygon fill="#ffffff" style="stroke:#000000;  stroke-width:0.50pt;" points="655.47,422.75 657.24,429.00 655.47,435.25 653.70,429.00"/>
<polygon fill="#ffffff" style="stroke:#000000;  stroke-width:0.50pt;" points="656.08,444.62 657.85,450.87 656.08,457.12 654.30,450.87"/>
<polygon fill="#ffffff" style="stroke:#000000;  stroke-width:0.50pt;" points="657.28,466.50 659.05,472.75 657.28,479.00 655.51,472.75"/>
<text x="7.01cm" y="3.13cm" style="fill:#000000;font-size:14pt; font-family:sans-serif;">Graphique temporel -- Trié par Naissance</text>
<text x="8.22cm" y="3.74cm" style="fill:#000000;font-size:14pt; font-family:sans-serif;">(Toute la base de données)</text>
<text x="6.17cm" y="4.34cm" style="fill:#000000;font-size:14pt; font-family:sans-serif;">(Individus vivants : Inclus, avec toutes les données)</text>
<text x="9.68cm" y="5.14cm" style="fill:#000000;font-size:8pt; font-family:sans-serif;">1520</text>
<text x="11.38cm" y="5.14cm" style="fill:#000000;font-size:8pt; font-family:sans-serif;">1620</text>
<text x="13.09cm" y="5.14cm" style="fill:#000000;font-size:8pt; font-family:sans-serif;">1720</text>
<text x="14.79cm" y="5.14cm" style="fill:#000000;font-size:8pt; font-family:sans-serif;">1820</text>
<text x="16.49cm" y="5.14cm" style="fill:#000000;font-size:8pt; font-family:sans-serif;">1920</text>
<text x="18.19cm" y="5.14cm" style="fill:#000000;font-size:8pt; font-family:sans-serif;">2020</text>
<text x="3.16cm" y="6.18cm" style="fill:#000000;font-size:10pt; font-family:sans-serif;">, Clémence</text>
<text x="3.16cm" y="6.80cm" style="fill:#000000;font-size:10pt; font-family:sans-serif;">NOURY, Jeanne</text>
<text x="3.16cm" y="7.42cm" style="fill:#000000;font-size:10pt; font-family:sans-serif;">RAVON, Lilou</text>
<text x="3.16cm" y="8.03cm" style="fill:#000000;font-size:10pt; font-family:sans-serif;">ROLLOT, Firmin</text>
<text x="3.16cm" y="8.65cm" style="fill:#000000;font-size:10pt; font-family:sans-serif;">RAVON, Lilian</text>
<text x="3.16cm" y="9.27cm" style="fill:#000000;font-size:10pt; font-family:sans-serif;">LIPP, Léon</text>
<text x="3.16cm" y="9.88cm" style="fill:#000000;font-size:10pt; font-family:sans-serif;">LECHAT, Louis</text>
<text x="3.16cm" y="10.50cm" style="fill:#000000;font-size:10pt; font-family:sans-serif;">RUAUX, Emile</text>
<text x="3.16cm" y="11.12cm" style="fill:#000000;font-size:10pt; font-family:sans-serif;">, Mahili</text>
<text x="3.16cm" y="11.74cm" style="fill:#000000;font-size:10pt; font-family:sans-serif;">LIPP, Marcel</text>
<text x="3.16cm" y="12.35cm" style="fill:#000000;font-size:10pt; font-family:sans-serif;">RUAUX, Henri</text>
<text x="3.16cm" y="12.97cm" style="fill:#000000;font-size:10pt; font-family:sans-serif;">LECHAT, Augustin</text>
<text x="3.16cm" y="13.59cm" style="fill:#000000;font-size:10pt; font-family:sans-serif;">BOSLE, Orso</text>
</svg>
