<?xml version="1.0" encoding="UTF-8" standalone="no"?>
<!DOCTYPE svg PUBLIC "-//W3C//DTD SVG 1.0//EN" "http://www.w3.org/TR/2001/REC-SVG-20010904/DTD/svg10.dtd">
<svg width="21.59cm" height="27.94cm" xmlns="http://www.w3.org/2000/svg">
<rect width="21.59cm" height="27.94cm" style="fill: none;"/>
<line x1="10.04cm" y1="5.14cm" x2="10.04cm" y2="25.40cm" style="stroke:#000000; stroke-dasharray: 2,4; stroke-width:0.50pt;"/>
<line x1="11.74cm" y1="5.14cm" x2="11.74cm" y2="25.40cm" style="stroke:#000000; stroke-dasharray: 2,4; stroke-width:0.50pt;"/>
<line x1="13.44cm" y1="5.14cm" x2="13.44cm" y2="25.40cm" style="stroke:#000000; stroke-dasharray: 2,4; stroke-width:0.50pt;"/>
<line x1="15.15cm" y1="5.14cm" x2="15.15cm" y2="25.40cm" style="stroke:#000000; stroke-dasharray: 2,4; stroke-width:0.50pt;"/>
<line x1="16.85cm" y1="5.14cm" x2="16.85cm" y2="25.40cm" style="stroke:#000000; stroke-dasharray: 2,4; stroke-width:0.50pt;"/>
<line x1="18.55cm" y1="5.14cm" x2="18.55cm" y2="25.40cm" style="stroke:#000000; stroke-dasharray: 2,4; stroke-width:0.50pt;"/>
<polygon fill="#ffffff" style="stroke:#000000;  stroke-width:0.50pt;" points="519.16,204.00 520.94,210.25 519.16,216.50 517.39,210.25"/>
<polygon fill="#000000" style="stroke:#000000;  stroke-width:0.50pt;" points="553.54,204.00 555.31,210.25 553.54,216.50 551.77,210.25"/>
<line x1="14.70cm" y1="5.93cm" x2="15.57cm" y2="5.93cm" style="stroke:#000000; stroke-width:0.50pt;"/>
<polygon fill="#ffffff" style="stroke:#000000;  stroke-width:0.50pt;" points="519.77,225.88 521.54,232.13 519.77,238.38 518.00,232.13"/>
<polygon fill="#000000" style="stroke:#000000;  stroke-width:0.50pt;" points="565.61,225.88 567.38,232.13 565.61,238.38 563.83,232.13"/>
<line x1="14.72cm" y1="6.55cm" x2="15.91cm" y2="6.55cm" style="stroke:#000000; stroke-width:0.50pt;"/>
<polygon fill="#ffffff" style="stroke:#000000;  stroke-width:0.50pt;" points="519.77,247.75 521.54,254.00 519.77,260.25 518.00,254.00"/>
<polygon fill="#ffffff" style="stroke:#000000;  stroke-width:0.50pt;" points="519.77,269.63 521.54,275.88 519.77,282.13 518.00,275.88"/>
<polygon fill="#ffffff" style="stroke:#000000;  stroke-width:0.50pt;" points="519.77,291.50 521.54,297.75 519.77,304.00 518.00,297.75"/>
<polygon fill="#ffffff" style="stroke:#000000;  stroke-width:0.50pt;" points="520.37,313.38 522.14,319.63 520.37,325.88 518.60,319.63"/>
<polygon fill="#000000" style="stroke:#000000;  stroke-width:0.50pt;" points="558.37,313.38 560.14,319.63 558.37,325.88 556.60,319.63"/>
<line x1="14.74cm" y1="9.02cm" x2="15.71cm" y2="9.02cm" style="stroke:#000000; stroke-width:0.50pt;"/>
<polygon fill="#ffffff" style="stroke:#000000;  stroke-width:0.50pt;" points="520.37,335.25 522.14,341.50 520.37,347.75 518.60,341.50"/>
<polygon fill="#ffffff" style="stroke:#000000;  stroke-width:0.50pt;" points="520.37,357.13 522.14,363.37 520.37,369.62 518.60,363.37"/>
<polygon fill="#ffffff" style="stroke:#000000;  stroke-width:0.50pt;" points="520.97,379.00 522.75,385.25 520.97,391.50 519.20,385.25"/>
<polygon fill="#000000" style="stroke:#000000;  stroke-width:0.50pt;" points="553.54,379.00 555.31,385.25 553.54,391.50 551.77,385.25"/>
<line x1="14.75cm" y1="10.87cm" x2="15.57cm" y2="10.87cm" style="stroke:#000000; stroke-width:0.50pt;"/>
<polygon fill="#ffffff" style="stroke:#000000;  stroke-width:0.50pt;" points="520.97,400.87 522.75,407.12 520.97,413.37 519.20,407.12"/>
<polygon fill="#000000" style="stroke:#000000;  stroke-width:0.50pt;" points="565.00,400.87 566.77,407.12 565.00,413.37 563.23,407.12"/>
<line x1="14.75cm" y1="11.49cm" x2="15.90cm" y2="11.49cm" style="stroke:#000000; stroke-width:0.50pt;"/>
<polygon fill="#ffffff" style="stroke:#000000;  stroke-width:0.50pt;" points="520.97,422.75 522.75,429.00 520.97,435.25 519.20,429.00"/>
<polygon fill="#000000" style="stroke:#000000;  stroke-width:0.50pt;" points="569.83,422.75 571.60,429.00 569.83,435.25 568.06,429.00"/>
<line x1="14.75cm" y1="12.11cm" x2="16.03cm" y2="12.11cm" style="stroke:#000000; stroke-width:0.50pt;"/>
<polygon fill="#ffffff" style="stroke:#000000;  stroke-width:0.50pt;" points="521.58,444.62 523.35,450.87 521.58,457.12 519.81,450.87"/>
<polygon fill="#ffffff" style="stroke:#000000;  stroke-width:0.50pt;" points="521.58,466.50 523.35,472.75 521.58,479.00 519.81,472.75"/>
<polygon fill="#000000" style="stroke:#000000;  stroke-width:0.50pt;" points="552.34,466.50 554.11,472.75 552.34,479.00 550.57,472.75"/>
<line x1="14.77cm" y1="13.34cm" x2="15.54cm" y2="13.34cm" style="stroke:#000000; stroke-width:0.50pt;"/>
<polygon fill="#ffffff" style="stroke:#000000;  stroke-width:0.50pt;" points="521.58,488.37 523.35,494.62 521.58,500.87 519.81,494.62"/>
<polygon fill="#000000" style="stroke:#000000;  stroke-width:0.50pt;" points="560.18,488.37 561.95,494.62 560.18,500.87 558.41,494.62"/>
<line x1="14.77cm" y1="13.96cm" x2="15.76cm" y2="13.96cm" style="stroke:#000000; stroke-width:0.50pt;"/>
<polygon fill="#ffffff" style="stroke:#000000;  stroke-width:0.50pt;" points="522.18,510.25 523.95,516.50 522.18,522.75 520.41,516.50"/>
<polygon fill="#000000" style="stroke:#000000;  stroke-width:0.50pt;" points="565.61,510.25 567.38,516.50 565.61,522.75 563.83,516.50"/>
<line x1="14.79cm" y1="14.58cm" x2="15.91cm" y2="14.58cm" style="stroke:#000000; stroke-width:0.50pt;"/>
<polygon fill="#ffffff" style="stroke:#000000;  stroke-width:0.50pt;" points="522.18,532.12 523.95,538.37 522.18,544.62 520.41,538.37"/>
<polygon fill="#000000" style="stroke:#000000;  stroke-width:0.50pt;" points="566.81,532.12 568.58,538.37 566.81,544.62 565.04,538.37"/>
<line x1="14.79cm" y1="15.19cm" x2="15.95cm" y2="15.19cm" style="stroke:#000000; stroke-width:0.50pt;"/>
<polygon fill="#ffffff" style="stroke:#000000;  stroke-width:0.50pt;" points="522.18,554.00 523.95,560.25 522.18,566.50 520.41,560.25"/>
<polygon fill="#000000" style="stroke:#000000;  stroke-width:0.50pt;" points="572.24,554.00 574.01,560.25 572.24,566.50 570.47,560.25"/>
<line x1="14.79cm" y1="15.81cm" x2="16.10cm" y2="15.81cm" style="stroke:#000000; stroke-width:0.50pt;"/>
<polygon fill="#ffffff" style="stroke:#000000;  stroke-width:0.50pt;" points="522.78,575.87 524.56,582.12 522.78,588.37 521.01,582.12"/>
<polygon fill="#000000" style="stroke:#000000;  stroke-width:0.50pt;" points="557.77,575.87 559.54,582.12 557.77,588.37 555.99,582.12"/>
<line x1="14.80cm" y1="16.43cm" x2="15.69cm" y2="16.43cm" style="stroke:#000000; stroke-width:0.50pt;"/>
<polygon fill="#ffffff" style="stroke:#000000;  stroke-width:0.50pt;" points="523.39,597.75 525.16,604.00 523.39,610.25 521.61,604.00"/>
<polygon fill="#000000" style="stroke:#000000;  stroke-width:0.50pt;" points="571.64,597.75 573.41,604.00 571.64,610.25 569.87,604.00"/>
<line x1="14.82cm" y1="17.05cm" x2="16.08cm" y2="17.05cm" style="stroke:#000000; stroke-width:0.50pt;"/>
<polygon fill="#ffffff" style="stroke:#000000;  stroke-width:0.50pt;" points="523.99,619.62 525.76,625.87 523.99,632.12 522.22,625.87"/>
<polygon fill="#ffffff" style="stroke:#000000;  stroke-width:0.50pt;" points="524.59,641.50 526.36,647.75 524.59,654.00 522.82,647.75"/>
<polygon fill="#ffffff" style="stroke:#000000;  stroke-width:0.50pt;" points="524.59,663.37 526.36,669.62 524.59,675.87 522.82,669.62"/>
<polygon fill="#ffffff" style="stroke:#000000;  stroke-width:0.50pt;" points="525.80,685.25 527.57,691.50 525.80,697.75 524.03,691.50"/>
<polygon fill="#000000" style="stroke:#000000;  stroke-width:0.50pt;" points="572.24,685.25 574.01,691.50 572.24,697.75 570.47,691.50"/>
<line x1="14.89cm" y1="19.52cm" x2="16.10cm" y2="19.52cm" style="stroke:#000000; stroke-width:0.50pt;"/>
<polygon fill="#ffffff" style="stroke:#000000;  stroke-width:0.50pt;" points="527.61,707.12 529.38,713.37 527.61,719.62 525.84,713.37"/>
<polygon fill="#ffffff" style="stroke:#000000;  stroke-width:0.50pt;" points="528.21,729.00 529.98,735.25 528.21,741.50 526.44,735.25"/>
<polygon fill="#ffffff" style="stroke:#000000;  stroke-width:0.50pt;" points="528.81,750.87 530.59,757.12 528.81,763.37 527.04,757.12"/>
<polygon fill="#ffffff" style="stroke:#000000;  stroke-width:0.50pt;" points="528.81,772.75 530.59,779.00 528.81,785.25 527.04,779.00"/>
<polygon fill="#ffffff" style="stroke:#000000;  stroke-width:0.50pt;" points="528.81,794.62 530.59,800.87 528.81,807.12 527.04,800.87"/>
<polygon fill="#ffffff" style="stroke:#000000;  stroke-width:0.50pt;" points="529.42,816.50 531.19,822.75 529.42,829.00 527.65,822.75"/>
<polygon fill="#000000" style="stroke:#000000;  stroke-width:0.50pt;" points="572.84,816.50 574.62,822.75 572.84,829.00 571.07,822.75"/>
<line x1="14.99cm" y1="23.22cm" x2="16.12cm" y2="23.22cm" style="stroke:#000000; stroke-width:0.50pt;"/>
<polygon fill="#ffffff" style="stroke:#000000;  stroke-width:0.50pt;" points="530.62,838.37 532.40,844.62 530.62,850.87 528.85,844.62"/>
<polygon fill="#ffffff" style="stroke:#000000;  stroke-width:0.50pt;" points="531.23,860.25 533.00,866.50 531.23,872.75 529.46,866.50"/>
<polygon fill="#ffffff" style="stroke:#000000;  stroke-width:0.50pt;" points="531.23,882.12 533.00,888.37 531.23,894.62 529.46,888.37"/>
<text x="7.01cm" y="3.13cm" style="fill:#000000;font-size:14pt; font-family:sans-serif;">Graphique temporel -- Trié par Naissance</text>
<text x="8.22cm" y="3.74cm" style="fill:#000000;font-size:14pt; font-family:sans-serif;">(Toute la base de données)</text>
<text x="6.17cm" y="4.34cm" style="fill:#000000;font-size:14pt; font-family:sans-serif;">(Individus vivants : Inclus, avec toutes les données)</text>
<text x="9.68cm" y="5.14cm" style="fill:#000000;font-size:8pt; font-family:sans-serif;">1520</text>
<text x="11.38cm" y="5.14cm" style="fill:#000000;font-size:8pt; font-family:sans-serif;">1620</text>
<text x="13.09cm" y="5.14cm" style="fill:#000000;font-size:8pt; font-family:sans-serif;">1720</text>
<text x="14.79cm" y="5.14cm" style="fill:#000000;font-size:8pt; font-family:sans-serif;">1820</text>
<text x="16.49cm" y="5.14cm" style="fill:#000000;font-size:8pt; font-family:sans-serif;">1920</text>
<text x="18.19cm" y="5.14cm" style="fill:#000000;font-size:8pt; font-family:sans-serif;">2020</text>
<text x="3.16cm" y="6.18cm" style="fill:#000000;font-size:10pt; font-family:sans-serif;">CHAPELLE, Marie Anne</text>
<text x="3.16cm" y="6.80cm" style="fill:#000000;font-size:10pt; font-family:sans-serif;">CHAPELLE, Marie Anne</text>
<text x="3.16cm" y="7.42cm" style="fill:#000000;font-size:10pt; font-family:sans-serif;">, Marie Therese</text>
<text x="3.16cm" y="8.03cm" style="fill:#000000;font-size:10pt; font-family:sans-serif;">MALGLAIVE, Marie Therese</text>
<text x="3.16cm" y="8.65cm" style="fill:#000000;font-size:10pt; font-family:sans-serif;">POIROT, Jean Joseph</text>
<text x="3.16cm" y="9.27cm" style="fill:#000000;font-size:10pt; font-family:sans-serif;">BERNARD, Francois</text>
<text x="3.16cm" y="9.88cm" style="fill:#000000;font-size:10pt; font-family:sans-serif;">POIROT</text>
<text x="3.16cm" y="10.50cm" style="fill:#000000;font-size:10pt; font-family:sans-serif;">POIROT, Joseph Maurice</text>
<text x="3.16cm" y="11.12cm" style="fill:#000000;font-size:10pt; font-family:sans-serif;">BERNARD, Francois</text>
<text x="3.16cm" y="11.74cm" style="fill:#000000;font-size:10pt; font-family:sans-serif;">JEANDEL, Marie</text>
<text x="3.16cm" y="12.35cm" style="fill:#000000;font-size:10pt; font-family:sans-serif;">CUNIN, Francois</text>
<text x="3.16cm" y="12.97cm" style="fill:#000000;font-size:10pt; font-family:sans-serif;">CHAPELLE, Catherine</text>
<text x="3.16cm" y="13.59cm" style="fill:#000000;font-size:10pt; font-family:sans-serif;">GRANDMAIRE, Catherine</text>
<text x="3.16cm" y="14.21cm" style="fill:#000000;font-size:10pt; font-family:sans-serif;">JOLY, Marie Anne</text>
<text x="3.16cm" y="14.82cm" style="fill:#000000;font-size:10pt; font-family:sans-serif;">CHAPELLE, Marie Catherine</text>
<text x="3.16cm" y="15.44cm" style="fill:#000000;font-size:10pt; font-family:sans-serif;">POIROT, Nicolas</text>
<text x="3.16cm" y="16.06cm" style="fill:#000000;font-size:10pt; font-family:sans-serif;">POIROT, Nicolas</text>
<text x="3.16cm" y="16.68cm" style="fill:#000000;font-size:10pt; font-family:sans-serif;">POTHIER, Jean</text>
<text x="3.16cm" y="17.29cm" style="fill:#000000;font-size:10pt; font-family:sans-serif;">AUBRY, Marie-Thérése</text>
<text x="3.16cm" y="17.91cm" style="fill:#000000;font-size:10pt; font-family:sans-serif;">JACQUOT, Nicolas</text>
<text x="3.16cm" y="18.53cm" style="fill:#000000;font-size:10pt; font-family:sans-serif;">MELLE, Marie Libaire</text>
<text x="3.16cm" y="19.15cm" style="fill:#000000;font-size:10pt; font-family:sans-serif;">MICARD, Jean Nicolas</text>
<text x="3.16cm" y="19.76cm" style="fill:#000000;font-size:10pt; font-family:sans-serif;">MOUROT, Francoise</text>
<text x="3.16cm" y="20.38cm" style="fill:#000000;font-size:10pt; font-family:sans-serif;">BALAUD, Marie Thérèse</text>
<text x="3.16cm" y="21.00cm" style="fill:#000000;font-size:10pt; font-family:sans-serif;">RUAUX, Marie-Anne</text>
<text x="3.16cm" y="21.61cm" style="fill:#000000;font-size:10pt; font-family:sans-serif;">LECOANET, Jean Joseph</text>
<text x="3.16cm" y="22.23cm" style="fill:#000000;font-size:10pt; font-family:sans-serif;">LEROY, Marie-Anne</text>
<text x="3.16cm" y="22.85cm" style="fill:#000000;font-size:10pt; font-family:sans-serif;">JEANDEL, Joseph</text>
<text x="3.16cm" y="23.47cm" style="fill:#000000;font-size:10pt; font-family:sans-serif;">RUAUX, Francois</text>
<text x="3.16cm" y="24.08cm" style="fill:#000000;font-size:10pt; font-family:sans-serif;">RUAUX, Marie-Thérèse</text>
<text x="3.16cm" y="24.70cm" style="fill:#000000;font-size:10pt; font-family:sans-serif;">PARISOT, Marie Marguerite</text>
<text x="3.16cm" y="25.32cm" style="fill:#000000;font-size:10pt; font-family:sans-serif;">BRICE, Marie Catherine</text>
</svg>
