<?xml version="1.0" encoding="UTF-8" standalone="no"?>
<!DOCTYPE svg PUBLIC "-//W3C//DTD SVG 1.0//EN" "http://www.w3.org/TR/2001/REC-SVG-20010904/DTD/svg10.dtd">
<svg width="21.59cm" height="27.94cm" xmlns="http://www.w3.org/2000/svg">
<rect width="21.59cm" height="27.94cm" style="fill: none;"/>
<line x1="10.04cm" y1="5.14cm" x2="10.04cm" y2="25.40cm" style="stroke:#000000; stroke-dasharray: 2,4; stroke-width:0.50pt;"/>
<line x1="11.74cm" y1="5.14cm" x2="11.74cm" y2="25.40cm" style="stroke:#000000; stroke-dasharray: 2,4; stroke-width:0.50pt;"/>
<line x1="13.44cm" y1="5.14cm" x2="13.44cm" y2="25.40cm" style="stroke:#000000; stroke-dasharray: 2,4; stroke-width:0.50pt;"/>
<line x1="15.15cm" y1="5.14cm" x2="15.15cm" y2="25.40cm" style="stroke:#000000; stroke-dasharray: 2,4; stroke-width:0.50pt;"/>
<line x1="16.85cm" y1="5.14cm" x2="16.85cm" y2="25.40cm" style="stroke:#000000; stroke-dasharray: 2,4; stroke-width:0.50pt;"/>
<line x1="18.55cm" y1="5.14cm" x2="18.55cm" y2="25.40cm" style="stroke:#000000; stroke-dasharray: 2,4; stroke-width:0.50pt;"/>
<polygon fill="#ffffff" style="stroke:#000000;  stroke-width:0.50pt;" points="430.50,204.00 432.28,210.25 430.50,216.50 428.73,210.25"/>
<polygon fill="#ffffff" style="stroke:#000000;  stroke-width:0.50pt;" points="431.11,225.88 432.88,232.13 431.11,238.38 429.34,232.13"/>
<polygon fill="#ffffff" style="stroke:#000000;  stroke-width:0.50pt;" points="431.11,247.75 432.88,254.00 431.11,260.25 429.34,254.00"/>
<polygon fill="#000000" style="stroke:#000000;  stroke-width:0.50pt;" points="467.30,247.75 469.07,254.00 467.30,260.25 465.52,254.00"/>
<line x1="12.22cm" y1="7.17cm" x2="13.14cm" y2="7.17cm" style="stroke:#000000; stroke-width:0.50pt;"/>
<polygon fill="#ffffff" style="stroke:#000000;  stroke-width:0.50pt;" points="431.11,269.63 432.88,275.88 431.11,282.13 429.34,275.88"/>
<polygon fill="#000000" style="stroke:#000000;  stroke-width:0.50pt;" points="469.10,269.63 470.88,275.88 469.10,282.13 467.33,275.88"/>
<line x1="12.22cm" y1="7.79cm" x2="13.19cm" y2="7.79cm" style="stroke:#000000; stroke-width:0.50pt;"/>
<polygon fill="#ffffff" style="stroke:#000000;  stroke-width:0.50pt;" points="431.71,291.50 433.48,297.75 431.71,304.00 429.94,297.75"/>
<polygon fill="#000000" style="stroke:#000000;  stroke-width:0.50pt;" points="456.44,291.50 458.21,297.75 456.44,304.00 454.67,297.75"/>
<line x1="12.23cm" y1="8.40cm" x2="12.83cm" y2="8.40cm" style="stroke:#000000; stroke-width:0.50pt;"/>
<polygon fill="#ffffff" style="stroke:#000000;  stroke-width:0.50pt;" points="431.71,313.38 433.48,319.63 431.71,325.88 429.94,319.63"/>
<polygon fill="#ffffff" style="stroke:#000000;  stroke-width:0.50pt;" points="431.71,335.25 433.48,341.50 431.71,347.75 429.94,341.50"/>
<polygon fill="#000000" style="stroke:#000000;  stroke-width:0.50pt;" points="452.82,335.25 454.59,341.50 452.82,347.75 451.05,341.50"/>
<line x1="12.23cm" y1="9.64cm" x2="12.73cm" y2="9.64cm" style="stroke:#000000; stroke-width:0.50pt;"/>
<polygon fill="#ffffff" style="stroke:#000000;  stroke-width:0.50pt;" points="432.31,357.13 434.09,363.37 432.31,369.62 430.54,363.37"/>
<polygon fill="#000000" style="stroke:#000000;  stroke-width:0.50pt;" points="458.25,357.13 460.02,363.37 458.25,369.62 456.48,363.37"/>
<line x1="12.25cm" y1="10.26cm" x2="12.88cm" y2="10.26cm" style="stroke:#000000; stroke-width:0.50pt;"/>
<polygon fill="#ffffff" style="stroke:#000000;  stroke-width:0.50pt;" points="433.52,379.00 435.29,385.25 433.52,391.50 431.75,385.25"/>
<polygon fill="#000000" style="stroke:#000000;  stroke-width:0.50pt;" points="471.52,379.00 473.29,385.25 471.52,391.50 469.75,385.25"/>
<line x1="12.28cm" y1="10.87cm" x2="13.26cm" y2="10.87cm" style="stroke:#000000; stroke-width:0.50pt;"/>
<polygon fill="#ffffff" style="stroke:#000000;  stroke-width:0.50pt;" points="434.12,400.87 435.89,407.12 434.12,413.37 432.35,407.12"/>
<polygon fill="#000000" style="stroke:#000000;  stroke-width:0.50pt;" points="473.93,400.87 475.70,407.12 473.93,413.37 472.16,407.12"/>
<line x1="12.30cm" y1="11.49cm" x2="13.33cm" y2="11.49cm" style="stroke:#000000; stroke-width:0.50pt;"/>
<polygon fill="#ffffff" style="stroke:#000000;  stroke-width:0.50pt;" points="434.12,422.75 435.89,429.00 434.12,435.25 432.35,429.00"/>
<polygon fill="#ffffff" style="stroke:#000000;  stroke-width:0.50pt;" points="434.12,444.62 435.89,450.87 434.12,457.12 432.35,450.87"/>
<polygon fill="#ffffff" style="stroke:#000000;  stroke-width:0.50pt;" points="435.93,466.50 437.70,472.75 435.93,479.00 434.16,472.75"/>
<polygon fill="#000000" style="stroke:#000000;  stroke-width:0.50pt;" points="484.18,466.50 485.95,472.75 484.18,479.00 482.41,472.75"/>
<line x1="12.35cm" y1="13.34cm" x2="13.61cm" y2="13.34cm" style="stroke:#000000; stroke-width:0.50pt;"/>
<polygon fill="#ffffff" style="stroke:#000000;  stroke-width:0.50pt;" points="435.93,488.37 437.70,494.62 435.93,500.87 434.16,494.62"/>
<polygon fill="#ffffff" style="stroke:#000000;  stroke-width:0.50pt;" points="437.14,510.25 438.91,516.50 437.14,522.75 435.37,516.50"/>
<polygon fill="#ffffff" style="stroke:#000000;  stroke-width:0.50pt;" points="437.14,532.12 438.91,538.37 437.14,544.62 435.37,538.37"/>
<polygon fill="#ffffff" style="stroke:#000000;  stroke-width:0.50pt;" points="437.14,554.00 438.91,560.25 437.14,566.50 435.37,560.25"/>
<polygon fill="#ffffff" style="stroke:#000000;  stroke-width:0.50pt;" points="439.55,575.87 441.32,582.12 439.55,588.37 437.78,582.12"/>
<polygon fill="#ffffff" style="stroke:#000000;  stroke-width:0.50pt;" points="440.15,597.75 441.93,604.00 440.15,610.25 438.38,604.00"/>
<polygon fill="#000000" style="stroke:#000000;  stroke-width:0.50pt;" points="478.15,597.75 479.92,604.00 478.15,610.25 476.38,604.00"/>
<line x1="12.47cm" y1="17.05cm" x2="13.44cm" y2="17.05cm" style="stroke:#000000; stroke-width:0.50pt;"/>
<polygon fill="#ffffff" style="stroke:#000000;  stroke-width:0.50pt;" points="440.15,619.62 441.93,625.87 440.15,632.12 438.38,625.87"/>
<polygon fill="#000000" style="stroke:#000000;  stroke-width:0.50pt;" points="478.15,619.62 479.92,625.87 478.15,632.12 476.38,625.87"/>
<line x1="12.47cm" y1="17.66cm" x2="13.44cm" y2="17.66cm" style="stroke:#000000; stroke-width:0.50pt;"/>
<polygon fill="#ffffff" style="stroke:#000000;  stroke-width:0.50pt;" points="440.15,641.50 441.93,647.75 440.15,654.00 438.38,647.75"/>
<polygon fill="#000000" style="stroke:#000000;  stroke-width:0.50pt;" points="463.68,641.50 465.45,647.75 463.68,654.00 461.90,647.75"/>
<line x1="12.47cm" y1="18.28cm" x2="13.04cm" y2="18.28cm" style="stroke:#000000; stroke-width:0.50pt;"/>
<polygon fill="#ffffff" style="stroke:#000000;  stroke-width:0.50pt;" points="441.96,663.37 443.74,669.62 441.96,675.87 440.19,669.62"/>
<polygon fill="#ffffff" style="stroke:#000000;  stroke-width:0.50pt;" points="443.17,685.25 444.94,691.50 443.17,697.75 441.40,691.50"/>
<polygon fill="#000000" style="stroke:#000000;  stroke-width:0.50pt;" points="491.42,685.25 493.19,691.50 491.42,697.75 489.65,691.50"/>
<line x1="12.56cm" y1="19.52cm" x2="13.82cm" y2="19.52cm" style="stroke:#000000; stroke-width:0.50pt;"/>
<polygon fill="#ffffff" style="stroke:#000000;  stroke-width:0.50pt;" points="443.17,707.12 444.94,713.37 443.17,719.62 441.40,713.37"/>
<polygon fill="#000000" style="stroke:#000000;  stroke-width:0.50pt;" points="484.18,707.12 485.95,713.37 484.18,719.62 482.41,713.37"/>
<line x1="12.56cm" y1="20.13cm" x2="13.61cm" y2="20.13cm" style="stroke:#000000; stroke-width:0.50pt;"/>
<polygon fill="#ffffff" style="stroke:#000000;  stroke-width:0.50pt;" points="443.77,729.00 445.54,735.25 443.77,741.50 442.00,735.25"/>
<polygon fill="#000000" style="stroke:#000000;  stroke-width:0.50pt;" points="483.58,729.00 485.35,735.25 483.58,741.50 481.81,735.25"/>
<line x1="12.57cm" y1="20.75cm" x2="13.60cm" y2="20.75cm" style="stroke:#000000; stroke-width:0.50pt;"/>
<polygon fill="#ffffff" style="stroke:#000000;  stroke-width:0.50pt;" points="443.77,750.87 445.54,757.12 443.77,763.37 442.00,757.12"/>
<polygon fill="#000000" style="stroke:#000000;  stroke-width:0.50pt;" points="489.61,750.87 491.38,757.12 489.61,763.37 487.84,757.12"/>
<line x1="12.57cm" y1="21.37cm" x2="13.77cm" y2="21.37cm" style="stroke:#000000; stroke-width:0.50pt;"/>
<polygon fill="#ffffff" style="stroke:#000000;  stroke-width:0.50pt;" points="444.38,772.75 446.15,779.00 444.38,785.25 442.60,779.00"/>
<polygon fill="#000000" style="stroke:#000000;  stroke-width:0.50pt;" points="489.61,772.75 491.38,779.00 489.61,785.25 487.84,779.00"/>
<line x1="12.59cm" y1="21.99cm" x2="13.77cm" y2="21.99cm" style="stroke:#000000; stroke-width:0.50pt;"/>
<polygon fill="#ffffff" style="stroke:#000000;  stroke-width:0.50pt;" points="445.58,794.62 447.35,800.87 445.58,807.12 443.81,800.87"/>
<polygon fill="#ffffff" style="stroke:#000000;  stroke-width:0.50pt;" points="446.19,816.50 447.96,822.75 446.19,829.00 444.41,822.75"/>
<polygon fill="#000000" style="stroke:#000000;  stroke-width:0.50pt;" points="473.33,816.50 475.10,822.75 473.33,829.00 471.55,822.75"/>
<line x1="12.64cm" y1="23.22cm" x2="13.31cm" y2="23.22cm" style="stroke:#000000; stroke-width:0.50pt;"/>
<polygon fill="#ffffff" style="stroke:#000000;  stroke-width:0.50pt;" points="446.19,838.37 447.96,844.62 446.19,850.87 444.41,844.62"/>
<polygon fill="#000000" style="stroke:#000000;  stroke-width:0.50pt;" points="487.20,838.37 488.97,844.62 487.20,850.87 485.43,844.62"/>
<line x1="12.64cm" y1="23.84cm" x2="13.70cm" y2="23.84cm" style="stroke:#000000; stroke-width:0.50pt;"/>
<polygon fill="#ffffff" style="stroke:#000000;  stroke-width:0.50pt;" points="446.19,860.25 447.96,866.50 446.19,872.75 444.41,866.50"/>
<polygon fill="#ffffff" style="stroke:#000000;  stroke-width:0.50pt;" points="446.19,882.12 447.96,888.37 446.19,894.62 444.41,888.37"/>
<polygon fill="#000000" style="stroke:#000000;  stroke-width:0.50pt;" points="471.52,882.12 473.29,888.37 471.52,894.62 469.75,888.37"/>
<line x1="12.64cm" y1="25.07cm" x2="13.26cm" y2="25.07cm" style="stroke:#000000; stroke-width:0.50pt;"/>
<text x="7.01cm" y="3.13cm" style="fill:#000000;font-size:14pt; font-family:sans-serif;">Graphique temporel -- Trié par Naissance</text>
<text x="8.22cm" y="3.74cm" style="fill:#000000;font-size:14pt; font-family:sans-serif;">(Toute la base de données)</text>
<text x="6.17cm" y="4.34cm" style="fill:#000000;font-size:14pt; font-family:sans-serif;">(Individus vivants : Inclus, avec toutes les données)</text>
<text x="9.68cm" y="5.14cm" style="fill:#000000;font-size:8pt; font-family:sans-serif;">1520</text>
<text x="11.38cm" y="5.14cm" style="fill:#000000;font-size:8pt; font-family:sans-serif;">1620</text>
<text x="13.09cm" y="5.14cm" style="fill:#000000;font-size:8pt; font-family:sans-serif;">1720</text>
<text x="14.79cm" y="5.14cm" style="fill:#000000;font-size:8pt; font-family:sans-serif;">1820</text>
<text x="16.49cm" y="5.14cm" style="fill:#000000;font-size:8pt; font-family:sans-serif;">1920</text>
<text x="18.19cm" y="5.14cm" style="fill:#000000;font-size:8pt; font-family:sans-serif;">2020</text>
<text x="3.16cm" y="6.18cm" style="fill:#000000;font-size:10pt; font-family:sans-serif;">LAURENT, Jacquotte</text>
<text x="3.16cm" y="6.80cm" style="fill:#000000;font-size:10pt; font-family:sans-serif;">DAVILLERE, Jean</text>
<text x="3.16cm" y="7.42cm" style="fill:#000000;font-size:10pt; font-family:sans-serif;">SIMONIN, Anne</text>
<text x="3.16cm" y="8.03cm" style="fill:#000000;font-size:10pt; font-family:sans-serif;">AUBRY, Francois</text>
<text x="3.16cm" y="8.65cm" style="fill:#000000;font-size:10pt; font-family:sans-serif;">VALENTIN, Marguerite</text>
<text x="3.16cm" y="9.27cm" style="fill:#000000;font-size:10pt; font-family:sans-serif;">CHAPELLE, Claude Claudius</text>
<text x="3.16cm" y="9.88cm" style="fill:#000000;font-size:10pt; font-family:sans-serif;">THIRIET, Dominique</text>
<text x="3.16cm" y="10.50cm" style="fill:#000000;font-size:10pt; font-family:sans-serif;">MARULIER, Jean</text>
<text x="3.16cm" y="11.12cm" style="fill:#000000;font-size:10pt; font-family:sans-serif;">MATTACOT, Celine</text>
<text x="3.16cm" y="11.74cm" style="fill:#000000;font-size:10pt; font-family:sans-serif;">EURIAT, Charles</text>
<text x="3.16cm" y="12.35cm" style="fill:#000000;font-size:10pt; font-family:sans-serif;">PETITCOLIN, Jeanne</text>
<text x="3.16cm" y="12.97cm" style="fill:#000000;font-size:10pt; font-family:sans-serif;">THOUVENOT, Jeanne</text>
<text x="3.16cm" y="13.59cm" style="fill:#000000;font-size:10pt; font-family:sans-serif;">REMY, Louise</text>
<text x="3.16cm" y="14.21cm" style="fill:#000000;font-size:10pt; font-family:sans-serif;">GOYE, Anselme</text>
<text x="3.16cm" y="14.82cm" style="fill:#000000;font-size:10pt; font-family:sans-serif;">DIDELOT, Jeanne</text>
<text x="3.16cm" y="15.44cm" style="fill:#000000;font-size:10pt; font-family:sans-serif;">POIROT, Nicolas</text>
<text x="3.16cm" y="16.06cm" style="fill:#000000;font-size:10pt; font-family:sans-serif;">POIROT, Francois</text>
<text x="3.16cm" y="16.68cm" style="fill:#000000;font-size:10pt; font-family:sans-serif;">DESVOIVRES, Claude</text>
<text x="3.16cm" y="17.29cm" style="fill:#000000;font-size:10pt; font-family:sans-serif;">MARULIER, Francois Joseph</text>
<text x="3.16cm" y="17.91cm" style="fill:#000000;font-size:10pt; font-family:sans-serif;">MARULIER, Francois Joseph</text>
<text x="3.16cm" y="18.53cm" style="fill:#000000;font-size:10pt; font-family:sans-serif;">SIMONIN, Jeanne</text>
<text x="3.16cm" y="19.15cm" style="fill:#000000;font-size:10pt; font-family:sans-serif;">BARTHELEMY, Catherine</text>
<text x="3.16cm" y="19.76cm" style="fill:#000000;font-size:10pt; font-family:sans-serif;">ETIENNE, Jeanne Claude</text>
<text x="3.16cm" y="20.38cm" style="fill:#000000;font-size:10pt; font-family:sans-serif;">FOMBARON, Jean</text>
<text x="3.16cm" y="21.00cm" style="fill:#000000;font-size:10pt; font-family:sans-serif;">GRANDDOYEN, Sébastienne</text>
<text x="3.16cm" y="21.61cm" style="fill:#000000;font-size:10pt; font-family:sans-serif;">RUAUX, Jean Nicolas</text>
<text x="3.16cm" y="22.23cm" style="fill:#000000;font-size:10pt; font-family:sans-serif;">TACHET, Quirin</text>
<text x="3.16cm" y="22.85cm" style="fill:#000000;font-size:10pt; font-family:sans-serif;">DAVILAIRE, Nicolas</text>
<text x="3.16cm" y="23.47cm" style="fill:#000000;font-size:10pt; font-family:sans-serif;">EURIAT, Joseph</text>
<text x="3.16cm" y="24.08cm" style="fill:#000000;font-size:10pt; font-family:sans-serif;">HENRY, Claude</text>
<text x="3.16cm" y="24.70cm" style="fill:#000000;font-size:10pt; font-family:sans-serif;">MATHIEU, Anne</text>
<text x="3.16cm" y="25.32cm" style="fill:#000000;font-size:10pt; font-family:sans-serif;">PERRY, Nicolas</text>
</svg>
