<?xml version="1.0" encoding="UTF-8" standalone="no"?>
<!DOCTYPE svg PUBLIC "-//W3C//DTD SVG 1.0//EN" "http://www.w3.org/TR/2001/REC-SVG-20010904/DTD/svg10.dtd">
<svg width="21.59cm" height="27.94cm" xmlns="http://www.w3.org/2000/svg">
<rect width="21.59cm" height="27.94cm" style="fill: none;"/>
<line x1="10.04cm" y1="5.14cm" x2="10.04cm" y2="25.40cm" style="stroke:#000000; stroke-dasharray: 2,4; stroke-width:0.50pt;"/>
<line x1="11.74cm" y1="5.14cm" x2="11.74cm" y2="25.40cm" style="stroke:#000000; stroke-dasharray: 2,4; stroke-width:0.50pt;"/>
<line x1="13.44cm" y1="5.14cm" x2="13.44cm" y2="25.40cm" style="stroke:#000000; stroke-dasharray: 2,4; stroke-width:0.50pt;"/>
<line x1="15.15cm" y1="5.14cm" x2="15.15cm" y2="25.40cm" style="stroke:#000000; stroke-dasharray: 2,4; stroke-width:0.50pt;"/>
<line x1="16.85cm" y1="5.14cm" x2="16.85cm" y2="25.40cm" style="stroke:#000000; stroke-dasharray: 2,4; stroke-width:0.50pt;"/>
<line x1="18.55cm" y1="5.14cm" x2="18.55cm" y2="25.40cm" style="stroke:#000000; stroke-dasharray: 2,4; stroke-width:0.50pt;"/>
<polygon fill="#ffffff" style="stroke:#000000;  stroke-width:0.50pt;" points="560.18,204.00 561.95,210.25 560.18,216.50 558.41,210.25"/>
<polygon fill="#000000" style="stroke:#000000;  stroke-width:0.50pt;" points="564.40,204.00 566.17,210.25 564.40,216.50 562.63,210.25"/>
<line x1="15.86cm" y1="5.93cm" x2="15.88cm" y2="5.93cm" style="stroke:#000000; stroke-width:0.50pt;"/>
<polygon fill="#ffffff" style="stroke:#000000;  stroke-width:0.50pt;" points="560.78,225.88 562.55,232.13 560.78,238.38 559.01,232.13"/>
<polygon fill="#ffffff" style="stroke:#000000;  stroke-width:0.50pt;" points="560.78,247.75 562.55,254.00 560.78,260.25 559.01,254.00"/>
<polygon fill="#ffffff" style="stroke:#000000;  stroke-width:0.50pt;" points="561.38,269.63 563.16,275.88 561.38,282.13 559.61,275.88"/>
<polygon fill="#ffffff" style="stroke:#000000;  stroke-width:0.50pt;" points="561.38,291.50 563.16,297.75 561.38,304.00 559.61,297.75"/>
<polygon fill="#000000" style="stroke:#000000;  stroke-width:0.50pt;" points="604.21,291.50 605.98,297.75 604.21,304.00 602.43,297.75"/>
<line x1="15.89cm" y1="8.40cm" x2="17.00cm" y2="8.40cm" style="stroke:#000000; stroke-width:0.50pt;"/>
<polygon fill="#ffffff" style="stroke:#000000;  stroke-width:0.50pt;" points="561.99,313.38 563.76,319.63 561.99,325.88 560.22,319.63"/>
<polygon fill="#ffffff" style="stroke:#000000;  stroke-width:0.50pt;" points="561.99,335.25 563.76,341.50 561.99,347.75 560.22,341.50"/>
<polygon fill="#ffffff" style="stroke:#000000;  stroke-width:0.50pt;" points="562.59,357.13 564.36,363.37 562.59,369.62 560.82,363.37"/>
<polygon fill="#ffffff" style="stroke:#000000;  stroke-width:0.50pt;" points="564.40,379.00 566.17,385.25 564.40,391.50 562.63,385.25"/>
<polygon fill="#ffffff" style="stroke:#000000;  stroke-width:0.50pt;" points="565.00,400.87 566.77,407.12 565.00,413.37 563.23,407.12"/>
<polygon fill="#ffffff" style="stroke:#000000;  stroke-width:0.50pt;" points="565.61,422.75 567.38,429.00 565.61,435.25 563.83,429.00"/>
<polygon fill="#ffffff" style="stroke:#000000;  stroke-width:0.50pt;" points="565.61,444.62 567.38,450.87 565.61,457.12 563.83,450.87"/>
<polygon fill="#ffffff" style="stroke:#000000;  stroke-width:0.50pt;" points="566.21,466.50 567.98,472.75 566.21,479.00 564.44,472.75"/>
<polygon fill="#ffffff" style="stroke:#000000;  stroke-width:0.50pt;" points="566.81,488.37 568.58,494.62 566.81,500.87 565.04,494.62"/>
<polygon fill="#ffffff" style="stroke:#000000;  stroke-width:0.50pt;" points="567.42,510.25 569.19,516.50 567.42,522.75 565.64,516.50"/>
<polygon fill="#ffffff" style="stroke:#000000;  stroke-width:0.50pt;" points="567.42,532.12 569.19,538.37 567.42,544.62 565.64,538.37"/>
<polygon fill="#ffffff" style="stroke:#000000;  stroke-width:0.50pt;" points="568.02,554.00 569.79,560.25 568.02,566.50 566.25,560.25"/>
<polygon fill="#000000" style="stroke:#000000;  stroke-width:0.50pt;" points="602.40,554.00 604.17,560.25 602.40,566.50 600.63,560.25"/>
<line x1="16.08cm" y1="15.81cm" x2="16.95cm" y2="15.81cm" style="stroke:#000000; stroke-width:0.50pt;"/>
<polygon fill="#ffffff" style="stroke:#000000;  stroke-width:0.50pt;" points="568.62,575.87 570.39,582.12 568.62,588.37 566.85,582.12"/>
<polygon fill="#ffffff" style="stroke:#000000;  stroke-width:0.50pt;" points="568.62,597.75 570.39,604.00 568.62,610.25 566.85,604.00"/>
<polygon fill="#000000" style="stroke:#000000;  stroke-width:0.50pt;" points="608.43,597.75 610.20,604.00 608.43,610.25 606.66,604.00"/>
<line x1="16.10cm" y1="17.05cm" x2="17.12cm" y2="17.05cm" style="stroke:#000000; stroke-width:0.50pt;"/>
<polygon fill="#ffffff" style="stroke:#000000;  stroke-width:0.50pt;" points="568.62,619.62 570.39,625.87 568.62,632.12 566.85,625.87"/>
<polygon fill="#ffffff" style="stroke:#000000;  stroke-width:0.50pt;" points="569.22,641.50 571.00,647.75 569.22,654.00 567.45,647.75"/>
<polygon fill="#ffffff" style="stroke:#000000;  stroke-width:0.50pt;" points="569.83,663.37 571.60,669.62 569.83,675.87 568.06,669.62"/>
<polygon fill="#000000" style="stroke:#000000;  stroke-width:0.50pt;" points="592.75,663.37 594.52,669.62 592.75,675.87 590.98,669.62"/>
<line x1="16.13cm" y1="18.90cm" x2="16.68cm" y2="18.90cm" style="stroke:#000000; stroke-width:0.50pt;"/>
<polygon fill="#ffffff" style="stroke:#000000;  stroke-width:0.50pt;" points="569.83,685.25 571.60,691.50 569.83,697.75 568.06,691.50"/>
<polygon fill="#ffffff" style="stroke:#000000;  stroke-width:0.50pt;" points="570.43,707.12 572.20,713.37 570.43,719.62 568.66,713.37"/>
<polygon fill="#ffffff" style="stroke:#000000;  stroke-width:0.50pt;" points="571.03,729.00 572.81,735.25 571.03,741.50 569.26,735.25"/>
<polygon fill="#ffffff" style="stroke:#000000;  stroke-width:0.50pt;" points="571.03,750.87 572.81,757.12 571.03,763.37 569.26,757.12"/>
<polygon fill="#000000" style="stroke:#000000;  stroke-width:0.50pt;" points="627.73,750.87 629.50,757.12 627.73,763.37 625.96,757.12"/>
<line x1="16.17cm" y1="21.37cm" x2="17.67cm" y2="21.37cm" style="stroke:#000000; stroke-width:0.50pt;"/>
<polygon fill="#ffffff" style="stroke:#000000;  stroke-width:0.50pt;" points="571.03,772.75 572.81,779.00 571.03,785.25 569.26,779.00"/>
<polygon fill="#ffffff" style="stroke:#000000;  stroke-width:0.50pt;" points="572.24,794.62 574.01,800.87 572.24,807.12 570.47,800.87"/>
<polygon fill="#ffffff" style="stroke:#000000;  stroke-width:0.50pt;" points="572.24,816.50 574.01,822.75 572.24,829.00 570.47,822.75"/>
<polygon fill="#ffffff" style="stroke:#000000;  stroke-width:0.50pt;" points="573.45,838.37 575.22,844.62 573.45,850.87 571.67,844.62"/>
<polygon fill="#ffffff" style="stroke:#000000;  stroke-width:0.50pt;" points="573.45,860.25 575.22,866.50 573.45,872.75 571.67,866.50"/>
<polygon fill="#ffffff" style="stroke:#000000;  stroke-width:0.50pt;" points="574.05,882.12 575.82,888.37 574.05,894.62 572.28,888.37"/>
<polygon fill="#000000" style="stroke:#000000;  stroke-width:0.50pt;" points="574.65,882.12 576.42,888.37 574.65,894.62 572.88,888.37"/>
<line x1="16.25cm" y1="25.07cm" x2="16.17cm" y2="25.07cm" style="stroke:#000000; stroke-width:0.50pt;"/>
<text x="7.01cm" y="3.13cm" style="fill:#000000;font-size:14pt; font-family:sans-serif;">Graphique temporel -- Trié par Naissance</text>
<text x="8.22cm" y="3.74cm" style="fill:#000000;font-size:14pt; font-family:sans-serif;">(Toute la base de données)</text>
<text x="6.17cm" y="4.34cm" style="fill:#000000;font-size:14pt; font-family:sans-serif;">(Individus vivants : Inclus, avec toutes les données)</text>
<text x="9.68cm" y="5.14cm" style="fill:#000000;font-size:8pt; font-family:sans-serif;">1520</text>
<text x="11.38cm" y="5.14cm" style="fill:#000000;font-size:8pt; font-family:sans-serif;">1620</text>
<text x="13.09cm" y="5.14cm" style="fill:#000000;font-size:8pt; font-family:sans-serif;">1720</text>
<text x="14.79cm" y="5.14cm" style="fill:#000000;font-size:8pt; font-family:sans-serif;">1820</text>
<text x="16.49cm" y="5.14cm" style="fill:#000000;font-size:8pt; font-family:sans-serif;">1920</text>
<text x="18.19cm" y="5.14cm" style="fill:#000000;font-size:8pt; font-family:sans-serif;">2020</text>
<text x="3.16cm" y="6.18cm" style="fill:#000000;font-size:10pt; font-family:sans-serif;">THOUVENOT, Marie Mathilde Aphrodisie</text>
<text x="3.16cm" y="6.80cm" style="fill:#000000;font-size:10pt; font-family:sans-serif;">POIROT, Joséphine</text>
<text x="3.16cm" y="7.42cm" style="fill:#000000;font-size:10pt; font-family:sans-serif;">POIROT, Lucien</text>
<text x="3.16cm" y="8.03cm" style="fill:#000000;font-size:10pt; font-family:sans-serif;">FAYON, Marie Philomene</text>
<text x="3.16cm" y="8.65cm" style="fill:#000000;font-size:10pt; font-family:sans-serif;">TRAVAILLEUR, Marie Félicie</text>
<text x="3.16cm" y="9.27cm" style="fill:#000000;font-size:10pt; font-family:sans-serif;">BERRY, Francois Ernest</text>
<text x="3.16cm" y="9.88cm" style="fill:#000000;font-size:10pt; font-family:sans-serif;">POIROT, Joseph Lucien</text>
<text x="3.16cm" y="10.50cm" style="fill:#000000;font-size:10pt; font-family:sans-serif;">POIROT, Arsène</text>
<text x="3.16cm" y="11.12cm" style="fill:#000000;font-size:10pt; font-family:sans-serif;">POTHIER, Charles Auguste</text>
<text x="3.16cm" y="11.74cm" style="fill:#000000;font-size:10pt; font-family:sans-serif;">NOEL, Camille Isidore</text>
<text x="3.16cm" y="12.35cm" style="fill:#000000;font-size:10pt; font-family:sans-serif;">CUNIN, Emile</text>
<text x="3.16cm" y="12.97cm" style="fill:#000000;font-size:10pt; font-family:sans-serif;">GAUDE, Charles Benoni</text>
<text x="3.16cm" y="13.59cm" style="fill:#000000;font-size:10pt; font-family:sans-serif;">JACQUOT, Clément</text>
<text x="3.16cm" y="14.21cm" style="fill:#000000;font-size:10pt; font-family:sans-serif;">AUBRY, Francois Alexis</text>
<text x="3.16cm" y="14.82cm" style="fill:#000000;font-size:10pt; font-family:sans-serif;">FLAIN, Marie-Camille</text>
<text x="3.16cm" y="15.44cm" style="fill:#000000;font-size:10pt; font-family:sans-serif;">POTHIER, Lucien Félix</text>
<text x="3.16cm" y="16.06cm" style="fill:#000000;font-size:10pt; font-family:sans-serif;">COSSERAT, Marie Claudine Emilie</text>
<text x="3.16cm" y="16.68cm" style="fill:#000000;font-size:10pt; font-family:sans-serif;">GERBERON, Marthe Catherine Joséphine</text>
<text x="3.16cm" y="17.29cm" style="fill:#000000;font-size:10pt; font-family:sans-serif;">RUAUX, Joseph</text>
<text x="3.16cm" y="17.91cm" style="fill:#000000;font-size:10pt; font-family:sans-serif;">GUILLEREZ, Marie Eugénie</text>
<text x="3.16cm" y="18.53cm" style="fill:#000000;font-size:10pt; font-family:sans-serif;">POTHIER, Léon Auguste</text>
<text x="3.16cm" y="19.15cm" style="fill:#000000;font-size:10pt; font-family:sans-serif;">JACQUEMIN, Marie</text>
<text x="3.16cm" y="19.76cm" style="fill:#000000;font-size:10pt; font-family:sans-serif;">BARTHELEMY, Maria Eugénie</text>
<text x="3.16cm" y="20.38cm" style="fill:#000000;font-size:10pt; font-family:sans-serif;">THOUVENOT, Marie Euphrasie</text>
<text x="3.16cm" y="21.00cm" style="fill:#000000;font-size:10pt; font-family:sans-serif;">THOUVENOT, Marie Joseph Pol Leon</text>
<text x="3.16cm" y="21.61cm" style="fill:#000000;font-size:10pt; font-family:sans-serif;">VARROY, Marie</text>
<text x="3.16cm" y="22.23cm" style="fill:#000000;font-size:10pt; font-family:sans-serif;">SALMON, Francois</text>
<text x="3.16cm" y="22.85cm" style="fill:#000000;font-size:10pt; font-family:sans-serif;">POIROT, Joseph Denis</text>
<text x="3.16cm" y="23.47cm" style="fill:#000000;font-size:10pt; font-family:sans-serif;">MARULIER, Louis Marie Francois</text>
<text x="3.16cm" y="24.08cm" style="fill:#000000;font-size:10pt; font-family:sans-serif;">POIROT, Marie Louise</text>
<text x="3.16cm" y="24.70cm" style="fill:#000000;font-size:10pt; font-family:sans-serif;">ETIENNE, Paul</text>
<text x="3.16cm" y="25.32cm" style="fill:#000000;font-size:10pt; font-family:sans-serif;">POTHIER, Marie Juliette</text>
</svg>
