<?xml version="1.0" encoding="UTF-8" standalone="no"?>
<!DOCTYPE svg PUBLIC "-//W3C//DTD SVG 1.0//EN" "http://www.w3.org/TR/2001/REC-SVG-20010904/DTD/svg10.dtd">
<svg width="21.59cm" height="27.94cm" xmlns="http://www.w3.org/2000/svg">
<rect width="21.59cm" height="27.94cm" style="fill: none;"/>
<line x1="10.04cm" y1="5.14cm" x2="10.04cm" y2="25.40cm" style="stroke:#000000; stroke-dasharray: 2,4; stroke-width:0.50pt;"/>
<line x1="11.74cm" y1="5.14cm" x2="11.74cm" y2="25.40cm" style="stroke:#000000; stroke-dasharray: 2,4; stroke-width:0.50pt;"/>
<line x1="13.44cm" y1="5.14cm" x2="13.44cm" y2="25.40cm" style="stroke:#000000; stroke-dasharray: 2,4; stroke-width:0.50pt;"/>
<line x1="15.15cm" y1="5.14cm" x2="15.15cm" y2="25.40cm" style="stroke:#000000; stroke-dasharray: 2,4; stroke-width:0.50pt;"/>
<line x1="16.85cm" y1="5.14cm" x2="16.85cm" y2="25.40cm" style="stroke:#000000; stroke-dasharray: 2,4; stroke-width:0.50pt;"/>
<line x1="18.55cm" y1="5.14cm" x2="18.55cm" y2="25.40cm" style="stroke:#000000; stroke-dasharray: 2,4; stroke-width:0.50pt;"/>
<polygon fill="#ffffff" style="stroke:#000000;  stroke-width:0.50pt;" points="466.69,204.00 468.46,210.25 466.69,216.50 464.92,210.25"/>
<polygon fill="#000000" style="stroke:#000000;  stroke-width:0.50pt;" points="501.07,204.00 502.84,210.25 501.07,216.50 499.30,210.25"/>
<line x1="13.22cm" y1="5.93cm" x2="14.09cm" y2="5.93cm" style="stroke:#000000; stroke-width:0.50pt;"/>
<polygon fill="#ffffff" style="stroke:#000000;  stroke-width:0.50pt;" points="466.69,225.88 468.46,232.13 466.69,238.38 464.92,232.13"/>
<polygon fill="#ffffff" style="stroke:#000000;  stroke-width:0.50pt;" points="467.30,247.75 469.07,254.00 467.30,260.25 465.52,254.00"/>
<polygon fill="#000000" style="stroke:#000000;  stroke-width:0.50pt;" points="503.48,247.75 505.25,254.00 503.48,260.25 501.71,254.00"/>
<line x1="13.24cm" y1="7.17cm" x2="14.16cm" y2="7.17cm" style="stroke:#000000; stroke-width:0.50pt;"/>
<polygon fill="#ffffff" style="stroke:#000000;  stroke-width:0.50pt;" points="467.90,269.63 469.67,275.88 467.90,282.13 466.13,275.88"/>
<polygon fill="#000000" style="stroke:#000000;  stroke-width:0.50pt;" points="501.07,269.63 502.84,275.88 501.07,282.13 499.30,275.88"/>
<line x1="13.26cm" y1="7.79cm" x2="14.09cm" y2="7.79cm" style="stroke:#000000; stroke-width:0.50pt;"/>
<polygon fill="#ffffff" style="stroke:#000000;  stroke-width:0.50pt;" points="467.90,291.50 469.67,297.75 467.90,304.00 466.13,297.75"/>
<polygon fill="#000000" style="stroke:#000000;  stroke-width:0.50pt;" points="508.31,291.50 510.08,297.75 508.31,304.00 506.54,297.75"/>
<line x1="13.26cm" y1="8.40cm" x2="14.30cm" y2="8.40cm" style="stroke:#000000; stroke-width:0.50pt;"/>
<polygon fill="#ffffff" style="stroke:#000000;  stroke-width:0.50pt;" points="470.31,313.38 472.08,319.63 470.31,325.88 468.54,319.63"/>
<polygon fill="#000000" style="stroke:#000000;  stroke-width:0.50pt;" points="507.10,313.38 508.87,319.63 507.10,325.88 505.33,319.63"/>
<line x1="13.32cm" y1="9.02cm" x2="14.26cm" y2="9.02cm" style="stroke:#000000; stroke-width:0.50pt;"/>
<polygon fill="#ffffff" style="stroke:#000000;  stroke-width:0.50pt;" points="470.31,335.25 472.08,341.50 470.31,347.75 468.54,341.50"/>
<polygon fill="#000000" style="stroke:#000000;  stroke-width:0.50pt;" points="506.50,335.25 508.27,341.50 506.50,347.75 504.73,341.50"/>
<line x1="13.32cm" y1="9.64cm" x2="14.24cm" y2="9.64cm" style="stroke:#000000; stroke-width:0.50pt;"/>
<polygon fill="#ffffff" style="stroke:#000000;  stroke-width:0.50pt;" points="471.52,357.13 473.29,363.37 471.52,369.62 469.75,363.37"/>
<polygon fill="#000000" style="stroke:#000000;  stroke-width:0.50pt;" points="501.67,357.13 503.45,363.37 501.67,369.62 499.90,363.37"/>
<line x1="13.36cm" y1="10.26cm" x2="14.11cm" y2="10.26cm" style="stroke:#000000; stroke-width:0.50pt;"/>
<polygon fill="#ffffff" style="stroke:#000000;  stroke-width:0.50pt;" points="472.72,379.00 474.49,385.25 472.72,391.50 470.95,385.25"/>
<polygon fill="#000000" style="stroke:#000000;  stroke-width:0.50pt;" points="511.93,379.00 513.70,385.25 511.93,391.50 510.16,385.25"/>
<line x1="13.39cm" y1="10.87cm" x2="14.40cm" y2="10.87cm" style="stroke:#000000; stroke-width:0.50pt;"/>
<polygon fill="#ffffff" style="stroke:#000000;  stroke-width:0.50pt;" points="473.33,400.87 475.10,407.12 473.33,413.37 471.55,407.12"/>
<polygon fill="#000000" style="stroke:#000000;  stroke-width:0.50pt;" points="518.56,400.87 520.33,407.12 518.56,413.37 516.79,407.12"/>
<line x1="13.41cm" y1="11.49cm" x2="14.58cm" y2="11.49cm" style="stroke:#000000; stroke-width:0.50pt;"/>
<polygon fill="#ffffff" style="stroke:#000000;  stroke-width:0.50pt;" points="473.33,422.75 475.10,429.00 473.33,435.25 471.55,429.00"/>
<polygon fill="#ffffff" style="stroke:#000000;  stroke-width:0.50pt;" points="473.93,444.62 475.70,450.87 473.93,457.12 472.16,450.87"/>
<polygon fill="#000000" style="stroke:#000000;  stroke-width:0.50pt;" points="509.51,444.62 511.29,450.87 509.51,457.12 507.74,450.87"/>
<line x1="13.43cm" y1="12.72cm" x2="14.33cm" y2="12.72cm" style="stroke:#000000; stroke-width:0.50pt;"/>
<polygon fill="#ffffff" style="stroke:#000000;  stroke-width:0.50pt;" points="474.53,466.50 476.30,472.75 474.53,479.00 472.76,472.75"/>
<polygon fill="#ffffff" style="stroke:#000000;  stroke-width:0.50pt;" points="475.74,488.37 477.51,494.62 475.74,500.87 473.97,494.62"/>
<polygon fill="#000000" style="stroke:#000000;  stroke-width:0.50pt;" points="490.21,488.37 491.99,494.62 490.21,500.87 488.44,494.62"/>
<line x1="13.48cm" y1="13.96cm" x2="13.78cm" y2="13.96cm" style="stroke:#000000; stroke-width:0.50pt;"/>
<polygon fill="#ffffff" style="stroke:#000000;  stroke-width:0.50pt;" points="476.34,510.25 478.11,516.50 476.34,522.75 474.57,516.50"/>
<polygon fill="#000000" style="stroke:#000000;  stroke-width:0.50pt;" points="518.56,510.25 520.33,516.50 518.56,522.75 516.79,516.50"/>
<line x1="13.49cm" y1="14.58cm" x2="14.58cm" y2="14.58cm" style="stroke:#000000; stroke-width:0.50pt;"/>
<polygon fill="#ffffff" style="stroke:#000000;  stroke-width:0.50pt;" points="476.34,532.12 478.11,538.37 476.34,544.62 474.57,538.37"/>
<polygon fill="#ffffff" style="stroke:#000000;  stroke-width:0.50pt;" points="476.95,554.00 478.72,560.25 476.95,566.50 475.17,560.25"/>
<polygon fill="#000000" style="stroke:#000000;  stroke-width:0.50pt;" points="528.81,554.00 530.59,560.25 528.81,566.50 527.04,560.25"/>
<line x1="13.51cm" y1="15.81cm" x2="14.87cm" y2="15.81cm" style="stroke:#000000; stroke-width:0.50pt;"/>
<polygon fill="#ffffff" style="stroke:#000000;  stroke-width:0.50pt;" points="477.55,575.87 479.32,582.12 477.55,588.37 475.78,582.12"/>
<polygon fill="#000000" style="stroke:#000000;  stroke-width:0.50pt;" points="516.15,575.87 517.92,582.12 516.15,588.37 514.38,582.12"/>
<line x1="13.53cm" y1="16.43cm" x2="14.52cm" y2="16.43cm" style="stroke:#000000; stroke-width:0.50pt;"/>
<polygon fill="#ffffff" style="stroke:#000000;  stroke-width:0.50pt;" points="478.15,597.75 479.92,604.00 478.15,610.25 476.38,604.00"/>
<polygon fill="#ffffff" style="stroke:#000000;  stroke-width:0.50pt;" points="478.15,619.62 479.92,625.87 478.15,632.12 476.38,625.87"/>
<polygon fill="#ffffff" style="stroke:#000000;  stroke-width:0.50pt;" points="479.96,641.50 481.73,647.75 479.96,654.00 478.19,647.75"/>
<polygon fill="#000000" style="stroke:#000000;  stroke-width:0.50pt;" points="513.13,641.50 514.90,647.75 513.13,654.00 511.36,647.75"/>
<line x1="13.60cm" y1="18.28cm" x2="14.43cm" y2="18.28cm" style="stroke:#000000; stroke-width:0.50pt;"/>
<polygon fill="#ffffff" style="stroke:#000000;  stroke-width:0.50pt;" points="480.56,663.37 482.34,669.62 480.56,675.87 478.79,669.62"/>
<polygon fill="#ffffff" style="stroke:#000000;  stroke-width:0.50pt;" points="482.37,685.25 484.15,691.50 482.37,697.75 480.60,691.50"/>
<polygon fill="#000000" style="stroke:#000000;  stroke-width:0.50pt;" points="523.39,685.25 525.16,691.50 523.39,697.75 521.61,691.50"/>
<line x1="13.66cm" y1="19.52cm" x2="14.72cm" y2="19.52cm" style="stroke:#000000; stroke-width:0.50pt;"/>
<polygon fill="#ffffff" style="stroke:#000000;  stroke-width:0.50pt;" points="482.98,707.12 484.75,713.37 482.98,719.62 481.20,713.37"/>
<polygon fill="#000000" style="stroke:#000000;  stroke-width:0.50pt;" points="528.21,707.12 529.98,713.37 528.21,719.62 526.44,713.37"/>
<line x1="13.68cm" y1="20.13cm" x2="14.86cm" y2="20.13cm" style="stroke:#000000; stroke-width:0.50pt;"/>
<polygon fill="#ffffff" style="stroke:#000000;  stroke-width:0.50pt;" points="484.18,729.00 485.95,735.25 484.18,741.50 482.41,735.25"/>
<polygon fill="#ffffff" style="stroke:#000000;  stroke-width:0.50pt;" points="485.99,750.87 487.76,757.12 485.99,763.37 484.22,757.12"/>
<polygon fill="#000000" style="stroke:#000000;  stroke-width:0.50pt;" points="521.58,750.87 523.35,757.12 521.58,763.37 519.81,757.12"/>
<line x1="13.77cm" y1="21.37cm" x2="14.67cm" y2="21.37cm" style="stroke:#000000; stroke-width:0.50pt;"/>
<polygon fill="#ffffff" style="stroke:#000000;  stroke-width:0.50pt;" points="486.60,772.75 488.37,779.00 486.60,785.25 484.82,779.00"/>
<polygon fill="#000000" style="stroke:#000000;  stroke-width:0.50pt;" points="519.16,772.75 520.94,779.00 519.16,785.25 517.39,779.00"/>
<line x1="13.78cm" y1="21.99cm" x2="14.60cm" y2="21.99cm" style="stroke:#000000; stroke-width:0.50pt;"/>
<polygon fill="#ffffff" style="stroke:#000000;  stroke-width:0.50pt;" points="486.60,794.62 488.37,800.87 486.60,807.12 484.82,800.87"/>
<polygon fill="#000000" style="stroke:#000000;  stroke-width:0.50pt;" points="521.58,794.62 523.35,800.87 521.58,807.12 519.81,800.87"/>
<line x1="13.78cm" y1="22.60cm" x2="14.67cm" y2="22.60cm" style="stroke:#000000; stroke-width:0.50pt;"/>
<polygon fill="#ffffff" style="stroke:#000000;  stroke-width:0.50pt;" points="486.60,816.50 488.37,822.75 486.60,829.00 484.82,822.75"/>
<polygon fill="#000000" style="stroke:#000000;  stroke-width:0.50pt;" points="516.75,816.50 518.52,822.75 516.75,829.00 514.98,822.75"/>
<line x1="13.78cm" y1="23.22cm" x2="14.53cm" y2="23.22cm" style="stroke:#000000; stroke-width:0.50pt;"/>
<polygon fill="#ffffff" style="stroke:#000000;  stroke-width:0.50pt;" points="486.60,838.37 488.37,844.62 486.60,850.87 484.82,844.62"/>
<polygon fill="#000000" style="stroke:#000000;  stroke-width:0.50pt;" points="521.58,838.37 523.35,844.62 521.58,850.87 519.81,844.62"/>
<line x1="13.78cm" y1="23.84cm" x2="14.67cm" y2="23.84cm" style="stroke:#000000; stroke-width:0.50pt;"/>
<polygon fill="#ffffff" style="stroke:#000000;  stroke-width:0.50pt;" points="487.20,860.25 488.97,866.50 487.20,872.75 485.43,866.50"/>
<polygon fill="#000000" style="stroke:#000000;  stroke-width:0.50pt;" points="515.55,860.25 517.32,866.50 515.55,872.75 513.77,866.50"/>
<line x1="13.80cm" y1="24.45cm" x2="14.50cm" y2="24.45cm" style="stroke:#000000; stroke-width:0.50pt;"/>
<polygon fill="#ffffff" style="stroke:#000000;  stroke-width:0.50pt;" points="487.80,882.12 489.57,888.37 487.80,894.62 486.03,888.37"/>
<polygon fill="#000000" style="stroke:#000000;  stroke-width:0.50pt;" points="523.99,882.12 525.76,888.37 523.99,894.62 522.22,888.37"/>
<line x1="13.82cm" y1="25.07cm" x2="14.74cm" y2="25.07cm" style="stroke:#000000; stroke-width:0.50pt;"/>
<text x="7.01cm" y="3.13cm" style="fill:#000000;font-size:14pt; font-family:sans-serif;">Graphique temporel -- Trié par Naissance</text>
<text x="8.22cm" y="3.74cm" style="fill:#000000;font-size:14pt; font-family:sans-serif;">(Toute la base de données)</text>
<text x="6.17cm" y="4.34cm" style="fill:#000000;font-size:14pt; font-family:sans-serif;">(Individus vivants : Inclus, avec toutes les données)</text>
<text x="9.68cm" y="5.14cm" style="fill:#000000;font-size:8pt; font-family:sans-serif;">1520</text>
<text x="11.38cm" y="5.14cm" style="fill:#000000;font-size:8pt; font-family:sans-serif;">1620</text>
<text x="13.09cm" y="5.14cm" style="fill:#000000;font-size:8pt; font-family:sans-serif;">1720</text>
<text x="14.79cm" y="5.14cm" style="fill:#000000;font-size:8pt; font-family:sans-serif;">1820</text>
<text x="16.49cm" y="5.14cm" style="fill:#000000;font-size:8pt; font-family:sans-serif;">1920</text>
<text x="18.19cm" y="5.14cm" style="fill:#000000;font-size:8pt; font-family:sans-serif;">2020</text>
<text x="3.16cm" y="6.18cm" style="fill:#000000;font-size:10pt; font-family:sans-serif;">MARULIER, Jean Dominiquz</text>
<text x="3.16cm" y="6.80cm" style="fill:#000000;font-size:10pt; font-family:sans-serif;">MICHEL, Anne</text>
<text x="3.16cm" y="7.42cm" style="fill:#000000;font-size:10pt; font-family:sans-serif;">DAVILLERD, Jeanne Francoise</text>
<text x="3.16cm" y="8.03cm" style="fill:#000000;font-size:10pt; font-family:sans-serif;">FOMBARON, Joseph</text>
<text x="3.16cm" y="8.65cm" style="fill:#000000;font-size:10pt; font-family:sans-serif;">MARULIER, Dominique</text>
<text x="3.16cm" y="9.27cm" style="fill:#000000;font-size:10pt; font-family:sans-serif;">MASSON, Anne</text>
<text x="3.16cm" y="9.88cm" style="fill:#000000;font-size:10pt; font-family:sans-serif;">EURIAT, Charles</text>
<text x="3.16cm" y="10.50cm" style="fill:#000000;font-size:10pt; font-family:sans-serif;">DESVOIVRES, Marguerite</text>
<text x="3.16cm" y="11.12cm" style="fill:#000000;font-size:10pt; font-family:sans-serif;">MARULIER, Jean</text>
<text x="3.16cm" y="11.74cm" style="fill:#000000;font-size:10pt; font-family:sans-serif;">MARULIER, Jean-Baptiste</text>
<text x="3.16cm" y="12.35cm" style="fill:#000000;font-size:10pt; font-family:sans-serif;">CHAPELLE, Jean</text>
<text x="3.16cm" y="12.97cm" style="fill:#000000;font-size:10pt; font-family:sans-serif;">THIRIET, Marie</text>
<text x="3.16cm" y="13.59cm" style="fill:#000000;font-size:10pt; font-family:sans-serif;">ANTOINE, Marguerite</text>
<text x="3.16cm" y="14.21cm" style="fill:#000000;font-size:10pt; font-family:sans-serif;">MARULIER, Jeanne Marguerite</text>
<text x="3.16cm" y="14.82cm" style="fill:#000000;font-size:10pt; font-family:sans-serif;">RUAUX, Jean Dominique</text>
<text x="3.16cm" y="15.44cm" style="fill:#000000;font-size:10pt; font-family:sans-serif;">BERNARD, Joseph</text>
<text x="3.16cm" y="16.06cm" style="fill:#000000;font-size:10pt; font-family:sans-serif;">TOUSSAINT, Jeanne Catherine</text>
<text x="3.16cm" y="16.68cm" style="fill:#000000;font-size:10pt; font-family:sans-serif;">RUAUX, Jean-François</text>
<text x="3.16cm" y="17.29cm" style="fill:#000000;font-size:10pt; font-family:sans-serif;">MARULIER, Dominique Barthelemy</text>
<text x="3.16cm" y="17.91cm" style="fill:#000000;font-size:10pt; font-family:sans-serif;">VARREINE, Anne</text>
<text x="3.16cm" y="18.53cm" style="fill:#000000;font-size:10pt; font-family:sans-serif;">BARTHELEMY, Marie Anne</text>
<text x="3.16cm" y="19.15cm" style="fill:#000000;font-size:10pt; font-family:sans-serif;">DANDELOT, Catherine</text>
<text x="3.16cm" y="19.76cm" style="fill:#000000;font-size:10pt; font-family:sans-serif;">POTHIER, Jean</text>
<text x="3.16cm" y="20.38cm" style="fill:#000000;font-size:10pt; font-family:sans-serif;">BALAUD, Marie Jeanne</text>
<text x="3.16cm" y="21.00cm" style="fill:#000000;font-size:10pt; font-family:sans-serif;">POIROT, François</text>
<text x="3.16cm" y="21.61cm" style="fill:#000000;font-size:10pt; font-family:sans-serif;">POIROT, Joseph</text>
<text x="3.16cm" y="22.23cm" style="fill:#000000;font-size:10pt; font-family:sans-serif;">FOMBARON, Jean Francois</text>
<text x="3.16cm" y="22.85cm" style="fill:#000000;font-size:10pt; font-family:sans-serif;">PETITJEAN, Anne Marie</text>
<text x="3.16cm" y="23.47cm" style="fill:#000000;font-size:10pt; font-family:sans-serif;">TACHET, Joseph</text>
<text x="3.16cm" y="24.08cm" style="fill:#000000;font-size:10pt; font-family:sans-serif;">POIROT, Marie Anne</text>
<text x="3.16cm" y="24.70cm" style="fill:#000000;font-size:10pt; font-family:sans-serif;">MARULIER, Joseph</text>
<text x="3.16cm" y="25.32cm" style="fill:#000000;font-size:10pt; font-family:sans-serif;">JEANDEL, Georges</text>
</svg>
