<?xml version="1.0" encoding="UTF-8" standalone="no"?>
<!DOCTYPE svg PUBLIC "-//W3C//DTD SVG 1.0//EN" "http://www.w3.org/TR/2001/REC-SVG-20010904/DTD/svg10.dtd">
<svg width="21.59cm" height="27.94cm" xmlns="http://www.w3.org/2000/svg">
<rect width="21.59cm" height="27.94cm" style="fill: none;"/>
<line x1="10.04cm" y1="5.14cm" x2="10.04cm" y2="25.40cm" style="stroke:#000000; stroke-dasharray: 2,4; stroke-width:0.50pt;"/>
<line x1="11.74cm" y1="5.14cm" x2="11.74cm" y2="25.40cm" style="stroke:#000000; stroke-dasharray: 2,4; stroke-width:0.50pt;"/>
<line x1="13.44cm" y1="5.14cm" x2="13.44cm" y2="25.40cm" style="stroke:#000000; stroke-dasharray: 2,4; stroke-width:0.50pt;"/>
<line x1="15.15cm" y1="5.14cm" x2="15.15cm" y2="25.40cm" style="stroke:#000000; stroke-dasharray: 2,4; stroke-width:0.50pt;"/>
<line x1="16.85cm" y1="5.14cm" x2="16.85cm" y2="25.40cm" style="stroke:#000000; stroke-dasharray: 2,4; stroke-width:0.50pt;"/>
<line x1="18.55cm" y1="5.14cm" x2="18.55cm" y2="25.40cm" style="stroke:#000000; stroke-dasharray: 2,4; stroke-width:0.50pt;"/>
<polygon fill="#ffffff" style="stroke:#000000;  stroke-width:0.50pt;" points="531.83,204.00 533.60,210.25 531.83,216.50 530.06,210.25"/>
<polygon fill="#ffffff" style="stroke:#000000;  stroke-width:0.50pt;" points="531.83,225.88 533.60,232.13 531.83,238.38 530.06,232.13"/>
<polygon fill="#000000" style="stroke:#000000;  stroke-width:0.50pt;" points="579.48,225.88 581.25,232.13 579.48,238.38 577.71,232.13"/>
<line x1="15.06cm" y1="6.55cm" x2="16.30cm" y2="6.55cm" style="stroke:#000000; stroke-width:0.50pt;"/>
<polygon fill="#ffffff" style="stroke:#000000;  stroke-width:0.50pt;" points="533.04,247.75 534.81,254.00 533.04,260.25 531.27,254.00"/>
<polygon fill="#000000" style="stroke:#000000;  stroke-width:0.50pt;" points="583.70,247.75 585.47,254.00 583.70,260.25 581.93,254.00"/>
<line x1="15.09cm" y1="7.17cm" x2="16.42cm" y2="7.17cm" style="stroke:#000000; stroke-width:0.50pt;"/>
<polygon fill="#ffffff" style="stroke:#000000;  stroke-width:0.50pt;" points="533.04,269.63 534.81,275.88 533.04,282.13 531.27,275.88"/>
<polygon fill="#ffffff" style="stroke:#000000;  stroke-width:0.50pt;" points="533.64,291.50 535.41,297.75 533.64,304.00 531.87,297.75"/>
<polygon fill="#ffffff" style="stroke:#000000;  stroke-width:0.50pt;" points="534.24,313.38 536.01,319.63 534.24,325.88 532.47,319.63"/>
<polygon fill="#000000" style="stroke:#000000;  stroke-width:0.50pt;" points="569.22,313.38 571.00,319.63 569.22,325.88 567.45,319.63"/>
<line x1="15.13cm" y1="9.02cm" x2="16.01cm" y2="9.02cm" style="stroke:#000000; stroke-width:0.50pt;"/>
<polygon fill="#ffffff" style="stroke:#000000;  stroke-width:0.50pt;" points="534.85,335.25 536.62,341.50 534.85,347.75 533.07,341.50"/>
<polygon fill="#ffffff" style="stroke:#000000;  stroke-width:0.50pt;" points="534.85,357.13 536.62,363.37 534.85,369.62 533.07,363.37"/>
<polygon fill="#ffffff" style="stroke:#000000;  stroke-width:0.50pt;" points="535.45,379.00 537.22,385.25 535.45,391.50 533.68,385.25"/>
<polygon fill="#000000" style="stroke:#000000;  stroke-width:0.50pt;" points="560.78,379.00 562.55,385.25 560.78,391.50 559.01,385.25"/>
<line x1="15.16cm" y1="10.87cm" x2="15.78cm" y2="10.87cm" style="stroke:#000000; stroke-width:0.50pt;"/>
<polygon fill="#ffffff" style="stroke:#000000;  stroke-width:0.50pt;" points="535.45,400.87 537.22,407.12 535.45,413.37 533.68,407.12"/>
<polygon fill="#000000" style="stroke:#000000;  stroke-width:0.50pt;" points="580.08,400.87 581.85,407.12 580.08,413.37 578.31,407.12"/>
<line x1="15.16cm" y1="11.49cm" x2="16.32cm" y2="11.49cm" style="stroke:#000000; stroke-width:0.50pt;"/>
<polygon fill="#ffffff" style="stroke:#000000;  stroke-width:0.50pt;" points="535.45,422.75 537.22,429.00 535.45,435.25 533.68,429.00"/>
<polygon fill="#ffffff" style="stroke:#000000;  stroke-width:0.50pt;" points="536.05,444.62 537.82,450.87 536.05,457.12 534.28,450.87"/>
<polygon fill="#000000" style="stroke:#000000;  stroke-width:0.50pt;" points="578.27,444.62 580.04,450.87 578.27,457.12 576.50,450.87"/>
<line x1="15.18cm" y1="12.72cm" x2="16.27cm" y2="12.72cm" style="stroke:#000000; stroke-width:0.50pt;"/>
<polygon fill="#ffffff" style="stroke:#000000;  stroke-width:0.50pt;" points="536.05,466.50 537.82,472.75 536.05,479.00 534.28,472.75"/>
<polygon fill="#000000" style="stroke:#000000;  stroke-width:0.50pt;" points="578.27,466.50 580.04,472.75 578.27,479.00 576.50,472.75"/>
<line x1="15.18cm" y1="13.34cm" x2="16.27cm" y2="13.34cm" style="stroke:#000000; stroke-width:0.50pt;"/>
<polygon fill="#ffffff" style="stroke:#000000;  stroke-width:0.50pt;" points="536.66,488.37 538.43,494.62 536.66,500.87 534.88,494.62"/>
<polygon fill="#000000" style="stroke:#000000;  stroke-width:0.50pt;" points="578.27,488.37 580.04,494.62 578.27,500.87 576.50,494.62"/>
<line x1="15.20cm" y1="13.96cm" x2="16.27cm" y2="13.96cm" style="stroke:#000000; stroke-width:0.50pt;"/>
<polygon fill="#ffffff" style="stroke:#000000;  stroke-width:0.50pt;" points="537.26,510.25 539.03,516.50 537.26,522.75 535.49,516.50"/>
<polygon fill="#000000" style="stroke:#000000;  stroke-width:0.50pt;" points="571.64,510.25 573.41,516.50 571.64,522.75 569.87,516.50"/>
<line x1="15.21cm" y1="14.58cm" x2="16.08cm" y2="14.58cm" style="stroke:#000000; stroke-width:0.50pt;"/>
<polygon fill="#ffffff" style="stroke:#000000;  stroke-width:0.50pt;" points="537.26,532.12 539.03,538.37 537.26,544.62 535.49,538.37"/>
<polygon fill="#ffffff" style="stroke:#000000;  stroke-width:0.50pt;" points="537.86,554.00 539.63,560.25 537.86,566.50 536.09,560.25"/>
<polygon fill="#000000" style="stroke:#000000;  stroke-width:0.50pt;" points="560.78,554.00 562.55,560.25 560.78,566.50 559.01,560.25"/>
<line x1="15.23cm" y1="15.81cm" x2="15.78cm" y2="15.81cm" style="stroke:#000000; stroke-width:0.50pt;"/>
<polygon fill="#ffffff" style="stroke:#000000;  stroke-width:0.50pt;" points="537.86,575.87 539.63,582.12 537.86,588.37 536.09,582.12"/>
<polygon fill="#000000" style="stroke:#000000;  stroke-width:0.50pt;" points="569.83,575.87 571.60,582.12 569.83,588.37 568.06,582.12"/>
<line x1="15.23cm" y1="16.43cm" x2="16.03cm" y2="16.43cm" style="stroke:#000000; stroke-width:0.50pt;"/>
<polygon fill="#ffffff" style="stroke:#000000;  stroke-width:0.50pt;" points="538.46,597.75 540.24,604.00 538.46,610.25 536.69,604.00"/>
<polygon fill="#000000" style="stroke:#000000;  stroke-width:0.50pt;" points="583.70,597.75 585.47,604.00 583.70,610.25 581.93,604.00"/>
<line x1="15.25cm" y1="17.05cm" x2="16.42cm" y2="17.05cm" style="stroke:#000000; stroke-width:0.50pt;"/>
<polygon fill="#ffffff" style="stroke:#000000;  stroke-width:0.50pt;" points="539.07,619.62 540.84,625.87 539.07,632.12 537.30,625.87"/>
<polygon fill="#000000" style="stroke:#000000;  stroke-width:0.50pt;" points="572.24,619.62 574.01,625.87 572.24,632.12 570.47,625.87"/>
<line x1="15.26cm" y1="17.66cm" x2="16.10cm" y2="17.66cm" style="stroke:#000000; stroke-width:0.50pt;"/>
<polygon fill="#ffffff" style="stroke:#000000;  stroke-width:0.50pt;" points="539.07,641.50 540.84,647.75 539.07,654.00 537.30,647.75"/>
<polygon fill="#ffffff" style="stroke:#000000;  stroke-width:0.50pt;" points="539.07,663.37 540.84,669.62 539.07,675.87 537.30,669.62"/>
<polygon fill="#ffffff" style="stroke:#000000;  stroke-width:0.50pt;" points="539.67,685.25 541.44,691.50 539.67,697.75 537.90,691.50"/>
<polygon fill="#ffffff" style="stroke:#000000;  stroke-width:0.50pt;" points="540.88,707.12 542.65,713.37 540.88,719.62 539.11,713.37"/>
<polygon fill="#000000" style="stroke:#000000;  stroke-width:0.50pt;" points="580.68,707.12 582.46,713.37 580.68,719.62 578.91,713.37"/>
<line x1="15.31cm" y1="20.13cm" x2="16.34cm" y2="20.13cm" style="stroke:#000000; stroke-width:0.50pt;"/>
<polygon fill="#ffffff" style="stroke:#000000;  stroke-width:0.50pt;" points="542.08,729.00 543.86,735.25 542.08,741.50 540.31,735.25"/>
<polygon fill="#000000" style="stroke:#000000;  stroke-width:0.50pt;" points="586.11,729.00 587.88,735.25 586.11,741.50 584.34,735.25"/>
<line x1="15.35cm" y1="20.75cm" x2="16.49cm" y2="20.75cm" style="stroke:#000000; stroke-width:0.50pt;"/>
<polygon fill="#ffffff" style="stroke:#000000;  stroke-width:0.50pt;" points="542.08,750.87 543.86,757.12 542.08,763.37 540.31,757.12"/>
<polygon fill="#ffffff" style="stroke:#000000;  stroke-width:0.50pt;" points="542.08,772.75 543.86,779.00 542.08,785.25 540.31,779.00"/>
<polygon fill="#000000" style="stroke:#000000;  stroke-width:0.50pt;" points="590.33,772.75 592.11,779.00 590.33,785.25 588.56,779.00"/>
<line x1="15.35cm" y1="21.99cm" x2="16.61cm" y2="21.99cm" style="stroke:#000000; stroke-width:0.50pt;"/>
<polygon fill="#ffffff" style="stroke:#000000;  stroke-width:0.50pt;" points="542.69,794.62 544.46,800.87 542.69,807.12 540.92,800.87"/>
<polygon fill="#ffffff" style="stroke:#000000;  stroke-width:0.50pt;" points="543.89,816.50 545.66,822.75 543.89,829.00 542.12,822.75"/>
<polygon fill="#ffffff" style="stroke:#000000;  stroke-width:0.50pt;" points="545.10,838.37 546.87,844.62 545.10,850.87 543.33,844.62"/>
<polygon fill="#ffffff" style="stroke:#000000;  stroke-width:0.50pt;" points="545.10,860.25 546.87,866.50 545.10,872.75 543.33,866.50"/>
<polygon fill="#ffffff" style="stroke:#000000;  stroke-width:0.50pt;" points="545.70,882.12 547.47,888.37 545.70,894.62 543.93,888.37"/>
<text x="7.01cm" y="3.13cm" style="fill:#000000;font-size:14pt; font-family:sans-serif;">Graphique temporel -- Trié par Naissance</text>
<text x="8.22cm" y="3.74cm" style="fill:#000000;font-size:14pt; font-family:sans-serif;">(Toute la base de données)</text>
<text x="6.17cm" y="4.34cm" style="fill:#000000;font-size:14pt; font-family:sans-serif;">(Individus vivants : Inclus, avec toutes les données)</text>
<text x="9.68cm" y="5.14cm" style="fill:#000000;font-size:8pt; font-family:sans-serif;">1520</text>
<text x="11.38cm" y="5.14cm" style="fill:#000000;font-size:8pt; font-family:sans-serif;">1620</text>
<text x="13.09cm" y="5.14cm" style="fill:#000000;font-size:8pt; font-family:sans-serif;">1720</text>
<text x="14.79cm" y="5.14cm" style="fill:#000000;font-size:8pt; font-family:sans-serif;">1820</text>
<text x="16.49cm" y="5.14cm" style="fill:#000000;font-size:8pt; font-family:sans-serif;">1920</text>
<text x="18.19cm" y="5.14cm" style="fill:#000000;font-size:8pt; font-family:sans-serif;">2020</text>
<text x="3.16cm" y="6.18cm" style="fill:#000000;font-size:10pt; font-family:sans-serif;">POTHIER, Nicolas</text>
<text x="3.16cm" y="6.80cm" style="fill:#000000;font-size:10pt; font-family:sans-serif;">JEANPIERRE, Jean Claude</text>
<text x="3.16cm" y="7.42cm" style="fill:#000000;font-size:10pt; font-family:sans-serif;">BALAUD, Joseph</text>
<text x="3.16cm" y="8.03cm" style="fill:#000000;font-size:10pt; font-family:sans-serif;">BERRY, Jean Francois</text>
<text x="3.16cm" y="8.65cm" style="fill:#000000;font-size:10pt; font-family:sans-serif;">CHAPELLE, Julie</text>
<text x="3.16cm" y="9.27cm" style="fill:#000000;font-size:10pt; font-family:sans-serif;">BERNARD, Francois</text>
<text x="3.16cm" y="9.88cm" style="fill:#000000;font-size:10pt; font-family:sans-serif;">BAILLY, Rose Félicité</text>
<text x="3.16cm" y="10.50cm" style="fill:#000000;font-size:10pt; font-family:sans-serif;">COSSERAT, Charles Francois</text>
<text x="3.16cm" y="11.12cm" style="fill:#000000;font-size:10pt; font-family:sans-serif;">CHAPELLE, Marie Adelaide</text>
<text x="3.16cm" y="11.74cm" style="fill:#000000;font-size:10pt; font-family:sans-serif;">FOMBARON, Catherine</text>
<text x="3.16cm" y="12.35cm" style="fill:#000000;font-size:10pt; font-family:sans-serif;">MARULIER, Francois Hyacinthe</text>
<text x="3.16cm" y="12.97cm" style="fill:#000000;font-size:10pt; font-family:sans-serif;">BERNARD, Marie-Thérése</text>
<text x="3.16cm" y="13.59cm" style="fill:#000000;font-size:10pt; font-family:sans-serif;">POIROT, Joseph</text>
<text x="3.16cm" y="14.21cm" style="fill:#000000;font-size:10pt; font-family:sans-serif;">THOUVENOT, Victor</text>
<text x="3.16cm" y="14.82cm" style="fill:#000000;font-size:10pt; font-family:sans-serif;">POIROT, Isidore</text>
<text x="3.16cm" y="15.44cm" style="fill:#000000;font-size:10pt; font-family:sans-serif;">LAHAYE, Marie Reine</text>
<text x="3.16cm" y="16.06cm" style="fill:#000000;font-size:10pt; font-family:sans-serif;">VARROY, Charles Hilaire</text>
<text x="3.16cm" y="16.68cm" style="fill:#000000;font-size:10pt; font-family:sans-serif;">RUAUX, Elisabeth</text>
<text x="3.16cm" y="17.29cm" style="fill:#000000;font-size:10pt; font-family:sans-serif;">VIARD, Augustine</text>
<text x="3.16cm" y="17.91cm" style="fill:#000000;font-size:10pt; font-family:sans-serif;">LHUILLIER, Marie Catherine</text>
<text x="3.16cm" y="18.53cm" style="fill:#000000;font-size:10pt; font-family:sans-serif;">CHAPELLE, Rosalie</text>
<text x="3.16cm" y="19.15cm" style="fill:#000000;font-size:10pt; font-family:sans-serif;">POTHIER, Francois Victor</text>
<text x="3.16cm" y="19.76cm" style="fill:#000000;font-size:10pt; font-family:sans-serif;">ANTOINE, Agathe</text>
<text x="3.16cm" y="20.38cm" style="fill:#000000;font-size:10pt; font-family:sans-serif;">MICARD, Marie Octavie</text>
<text x="3.16cm" y="21.00cm" style="fill:#000000;font-size:10pt; font-family:sans-serif;">BERNARD, Anne Rosalie</text>
<text x="3.16cm" y="21.61cm" style="fill:#000000;font-size:10pt; font-family:sans-serif;">LAVAL, Marguerite</text>
<text x="3.16cm" y="22.23cm" style="fill:#000000;font-size:10pt; font-family:sans-serif;">RUAUX, Joseph</text>
<text x="3.16cm" y="22.85cm" style="fill:#000000;font-size:10pt; font-family:sans-serif;">GUILLEREZ, Francois</text>
<text x="3.16cm" y="23.47cm" style="fill:#000000;font-size:10pt; font-family:sans-serif;">GAUDE, Jean Nicolas</text>
<text x="3.16cm" y="24.08cm" style="fill:#000000;font-size:10pt; font-family:sans-serif;">JACQUOT, Jean Baptiste</text>
<text x="3.16cm" y="24.70cm" style="fill:#000000;font-size:10pt; font-family:sans-serif;">POIROT, Lucien</text>
<text x="3.16cm" y="25.32cm" style="fill:#000000;font-size:10pt; font-family:sans-serif;">GUILLEREZ, Apolline</text>
</svg>
