<?xml version="1.0" encoding="UTF-8" standalone="no"?>
<!DOCTYPE svg PUBLIC "-//W3C//DTD SVG 1.0//EN" "http://www.w3.org/TR/2001/REC-SVG-20010904/DTD/svg10.dtd">
<svg width="21.59cm" height="27.94cm" xmlns="http://www.w3.org/2000/svg">
<rect width="21.59cm" height="27.94cm" style="fill: none;"/>
<line x1="10.04cm" y1="5.14cm" x2="10.04cm" y2="25.40cm" style="stroke:#000000; stroke-dasharray: 2,4; stroke-width:0.50pt;"/>
<line x1="11.74cm" y1="5.14cm" x2="11.74cm" y2="25.40cm" style="stroke:#000000; stroke-dasharray: 2,4; stroke-width:0.50pt;"/>
<line x1="13.44cm" y1="5.14cm" x2="13.44cm" y2="25.40cm" style="stroke:#000000; stroke-dasharray: 2,4; stroke-width:0.50pt;"/>
<line x1="15.15cm" y1="5.14cm" x2="15.15cm" y2="25.40cm" style="stroke:#000000; stroke-dasharray: 2,4; stroke-width:0.50pt;"/>
<line x1="16.85cm" y1="5.14cm" x2="16.85cm" y2="25.40cm" style="stroke:#000000; stroke-dasharray: 2,4; stroke-width:0.50pt;"/>
<line x1="18.55cm" y1="5.14cm" x2="18.55cm" y2="25.40cm" style="stroke:#000000; stroke-dasharray: 2,4; stroke-width:0.50pt;"/>
<polygon fill="#ffffff" style="stroke:#000000;  stroke-width:0.50pt;" points="584.91,204.00 586.68,210.25 584.91,216.50 583.13,210.25"/>
<polygon fill="#000000" style="stroke:#000000;  stroke-width:0.50pt;" points="637.98,204.00 639.75,210.25 637.98,216.50 636.21,210.25"/>
<line x1="16.56cm" y1="5.93cm" x2="17.96cm" y2="5.93cm" style="stroke:#000000; stroke-width:0.50pt;"/>
<polygon fill="#ffffff" style="stroke:#000000;  stroke-width:0.50pt;" points="584.91,225.88 586.68,232.13 584.91,238.38 583.13,232.13"/>
<polygon fill="#000000" style="stroke:#000000;  stroke-width:0.50pt;" points="633.16,225.88 634.93,232.13 633.16,238.38 631.39,232.13"/>
<line x1="16.56cm" y1="6.55cm" x2="17.82cm" y2="6.55cm" style="stroke:#000000; stroke-width:0.50pt;"/>
<polygon fill="#ffffff" style="stroke:#000000;  stroke-width:0.50pt;" points="584.91,247.75 586.68,254.00 584.91,260.25 583.13,254.00"/>
<polygon fill="#000000" style="stroke:#000000;  stroke-width:0.50pt;" points="603.60,247.75 605.37,254.00 603.60,260.25 601.83,254.00"/>
<line x1="16.56cm" y1="7.17cm" x2="16.99cm" y2="7.17cm" style="stroke:#000000; stroke-width:0.50pt;"/>
<polygon fill="#ffffff" style="stroke:#000000;  stroke-width:0.50pt;" points="586.72,269.63 588.49,275.88 586.72,282.13 584.94,275.88"/>
<polygon fill="#000000" style="stroke:#000000;  stroke-width:0.50pt;" points="630.14,269.63 631.91,275.88 630.14,282.13 628.37,275.88"/>
<line x1="16.61cm" y1="7.79cm" x2="17.73cm" y2="7.79cm" style="stroke:#000000; stroke-width:0.50pt;"/>
<polygon fill="#ffffff" style="stroke:#000000;  stroke-width:0.50pt;" points="586.72,291.50 588.49,297.75 586.72,304.00 584.94,297.75"/>
<polygon fill="#000000" style="stroke:#000000;  stroke-width:0.50pt;" points="636.17,291.50 637.94,297.75 636.17,304.00 634.40,297.75"/>
<line x1="16.61cm" y1="8.40cm" x2="17.90cm" y2="8.40cm" style="stroke:#000000; stroke-width:0.50pt;"/>
<polygon fill="#ffffff" style="stroke:#000000;  stroke-width:0.50pt;" points="586.72,313.38 588.49,319.63 586.72,325.88 584.94,319.63"/>
<polygon fill="#000000" style="stroke:#000000;  stroke-width:0.50pt;" points="639.79,313.38 641.56,319.63 639.79,325.88 638.02,319.63"/>
<line x1="16.61cm" y1="9.02cm" x2="18.01cm" y2="9.02cm" style="stroke:#000000; stroke-width:0.50pt;"/>
<polygon fill="#ffffff" style="stroke:#000000;  stroke-width:0.50pt;" points="587.32,335.25 589.09,341.50 587.32,347.75 585.55,341.50"/>
<polygon fill="#000000" style="stroke:#000000;  stroke-width:0.50pt;" points="641.00,335.25 642.77,341.50 641.00,347.75 639.23,341.50"/>
<line x1="16.63cm" y1="9.64cm" x2="18.04cm" y2="9.64cm" style="stroke:#000000; stroke-width:0.50pt;"/>
<polygon fill="#ffffff" style="stroke:#000000;  stroke-width:0.50pt;" points="588.52,357.13 590.30,363.37 588.52,369.62 586.75,363.37"/>
<polygon fill="#000000" style="stroke:#000000;  stroke-width:0.50pt;" points="629.54,357.13 631.31,363.37 629.54,369.62 627.77,363.37"/>
<line x1="16.66cm" y1="10.26cm" x2="17.72cm" y2="10.26cm" style="stroke:#000000; stroke-width:0.50pt;"/>
<polygon fill="#ffffff" style="stroke:#000000;  stroke-width:0.50pt;" points="588.52,379.00 590.30,385.25 588.52,391.50 586.75,385.25"/>
<polygon fill="#000000" style="stroke:#000000;  stroke-width:0.50pt;" points="636.78,379.00 638.55,385.25 636.78,391.50 635.00,385.25"/>
<line x1="16.66cm" y1="10.87cm" x2="17.92cm" y2="10.87cm" style="stroke:#000000; stroke-width:0.50pt;"/>
<polygon fill="#ffffff" style="stroke:#000000;  stroke-width:0.50pt;" points="589.73,400.87 591.50,407.12 589.73,413.37 587.96,407.12"/>
<polygon fill="#ffffff" style="stroke:#000000;  stroke-width:0.50pt;" points="590.33,422.75 592.11,429.00 590.33,435.25 588.56,429.00"/>
<polygon fill="#ffffff" style="stroke:#000000;  stroke-width:0.50pt;" points="590.33,444.62 592.11,450.87 590.33,457.12 588.56,450.87"/>
<polygon fill="#000000" style="stroke:#000000;  stroke-width:0.50pt;" points="633.16,444.62 634.93,450.87 633.16,457.12 631.39,450.87"/>
<line x1="16.71cm" y1="12.72cm" x2="17.82cm" y2="12.72cm" style="stroke:#000000; stroke-width:0.50pt;"/>
<polygon fill="#ffffff" style="stroke:#000000;  stroke-width:0.50pt;" points="590.33,466.50 592.11,472.75 590.33,479.00 588.56,472.75"/>
<polygon fill="#000000" style="stroke:#000000;  stroke-width:0.50pt;" points="639.79,466.50 641.56,472.75 639.79,479.00 638.02,472.75"/>
<line x1="16.71cm" y1="13.34cm" x2="18.01cm" y2="13.34cm" style="stroke:#000000; stroke-width:0.50pt;"/>
<polygon fill="#ffffff" style="stroke:#000000;  stroke-width:0.50pt;" points="590.33,488.37 592.11,494.62 590.33,500.87 588.56,494.62"/>
<polygon fill="#000000" style="stroke:#000000;  stroke-width:0.50pt;" points="636.17,488.37 637.94,494.62 636.17,500.87 634.40,494.62"/>
<line x1="16.71cm" y1="13.96cm" x2="17.90cm" y2="13.96cm" style="stroke:#000000; stroke-width:0.50pt;"/>
<polygon fill="#ffffff" style="stroke:#000000;  stroke-width:0.50pt;" points="590.33,510.25 592.11,516.50 590.33,522.75 588.56,516.50"/>
<polygon fill="#000000" style="stroke:#000000;  stroke-width:0.50pt;" points="647.03,510.25 648.80,516.50 647.03,522.75 645.26,516.50"/>
<line x1="16.71cm" y1="14.58cm" x2="18.21cm" y2="14.58cm" style="stroke:#000000; stroke-width:0.50pt;"/>
<polygon fill="#ffffff" style="stroke:#000000;  stroke-width:0.50pt;" points="590.94,532.12 592.71,538.37 590.94,544.62 589.17,538.37"/>
<polygon fill="#000000" style="stroke:#000000;  stroke-width:0.50pt;" points="633.16,532.12 634.93,538.37 633.16,544.62 631.39,538.37"/>
<line x1="16.73cm" y1="15.19cm" x2="17.82cm" y2="15.19cm" style="stroke:#000000; stroke-width:0.50pt;"/>
<polygon fill="#ffffff" style="stroke:#000000;  stroke-width:0.50pt;" points="590.94,554.00 592.71,560.25 590.94,566.50 589.17,560.25"/>
<polygon fill="#000000" style="stroke:#000000;  stroke-width:0.50pt;" points="641.00,554.00 642.77,560.25 641.00,566.50 639.23,560.25"/>
<line x1="16.73cm" y1="15.81cm" x2="18.04cm" y2="15.81cm" style="stroke:#000000; stroke-width:0.50pt;"/>
<polygon fill="#ffffff" style="stroke:#000000;  stroke-width:0.50pt;" points="591.54,575.87 593.31,582.12 591.54,588.37 589.77,582.12"/>
<polygon fill="#000000" style="stroke:#000000;  stroke-width:0.50pt;" points="636.78,575.87 638.55,582.12 636.78,588.37 635.00,582.12"/>
<line x1="16.74cm" y1="16.43cm" x2="17.92cm" y2="16.43cm" style="stroke:#000000; stroke-width:0.50pt;"/>
<polygon fill="#ffffff" style="stroke:#000000;  stroke-width:0.50pt;" points="591.54,597.75 593.31,604.00 591.54,610.25 589.77,604.00"/>
<polygon fill="#ffffff" style="stroke:#000000;  stroke-width:0.50pt;" points="592.75,619.62 594.52,625.87 592.75,632.12 590.98,625.87"/>
<polygon fill="#000000" style="stroke:#000000;  stroke-width:0.50pt;" points="654.87,619.62 656.64,625.87 654.87,632.12 653.10,625.87"/>
<line x1="16.78cm" y1="17.66cm" x2="18.43cm" y2="17.66cm" style="stroke:#000000; stroke-width:0.50pt;"/>
<polygon fill="#ffffff" style="stroke:#000000;  stroke-width:0.50pt;" points="593.35,641.50 595.12,647.75 593.35,654.00 591.58,647.75"/>
<polygon fill="#ffffff" style="stroke:#000000;  stroke-width:0.50pt;" points="593.35,663.37 595.12,669.62 593.35,675.87 591.58,669.62"/>
<polygon fill="#000000" style="stroke:#000000;  stroke-width:0.50pt;" points="628.93,663.37 630.71,669.62 628.93,675.87 627.16,669.62"/>
<line x1="16.80cm" y1="18.90cm" x2="17.70cm" y2="18.90cm" style="stroke:#000000; stroke-width:0.50pt;"/>
<polygon fill="#ffffff" style="stroke:#000000;  stroke-width:0.50pt;" points="593.95,685.25 595.72,691.50 593.95,697.75 592.18,691.50"/>
<polygon fill="#000000" style="stroke:#000000;  stroke-width:0.50pt;" points="615.67,685.25 617.44,691.50 615.67,697.75 613.89,691.50"/>
<line x1="16.81cm" y1="19.52cm" x2="17.33cm" y2="19.52cm" style="stroke:#000000; stroke-width:0.50pt;"/>
<polygon fill="#ffffff" style="stroke:#000000;  stroke-width:0.50pt;" points="595.76,707.12 597.53,713.37 595.76,719.62 593.99,713.37"/>
<polygon fill="#000000" style="stroke:#000000;  stroke-width:0.50pt;" points="628.33,707.12 630.10,713.37 628.33,719.62 626.56,713.37"/>
<line x1="16.86cm" y1="20.13cm" x2="17.68cm" y2="20.13cm" style="stroke:#000000; stroke-width:0.50pt;"/>
<polygon fill="#ffffff" style="stroke:#000000;  stroke-width:0.50pt;" points="596.97,729.00 598.74,735.25 596.97,741.50 595.20,735.25"/>
<polygon fill="#ffffff" style="stroke:#000000;  stroke-width:0.50pt;" points="598.18,750.87 599.95,757.12 598.18,763.37 596.40,757.12"/>
<polygon fill="#000000" style="stroke:#000000;  stroke-width:0.50pt;" points="611.44,750.87 613.22,757.12 611.44,763.37 609.67,757.12"/>
<line x1="16.93cm" y1="21.37cm" x2="17.21cm" y2="21.37cm" style="stroke:#000000; stroke-width:0.50pt;"/>
<polygon fill="#ffffff" style="stroke:#000000;  stroke-width:0.50pt;" points="598.18,772.75 599.95,779.00 598.18,785.25 596.40,779.00"/>
<polygon fill="#000000" style="stroke:#000000;  stroke-width:0.50pt;" points="648.84,772.75 650.61,779.00 648.84,785.25 647.07,779.00"/>
<line x1="16.93cm" y1="21.99cm" x2="18.26cm" y2="21.99cm" style="stroke:#000000; stroke-width:0.50pt;"/>
<polygon fill="#ffffff" style="stroke:#000000;  stroke-width:0.50pt;" points="598.78,794.62 600.55,800.87 598.78,807.12 597.01,800.87"/>
<polygon fill="#000000" style="stroke:#000000;  stroke-width:0.50pt;" points="652.46,794.62 654.23,800.87 652.46,807.12 650.69,800.87"/>
<line x1="16.95cm" y1="22.60cm" x2="18.36cm" y2="22.60cm" style="stroke:#000000; stroke-width:0.50pt;"/>
<polygon fill="#ffffff" style="stroke:#000000;  stroke-width:0.50pt;" points="598.78,816.50 600.55,822.75 598.78,829.00 597.01,822.75"/>
<polygon fill="#000000" style="stroke:#000000;  stroke-width:0.50pt;" points="636.78,816.50 638.55,822.75 636.78,829.00 635.00,822.75"/>
<line x1="16.95cm" y1="23.22cm" x2="17.92cm" y2="23.22cm" style="stroke:#000000; stroke-width:0.50pt;"/>
<polygon fill="#ffffff" style="stroke:#000000;  stroke-width:0.50pt;" points="600.59,838.37 602.36,844.62 600.59,850.87 598.82,844.62"/>
<polygon fill="#000000" style="stroke:#000000;  stroke-width:0.50pt;" points="651.25,838.37 653.02,844.62 651.25,850.87 649.48,844.62"/>
<line x1="17.00cm" y1="23.84cm" x2="18.33cm" y2="23.84cm" style="stroke:#000000; stroke-width:0.50pt;"/>
<polygon fill="#ffffff" style="stroke:#000000;  stroke-width:0.50pt;" points="603.00,860.25 604.77,866.50 603.00,872.75 601.23,866.50"/>
<polygon fill="#000000" style="stroke:#000000;  stroke-width:0.50pt;" points="653.66,860.25 655.43,866.50 653.66,872.75 651.89,866.50"/>
<line x1="17.07cm" y1="24.45cm" x2="18.40cm" y2="24.45cm" style="stroke:#000000; stroke-width:0.50pt;"/>
<polygon fill="#ffffff" style="stroke:#000000;  stroke-width:0.50pt;" points="603.00,882.12 604.77,888.37 603.00,894.62 601.23,888.37"/>
<polygon fill="#000000" style="stroke:#000000;  stroke-width:0.50pt;" points="634.97,882.12 636.74,888.37 634.97,894.62 633.19,888.37"/>
<line x1="17.07cm" y1="25.07cm" x2="17.87cm" y2="25.07cm" style="stroke:#000000; stroke-width:0.50pt;"/>
<text x="7.01cm" y="3.13cm" style="fill:#000000;font-size:14pt; font-family:sans-serif;">Graphique temporel -- Trié par Naissance</text>
<text x="8.22cm" y="3.74cm" style="fill:#000000;font-size:14pt; font-family:sans-serif;">(Toute la base de données)</text>
<text x="6.17cm" y="4.34cm" style="fill:#000000;font-size:14pt; font-family:sans-serif;">(Individus vivants : Inclus, avec toutes les données)</text>
<text x="9.68cm" y="5.14cm" style="fill:#000000;font-size:8pt; font-family:sans-serif;">1520</text>
<text x="11.38cm" y="5.14cm" style="fill:#000000;font-size:8pt; font-family:sans-serif;">1620</text>
<text x="13.09cm" y="5.14cm" style="fill:#000000;font-size:8pt; font-family:sans-serif;">1720</text>
<text x="14.79cm" y="5.14cm" style="fill:#000000;font-size:8pt; font-family:sans-serif;">1820</text>
<text x="16.49cm" y="5.14cm" style="fill:#000000;font-size:8pt; font-family:sans-serif;">1920</text>
<text x="18.19cm" y="5.14cm" style="fill:#000000;font-size:8pt; font-family:sans-serif;">2020</text>
<text x="3.16cm" y="6.18cm" style="fill:#000000;font-size:10pt; font-family:sans-serif;">POTHIER, Marie Mathilde Juliette</text>
<text x="3.16cm" y="6.80cm" style="fill:#000000;font-size:10pt; font-family:sans-serif;">RUAUX, Claire</text>
<text x="3.16cm" y="7.42cm" style="fill:#000000;font-size:10pt; font-family:sans-serif;">GAUDE, Marie Camille</text>
<text x="3.16cm" y="8.03cm" style="fill:#000000;font-size:10pt; font-family:sans-serif;">JACQUOT, Gabriel</text>
<text x="3.16cm" y="8.65cm" style="fill:#000000;font-size:10pt; font-family:sans-serif;">POTHIER, Marie Renée</text>
<text x="3.16cm" y="9.27cm" style="fill:#000000;font-size:10pt; font-family:sans-serif;">RUAUX, René</text>
<text x="3.16cm" y="9.88cm" style="fill:#000000;font-size:10pt; font-family:sans-serif;">BERRY, Georges Ernest</text>
<text x="3.16cm" y="10.50cm" style="fill:#000000;font-size:10pt; font-family:sans-serif;">JACQUOT, Germaine</text>
<text x="3.16cm" y="11.12cm" style="fill:#000000;font-size:10pt; font-family:sans-serif;">BERRY, Léon Eugène</text>
<text x="3.16cm" y="11.74cm" style="fill:#000000;font-size:10pt; font-family:sans-serif;">MARULIER, Marcel</text>
<text x="3.16cm" y="12.35cm" style="fill:#000000;font-size:10pt; font-family:sans-serif;">GEGONNE, Robert</text>
<text x="3.16cm" y="12.97cm" style="fill:#000000;font-size:10pt; font-family:sans-serif;">LOUIS, Berthe</text>
<text x="3.16cm" y="13.59cm" style="fill:#000000;font-size:10pt; font-family:sans-serif;">BERRY, Andre-Francois</text>
<text x="3.16cm" y="14.21cm" style="fill:#000000;font-size:10pt; font-family:sans-serif;">ETIENNE, Marthe</text>
<text x="3.16cm" y="14.82cm" style="fill:#000000;font-size:10pt; font-family:sans-serif;">MANGIN, Maurice</text>
<text x="3.16cm" y="15.44cm" style="fill:#000000;font-size:10pt; font-family:sans-serif;">RUAUX, Pol</text>
<text x="3.16cm" y="16.06cm" style="fill:#000000;font-size:10pt; font-family:sans-serif;">RUAUX, Albert</text>
<text x="3.16cm" y="16.68cm" style="fill:#000000;font-size:10pt; font-family:sans-serif;">COMTE, Marie Paulette</text>
<text x="3.16cm" y="17.29cm" style="fill:#000000;font-size:10pt; font-family:sans-serif;">MARULIER, Paule</text>
<text x="3.16cm" y="17.91cm" style="fill:#000000;font-size:10pt; font-family:sans-serif;">MARULIER, Gabriel</text>
<text x="3.16cm" y="18.53cm" style="fill:#000000;font-size:10pt; font-family:sans-serif;">POTHIER, André</text>
<text x="3.16cm" y="19.15cm" style="fill:#000000;font-size:10pt; font-family:sans-serif;">DEMARD, Léon</text>
<text x="3.16cm" y="19.76cm" style="fill:#000000;font-size:10pt; font-family:sans-serif;">POTHIER, Marcelle</text>
<text x="3.16cm" y="20.38cm" style="fill:#000000;font-size:10pt; font-family:sans-serif;">RUAUX, Jean Marcel</text>
<text x="3.16cm" y="21.00cm" style="fill:#000000;font-size:10pt; font-family:sans-serif;">MARULIER, Albert</text>
<text x="3.16cm" y="21.61cm" style="fill:#000000;font-size:10pt; font-family:sans-serif;">MARULIER, Jean</text>
<text x="3.16cm" y="22.23cm" style="fill:#000000;font-size:10pt; font-family:sans-serif;">POTHIER, Paulette</text>
<text x="3.16cm" y="22.85cm" style="fill:#000000;font-size:10pt; font-family:sans-serif;">RUAUX, Jean-marie</text>
<text x="3.16cm" y="23.47cm" style="fill:#000000;font-size:10pt; font-family:sans-serif;">MARULIER, Louis</text>
<text x="3.16cm" y="24.08cm" style="fill:#000000;font-size:10pt; font-family:sans-serif;">POTHIER, René Marcel</text>
<text x="3.16cm" y="24.70cm" style="fill:#000000;font-size:10pt; font-family:sans-serif;">CUNIN, Pierre</text>
<text x="3.16cm" y="25.32cm" style="fill:#000000;font-size:10pt; font-family:sans-serif;">BONTEMPS, Odette</text>
</svg>
