<?xml version="1.0" encoding="UTF-8" standalone="no"?>
<!DOCTYPE svg PUBLIC "-//W3C//DTD SVG 1.0//EN" "http://www.w3.org/TR/2001/REC-SVG-20010904/DTD/svg10.dtd">
<svg width="21.59cm" height="27.94cm" xmlns="http://www.w3.org/2000/svg">
<rect width="21.59cm" height="27.94cm" style="fill: none;"/>
<line x1="10.04cm" y1="5.14cm" x2="10.04cm" y2="25.40cm" style="stroke:#000000; stroke-dasharray: 2,4; stroke-width:0.50pt;"/>
<line x1="11.74cm" y1="5.14cm" x2="11.74cm" y2="25.40cm" style="stroke:#000000; stroke-dasharray: 2,4; stroke-width:0.50pt;"/>
<line x1="13.44cm" y1="5.14cm" x2="13.44cm" y2="25.40cm" style="stroke:#000000; stroke-dasharray: 2,4; stroke-width:0.50pt;"/>
<line x1="15.15cm" y1="5.14cm" x2="15.15cm" y2="25.40cm" style="stroke:#000000; stroke-dasharray: 2,4; stroke-width:0.50pt;"/>
<line x1="16.85cm" y1="5.14cm" x2="16.85cm" y2="25.40cm" style="stroke:#000000; stroke-dasharray: 2,4; stroke-width:0.50pt;"/>
<line x1="18.55cm" y1="5.14cm" x2="18.55cm" y2="25.40cm" style="stroke:#000000; stroke-dasharray: 2,4; stroke-width:0.50pt;"/>
<polygon fill="#ffffff" style="stroke:#000000;  stroke-width:0.50pt;" points="447.39,204.00 449.16,210.25 447.39,216.50 445.62,210.25"/>
<polygon fill="#000000" style="stroke:#000000;  stroke-width:0.50pt;" points="504.69,204.00 506.46,210.25 504.69,216.50 502.92,210.25"/>
<line x1="12.68cm" y1="5.93cm" x2="14.19cm" y2="5.93cm" style="stroke:#000000; stroke-width:0.50pt;"/>
<polygon fill="#ffffff" style="stroke:#000000;  stroke-width:0.50pt;" points="447.39,225.88 449.16,232.13 447.39,238.38 445.62,232.13"/>
<polygon fill="#ffffff" style="stroke:#000000;  stroke-width:0.50pt;" points="447.39,247.75 449.16,254.00 447.39,260.25 445.62,254.00"/>
<polygon fill="#ffffff" style="stroke:#000000;  stroke-width:0.50pt;" points="448.60,269.63 450.37,275.88 448.60,282.13 446.83,275.88"/>
<polygon fill="#000000" style="stroke:#000000;  stroke-width:0.50pt;" points="472.72,269.63 474.49,275.88 472.72,282.13 470.95,275.88"/>
<line x1="12.71cm" y1="7.79cm" x2="13.29cm" y2="7.79cm" style="stroke:#000000; stroke-width:0.50pt;"/>
<polygon fill="#ffffff" style="stroke:#000000;  stroke-width:0.50pt;" points="449.20,291.50 450.97,297.75 449.20,304.00 447.43,297.75"/>
<polygon fill="#ffffff" style="stroke:#000000;  stroke-width:0.50pt;" points="451.01,313.38 452.78,319.63 451.01,325.88 449.24,319.63"/>
<polygon fill="#ffffff" style="stroke:#000000;  stroke-width:0.50pt;" points="451.61,335.25 453.39,341.50 451.61,347.75 449.84,341.50"/>
<polygon fill="#ffffff" style="stroke:#000000;  stroke-width:0.50pt;" points="451.61,357.13 453.39,363.37 451.61,369.62 449.84,363.37"/>
<polygon fill="#000000" style="stroke:#000000;  stroke-width:0.50pt;" points="499.26,357.13 501.03,363.37 499.26,369.62 497.49,363.37"/>
<line x1="12.80cm" y1="10.26cm" x2="14.04cm" y2="10.26cm" style="stroke:#000000; stroke-width:0.50pt;"/>
<polygon fill="#ffffff" style="stroke:#000000;  stroke-width:0.50pt;" points="452.22,379.00 453.99,385.25 452.22,391.50 450.45,385.25"/>
<polygon fill="#ffffff" style="stroke:#000000;  stroke-width:0.50pt;" points="452.22,400.87 453.99,407.12 452.22,413.37 450.45,407.12"/>
<polygon fill="#ffffff" style="stroke:#000000;  stroke-width:0.50pt;" points="454.63,422.75 456.40,429.00 454.63,435.25 452.86,429.00"/>
<polygon fill="#000000" style="stroke:#000000;  stroke-width:0.50pt;" points="477.55,422.75 479.32,429.00 477.55,435.25 475.78,429.00"/>
<line x1="12.88cm" y1="12.11cm" x2="13.43cm" y2="12.11cm" style="stroke:#000000; stroke-width:0.50pt;"/>
<polygon fill="#ffffff" style="stroke:#000000;  stroke-width:0.50pt;" points="455.84,444.62 457.61,450.87 455.84,457.12 454.06,450.87"/>
<polygon fill="#000000" style="stroke:#000000;  stroke-width:0.50pt;" points="471.52,444.62 473.29,450.87 471.52,457.12 469.75,450.87"/>
<line x1="12.91cm" y1="12.72cm" x2="13.26cm" y2="12.72cm" style="stroke:#000000; stroke-width:0.50pt;"/>
<polygon fill="#ffffff" style="stroke:#000000;  stroke-width:0.50pt;" points="456.44,466.50 458.21,472.75 456.44,479.00 454.67,472.75"/>
<polygon fill="#ffffff" style="stroke:#000000;  stroke-width:0.50pt;" points="456.44,488.37 458.21,494.62 456.44,500.87 454.67,494.62"/>
<polygon fill="#ffffff" style="stroke:#000000;  stroke-width:0.50pt;" points="457.04,510.25 458.81,516.50 457.04,522.75 455.27,516.50"/>
<polygon fill="#000000" style="stroke:#000000;  stroke-width:0.50pt;" points="498.66,510.25 500.43,516.50 498.66,522.75 496.89,516.50"/>
<line x1="12.95cm" y1="14.58cm" x2="14.02cm" y2="14.58cm" style="stroke:#000000; stroke-width:0.50pt;"/>
<polygon fill="#ffffff" style="stroke:#000000;  stroke-width:0.50pt;" points="458.25,532.12 460.02,538.37 458.25,544.62 456.48,538.37"/>
<polygon fill="#ffffff" style="stroke:#000000;  stroke-width:0.50pt;" points="460.06,554.00 461.83,560.25 460.06,566.50 458.29,560.25"/>
<polygon fill="#000000" style="stroke:#000000;  stroke-width:0.50pt;" points="483.58,554.00 485.35,560.25 483.58,566.50 481.81,560.25"/>
<line x1="13.03cm" y1="15.81cm" x2="13.60cm" y2="15.81cm" style="stroke:#000000; stroke-width:0.50pt;"/>
<polygon fill="#ffffff" style="stroke:#000000;  stroke-width:0.50pt;" points="460.66,575.87 462.43,582.12 460.66,588.37 458.89,582.12"/>
<polygon fill="#000000" style="stroke:#000000;  stroke-width:0.50pt;" points="490.21,575.87 491.99,582.12 490.21,588.37 488.44,582.12"/>
<line x1="13.05cm" y1="16.43cm" x2="13.78cm" y2="16.43cm" style="stroke:#000000; stroke-width:0.50pt;"/>
<polygon fill="#ffffff" style="stroke:#000000;  stroke-width:0.50pt;" points="460.66,597.75 462.43,604.00 460.66,610.25 458.89,604.00"/>
<polygon fill="#ffffff" style="stroke:#000000;  stroke-width:0.50pt;" points="461.87,619.62 463.64,625.87 461.87,632.12 460.10,625.87"/>
<polygon fill="#000000" style="stroke:#000000;  stroke-width:0.50pt;" points="490.82,619.62 492.59,625.87 490.82,632.12 489.05,625.87"/>
<line x1="13.08cm" y1="17.66cm" x2="13.80cm" y2="17.66cm" style="stroke:#000000; stroke-width:0.50pt;"/>
<polygon fill="#ffffff" style="stroke:#000000;  stroke-width:0.50pt;" points="461.87,641.50 463.64,647.75 461.87,654.00 460.10,647.75"/>
<polygon fill="#ffffff" style="stroke:#000000;  stroke-width:0.50pt;" points="461.87,663.37 463.64,669.62 461.87,675.87 460.10,669.62"/>
<polygon fill="#000000" style="stroke:#000000;  stroke-width:0.50pt;" points="481.77,663.37 483.54,669.62 481.77,675.87 480.00,669.62"/>
<line x1="13.08cm" y1="18.90cm" x2="13.55cm" y2="18.90cm" style="stroke:#000000; stroke-width:0.50pt;"/>
<polygon fill="#ffffff" style="stroke:#000000;  stroke-width:0.50pt;" points="462.47,685.25 464.24,691.50 462.47,697.75 460.70,691.50"/>
<polygon fill="#000000" style="stroke:#000000;  stroke-width:0.50pt;" points="507.71,685.25 509.48,691.50 507.71,697.75 505.93,691.50"/>
<line x1="13.10cm" y1="19.52cm" x2="14.28cm" y2="19.52cm" style="stroke:#000000; stroke-width:0.50pt;"/>
<polygon fill="#ffffff" style="stroke:#000000;  stroke-width:0.50pt;" points="463.07,707.12 464.84,713.37 463.07,719.62 461.30,713.37"/>
<polygon fill="#ffffff" style="stroke:#000000;  stroke-width:0.50pt;" points="463.68,729.00 465.45,735.25 463.68,741.50 461.90,735.25"/>
<polygon fill="#000000" style="stroke:#000000;  stroke-width:0.50pt;" points="488.40,729.00 490.18,735.25 488.40,741.50 486.63,735.25"/>
<line x1="13.14cm" y1="20.75cm" x2="13.73cm" y2="20.75cm" style="stroke:#000000; stroke-width:0.50pt;"/>
<polygon fill="#ffffff" style="stroke:#000000;  stroke-width:0.50pt;" points="464.28,750.87 466.05,757.12 464.28,763.37 462.51,757.12"/>
<polygon fill="#000000" style="stroke:#000000;  stroke-width:0.50pt;" points="506.50,750.87 508.27,757.12 506.50,763.37 504.73,757.12"/>
<line x1="13.15cm" y1="21.37cm" x2="14.24cm" y2="21.37cm" style="stroke:#000000; stroke-width:0.50pt;"/>
<polygon fill="#ffffff" style="stroke:#000000;  stroke-width:0.50pt;" points="464.28,772.75 466.05,779.00 464.28,785.25 462.51,779.00"/>
<polygon fill="#000000" style="stroke:#000000;  stroke-width:0.50pt;" points="509.51,772.75 511.29,779.00 509.51,785.25 507.74,779.00"/>
<line x1="13.15cm" y1="21.99cm" x2="14.33cm" y2="21.99cm" style="stroke:#000000; stroke-width:0.50pt;"/>
<polygon fill="#ffffff" style="stroke:#000000;  stroke-width:0.50pt;" points="464.28,794.62 466.05,800.87 464.28,807.12 462.51,800.87"/>
<polygon fill="#ffffff" style="stroke:#000000;  stroke-width:0.50pt;" points="464.88,816.50 466.65,822.75 464.88,829.00 463.11,822.75"/>
<polygon fill="#000000" style="stroke:#000000;  stroke-width:0.50pt;" points="490.21,816.50 491.99,822.75 490.21,829.00 488.44,822.75"/>
<line x1="13.17cm" y1="23.22cm" x2="13.78cm" y2="23.22cm" style="stroke:#000000; stroke-width:0.50pt;"/>
<polygon fill="#ffffff" style="stroke:#000000;  stroke-width:0.50pt;" points="464.88,838.37 466.65,844.62 464.88,850.87 463.11,844.62"/>
<polygon fill="#000000" style="stroke:#000000;  stroke-width:0.50pt;" points="498.05,838.37 499.83,844.62 498.05,850.87 496.28,844.62"/>
<line x1="13.17cm" y1="23.84cm" x2="14.01cm" y2="23.84cm" style="stroke:#000000; stroke-width:0.50pt;"/>
<polygon fill="#ffffff" style="stroke:#000000;  stroke-width:0.50pt;" points="465.49,860.25 467.26,866.50 465.49,872.75 463.71,866.50"/>
<polygon fill="#000000" style="stroke:#000000;  stroke-width:0.50pt;" points="499.26,860.25 501.03,866.50 499.26,872.75 497.49,866.50"/>
<line x1="13.19cm" y1="24.45cm" x2="14.04cm" y2="24.45cm" style="stroke:#000000; stroke-width:0.50pt;"/>
<polygon fill="#ffffff" style="stroke:#000000;  stroke-width:0.50pt;" points="466.09,882.12 467.86,888.37 466.09,894.62 464.32,888.37"/>
<polygon fill="#000000" style="stroke:#000000;  stroke-width:0.50pt;" points="496.25,882.12 498.02,888.37 496.25,894.62 494.47,888.37"/>
<line x1="13.20cm" y1="25.07cm" x2="13.96cm" y2="25.07cm" style="stroke:#000000; stroke-width:0.50pt;"/>
<text x="7.01cm" y="3.13cm" style="fill:#000000;font-size:14pt; font-family:sans-serif;">Graphique temporel -- Trié par Naissance</text>
<text x="8.22cm" y="3.74cm" style="fill:#000000;font-size:14pt; font-family:sans-serif;">(Toute la base de données)</text>
<text x="6.17cm" y="4.34cm" style="fill:#000000;font-size:14pt; font-family:sans-serif;">(Individus vivants : Inclus, avec toutes les données)</text>
<text x="9.68cm" y="5.14cm" style="fill:#000000;font-size:8pt; font-family:sans-serif;">1520</text>
<text x="11.38cm" y="5.14cm" style="fill:#000000;font-size:8pt; font-family:sans-serif;">1620</text>
<text x="13.09cm" y="5.14cm" style="fill:#000000;font-size:8pt; font-family:sans-serif;">1720</text>
<text x="14.79cm" y="5.14cm" style="fill:#000000;font-size:8pt; font-family:sans-serif;">1820</text>
<text x="16.49cm" y="5.14cm" style="fill:#000000;font-size:8pt; font-family:sans-serif;">1920</text>
<text x="18.19cm" y="5.14cm" style="fill:#000000;font-size:8pt; font-family:sans-serif;">2020</text>
<text x="3.16cm" y="6.18cm" style="fill:#000000;font-size:10pt; font-family:sans-serif;">GOYE, Marie</text>
<text x="3.16cm" y="6.80cm" style="fill:#000000;font-size:10pt; font-family:sans-serif;">MARULIER, Jean Francois</text>
<text x="3.16cm" y="7.42cm" style="fill:#000000;font-size:10pt; font-family:sans-serif;">AUBRY, Anne</text>
<text x="3.16cm" y="8.03cm" style="fill:#000000;font-size:10pt; font-family:sans-serif;">MARCHAL, Francoise</text>
<text x="3.16cm" y="8.65cm" style="fill:#000000;font-size:10pt; font-family:sans-serif;">AUBRY, Francois</text>
<text x="3.16cm" y="9.27cm" style="fill:#000000;font-size:10pt; font-family:sans-serif;">VEL, Charles</text>
<text x="3.16cm" y="9.88cm" style="fill:#000000;font-size:10pt; font-family:sans-serif;">DUHOUX, Marguerite</text>
<text x="3.16cm" y="10.50cm" style="fill:#000000;font-size:10pt; font-family:sans-serif;">VILLAUME, Anne Catherine</text>
<text x="3.16cm" y="11.12cm" style="fill:#000000;font-size:10pt; font-family:sans-serif;">THIRIET, Joseph</text>
<text x="3.16cm" y="11.74cm" style="fill:#000000;font-size:10pt; font-family:sans-serif;">THOMASSIN, Elizabeth</text>
<text x="3.16cm" y="12.35cm" style="fill:#000000;font-size:10pt; font-family:sans-serif;">MARULIER, Jean-Francois</text>
<text x="3.16cm" y="12.97cm" style="fill:#000000;font-size:10pt; font-family:sans-serif;">URBAIN, Anne</text>
<text x="3.16cm" y="13.59cm" style="fill:#000000;font-size:10pt; font-family:sans-serif;">SIMONIN, Marie</text>
<text x="3.16cm" y="14.21cm" style="fill:#000000;font-size:10pt; font-family:sans-serif;">CHAPELLE, Nicolas</text>
<text x="3.16cm" y="14.82cm" style="fill:#000000;font-size:10pt; font-family:sans-serif;">POIROT, Francois</text>
<text x="3.16cm" y="15.44cm" style="fill:#000000;font-size:10pt; font-family:sans-serif;">POIROT, Sebastienne</text>
<text x="3.16cm" y="16.06cm" style="fill:#000000;font-size:10pt; font-family:sans-serif;">MARULIER, Jean</text>
<text x="3.16cm" y="16.68cm" style="fill:#000000;font-size:10pt; font-family:sans-serif;">BALAUD, Marie</text>
<text x="3.16cm" y="17.29cm" style="fill:#000000;font-size:10pt; font-family:sans-serif;">LHOTE, Catherine</text>
<text x="3.16cm" y="17.91cm" style="fill:#000000;font-size:10pt; font-family:sans-serif;">MARULIER, Joseph</text>
<text x="3.16cm" y="18.53cm" style="fill:#000000;font-size:10pt; font-family:sans-serif;">POTHIER, Philippe</text>
<text x="3.16cm" y="19.15cm" style="fill:#000000;font-size:10pt; font-family:sans-serif;">RUAUX, Dominique</text>
<text x="3.16cm" y="19.76cm" style="fill:#000000;font-size:10pt; font-family:sans-serif;">PERRY, Francois</text>
<text x="3.16cm" y="20.38cm" style="fill:#000000;font-size:10pt; font-family:sans-serif;">BERNARD, Claude</text>
<text x="3.16cm" y="21.00cm" style="fill:#000000;font-size:10pt; font-family:sans-serif;">VEL, Jeanne</text>
<text x="3.16cm" y="21.61cm" style="fill:#000000;font-size:10pt; font-family:sans-serif;">DUHOUX, Anne Marguerite</text>
<text x="3.16cm" y="22.23cm" style="fill:#000000;font-size:10pt; font-family:sans-serif;">POIROT, Thomas</text>
<text x="3.16cm" y="22.85cm" style="fill:#000000;font-size:10pt; font-family:sans-serif;">REGNIER, Agnès</text>
<text x="3.16cm" y="23.47cm" style="fill:#000000;font-size:10pt; font-family:sans-serif;">AUBRY, Marie</text>
<text x="3.16cm" y="24.08cm" style="fill:#000000;font-size:10pt; font-family:sans-serif;">RICHARD, Anne</text>
<text x="3.16cm" y="24.70cm" style="fill:#000000;font-size:10pt; font-family:sans-serif;">THIEBAUT, Anne</text>
<text x="3.16cm" y="25.32cm" style="fill:#000000;font-size:10pt; font-family:sans-serif;">TACHET, Joseph</text>
</svg>
