<?xml version="1.0" encoding="UTF-8" standalone="no"?>
<!DOCTYPE svg PUBLIC "-//W3C//DTD SVG 1.0//EN" "http://www.w3.org/TR/2001/REC-SVG-20010904/DTD/svg10.dtd">
<svg width="21.59cm" height="27.94cm" xmlns="http://www.w3.org/2000/svg">
<rect width="21.59cm" height="27.94cm" style="fill: none;"/>
<line x1="10.04cm" y1="5.14cm" x2="10.04cm" y2="25.40cm" style="stroke:#000000; stroke-dasharray: 2,4; stroke-width:0.50pt;"/>
<line x1="11.74cm" y1="5.14cm" x2="11.74cm" y2="25.40cm" style="stroke:#000000; stroke-dasharray: 2,4; stroke-width:0.50pt;"/>
<line x1="13.44cm" y1="5.14cm" x2="13.44cm" y2="25.40cm" style="stroke:#000000; stroke-dasharray: 2,4; stroke-width:0.50pt;"/>
<line x1="15.15cm" y1="5.14cm" x2="15.15cm" y2="25.40cm" style="stroke:#000000; stroke-dasharray: 2,4; stroke-width:0.50pt;"/>
<line x1="16.85cm" y1="5.14cm" x2="16.85cm" y2="25.40cm" style="stroke:#000000; stroke-dasharray: 2,4; stroke-width:0.50pt;"/>
<line x1="18.55cm" y1="5.14cm" x2="18.55cm" y2="25.40cm" style="stroke:#000000; stroke-dasharray: 2,4; stroke-width:0.50pt;"/>
<polygon fill="#ffffff" style="stroke:#000000;  stroke-width:0.50pt;" points="574.05,204.00 575.82,210.25 574.05,216.50 572.28,210.25"/>
<polygon fill="#000000" style="stroke:#000000;  stroke-width:0.50pt;" points="623.51,204.00 625.28,210.25 623.51,216.50 621.74,210.25"/>
<line x1="16.25cm" y1="5.93cm" x2="17.55cm" y2="5.93cm" style="stroke:#000000; stroke-width:0.50pt;"/>
<polygon fill="#ffffff" style="stroke:#000000;  stroke-width:0.50pt;" points="574.65,225.88 576.42,232.13 574.65,238.38 572.88,232.13"/>
<polygon fill="#000000" style="stroke:#000000;  stroke-width:0.50pt;" points="575.86,225.88 577.63,232.13 575.86,238.38 574.09,232.13"/>
<line x1="16.27cm" y1="6.55cm" x2="16.20cm" y2="6.55cm" style="stroke:#000000; stroke-width:0.50pt;"/>
<polygon fill="#ffffff" style="stroke:#000000;  stroke-width:0.50pt;" points="574.65,247.75 576.42,254.00 574.65,260.25 572.88,254.00"/>
<polygon fill="#ffffff" style="stroke:#000000;  stroke-width:0.50pt;" points="575.26,269.63 577.03,275.88 575.26,282.13 573.48,275.88"/>
<polygon fill="#000000" style="stroke:#000000;  stroke-width:0.50pt;" points="619.28,269.63 621.06,275.88 619.28,282.13 617.51,275.88"/>
<line x1="16.29cm" y1="7.79cm" x2="17.43cm" y2="7.79cm" style="stroke:#000000; stroke-width:0.50pt;"/>
<polygon fill="#ffffff" style="stroke:#000000;  stroke-width:0.50pt;" points="575.26,291.50 577.03,297.75 575.26,304.00 573.48,297.75"/>
<polygon fill="#ffffff" style="stroke:#000000;  stroke-width:0.50pt;" points="575.86,313.38 577.63,319.63 575.86,325.88 574.09,319.63"/>
<polygon fill="#000000" style="stroke:#000000;  stroke-width:0.50pt;" points="625.92,313.38 627.69,319.63 625.92,325.88 624.15,319.63"/>
<line x1="16.30cm" y1="9.02cm" x2="17.61cm" y2="9.02cm" style="stroke:#000000; stroke-width:0.50pt;"/>
<polygon fill="#ffffff" style="stroke:#000000;  stroke-width:0.50pt;" points="576.46,335.25 578.23,341.50 576.46,347.75 574.69,341.50"/>
<polygon fill="#000000" style="stroke:#000000;  stroke-width:0.50pt;" points="606.62,335.25 608.39,341.50 606.62,347.75 604.85,341.50"/>
<line x1="16.32cm" y1="9.64cm" x2="17.07cm" y2="9.64cm" style="stroke:#000000; stroke-width:0.50pt;"/>
<polygon fill="#ffffff" style="stroke:#000000;  stroke-width:0.50pt;" points="576.46,357.13 578.23,363.37 576.46,369.62 574.69,363.37"/>
<polygon fill="#ffffff" style="stroke:#000000;  stroke-width:0.50pt;" points="576.46,379.00 578.23,385.25 576.46,391.50 574.69,385.25"/>
<polygon fill="#ffffff" style="stroke:#000000;  stroke-width:0.50pt;" points="576.46,400.87 578.23,407.12 576.46,413.37 574.69,407.12"/>
<polygon fill="#000000" style="stroke:#000000;  stroke-width:0.50pt;" points="585.51,400.87 587.28,407.12 585.51,413.37 583.74,407.12"/>
<line x1="16.32cm" y1="11.49cm" x2="16.47cm" y2="11.49cm" style="stroke:#000000; stroke-width:0.50pt;"/>
<polygon fill="#ffffff" style="stroke:#000000;  stroke-width:0.50pt;" points="577.07,422.75 578.84,429.00 577.07,435.25 575.29,429.00"/>
<polygon fill="#ffffff" style="stroke:#000000;  stroke-width:0.50pt;" points="577.07,444.62 578.84,450.87 577.07,457.12 575.29,450.87"/>
<polygon fill="#ffffff" style="stroke:#000000;  stroke-width:0.50pt;" points="577.67,466.50 579.44,472.75 577.67,479.00 575.90,472.75"/>
<polygon fill="#ffffff" style="stroke:#000000;  stroke-width:0.50pt;" points="577.67,488.37 579.44,494.62 577.67,500.87 575.90,494.62"/>
<polygon fill="#000000" style="stroke:#000000;  stroke-width:0.50pt;" points="578.27,488.37 580.04,494.62 578.27,500.87 576.50,494.62"/>
<line x1="16.35cm" y1="13.96cm" x2="16.27cm" y2="13.96cm" style="stroke:#000000; stroke-width:0.50pt;"/>
<polygon fill="#ffffff" style="stroke:#000000;  stroke-width:0.50pt;" points="578.27,510.25 580.04,516.50 578.27,522.75 576.50,516.50"/>
<polygon fill="#000000" style="stroke:#000000;  stroke-width:0.50pt;" points="627.13,510.25 628.90,516.50 627.13,522.75 625.35,516.50"/>
<line x1="16.37cm" y1="14.58cm" x2="17.65cm" y2="14.58cm" style="stroke:#000000; stroke-width:0.50pt;"/>
<polygon fill="#ffffff" style="stroke:#000000;  stroke-width:0.50pt;" points="579.48,532.12 581.25,538.37 579.48,544.62 577.71,538.37"/>
<polygon fill="#ffffff" style="stroke:#000000;  stroke-width:0.50pt;" points="579.48,554.00 581.25,560.25 579.48,566.50 577.71,560.25"/>
<polygon fill="#000000" style="stroke:#000000;  stroke-width:0.50pt;" points="633.76,554.00 635.53,560.25 633.76,566.50 631.99,560.25"/>
<line x1="16.40cm" y1="15.81cm" x2="17.84cm" y2="15.81cm" style="stroke:#000000; stroke-width:0.50pt;"/>
<polygon fill="#ffffff" style="stroke:#000000;  stroke-width:0.50pt;" points="579.48,575.87 581.25,582.12 579.48,588.37 577.71,582.12"/>
<polygon fill="#000000" style="stroke:#000000;  stroke-width:0.50pt;" points="617.48,575.87 619.25,582.12 617.48,588.37 615.70,582.12"/>
<line x1="16.40cm" y1="16.43cm" x2="17.38cm" y2="16.43cm" style="stroke:#000000; stroke-width:0.50pt;"/>
<polygon fill="#ffffff" style="stroke:#000000;  stroke-width:0.50pt;" points="579.48,597.75 581.25,604.00 579.48,610.25 577.71,604.00"/>
<polygon fill="#ffffff" style="stroke:#000000;  stroke-width:0.50pt;" points="580.68,619.62 582.46,625.87 580.68,632.12 578.91,625.87"/>
<polygon fill="#ffffff" style="stroke:#000000;  stroke-width:0.50pt;" points="580.68,641.50 582.46,647.75 580.68,654.00 578.91,647.75"/>
<polygon fill="#000000" style="stroke:#000000;  stroke-width:0.50pt;" points="628.93,641.50 630.71,647.75 628.93,654.00 627.16,647.75"/>
<line x1="16.44cm" y1="18.28cm" x2="17.70cm" y2="18.28cm" style="stroke:#000000; stroke-width:0.50pt;"/>
<polygon fill="#ffffff" style="stroke:#000000;  stroke-width:0.50pt;" points="581.89,663.37 583.66,669.62 581.89,675.87 580.12,669.62"/>
<polygon fill="#000000" style="stroke:#000000;  stroke-width:0.50pt;" points="634.97,663.37 636.74,669.62 634.97,675.87 633.19,669.62"/>
<line x1="16.47cm" y1="18.90cm" x2="17.87cm" y2="18.90cm" style="stroke:#000000; stroke-width:0.50pt;"/>
<polygon fill="#ffffff" style="stroke:#000000;  stroke-width:0.50pt;" points="582.49,685.25 584.27,691.50 582.49,697.75 580.72,691.50"/>
<polygon fill="#ffffff" style="stroke:#000000;  stroke-width:0.50pt;" points="582.49,707.12 584.27,713.37 582.49,719.62 580.72,713.37"/>
<polygon fill="#ffffff" style="stroke:#000000;  stroke-width:0.50pt;" points="582.49,729.00 584.27,735.25 582.49,741.50 580.72,735.25"/>
<polygon fill="#000000" style="stroke:#000000;  stroke-width:0.50pt;" points="636.78,729.00 638.55,735.25 636.78,741.50 635.00,735.25"/>
<line x1="16.49cm" y1="20.75cm" x2="17.92cm" y2="20.75cm" style="stroke:#000000; stroke-width:0.50pt;"/>
<polygon fill="#ffffff" style="stroke:#000000;  stroke-width:0.50pt;" points="583.70,750.87 585.47,757.12 583.70,763.37 581.93,757.12"/>
<polygon fill="#ffffff" style="stroke:#000000;  stroke-width:0.50pt;" points="584.30,772.75 586.07,779.00 584.30,785.25 582.53,779.00"/>
<polygon fill="#ffffff" style="stroke:#000000;  stroke-width:0.50pt;" points="584.30,794.62 586.07,800.87 584.30,807.12 582.53,800.87"/>
<polygon fill="#ffffff" style="stroke:#000000;  stroke-width:0.50pt;" points="584.30,816.50 586.07,822.75 584.30,829.00 582.53,822.75"/>
<polygon fill="#ffffff" style="stroke:#000000;  stroke-width:0.50pt;" points="584.91,838.37 586.68,844.62 584.91,850.87 583.13,844.62"/>
<polygon fill="#ffffff" style="stroke:#000000;  stroke-width:0.50pt;" points="584.91,860.25 586.68,866.50 584.91,872.75 583.13,866.50"/>
<polygon fill="#ffffff" style="stroke:#000000;  stroke-width:0.50pt;" points="584.91,882.12 586.68,888.37 584.91,894.62 583.13,888.37"/>
<polygon fill="#000000" style="stroke:#000000;  stroke-width:0.50pt;" points="630.74,882.12 632.52,888.37 630.74,894.62 628.97,888.37"/>
<line x1="16.56cm" y1="25.07cm" x2="17.75cm" y2="25.07cm" style="stroke:#000000; stroke-width:0.50pt;"/>
<text x="7.01cm" y="3.13cm" style="fill:#000000;font-size:14pt; font-family:sans-serif;">Graphique temporel -- Trié par Naissance</text>
<text x="8.22cm" y="3.74cm" style="fill:#000000;font-size:14pt; font-family:sans-serif;">(Toute la base de données)</text>
<text x="6.17cm" y="4.34cm" style="fill:#000000;font-size:14pt; font-family:sans-serif;">(Individus vivants : Inclus, avec toutes les données)</text>
<text x="9.68cm" y="5.14cm" style="fill:#000000;font-size:8pt; font-family:sans-serif;">1520</text>
<text x="11.38cm" y="5.14cm" style="fill:#000000;font-size:8pt; font-family:sans-serif;">1620</text>
<text x="13.09cm" y="5.14cm" style="fill:#000000;font-size:8pt; font-family:sans-serif;">1720</text>
<text x="14.79cm" y="5.14cm" style="fill:#000000;font-size:8pt; font-family:sans-serif;">1820</text>
<text x="16.49cm" y="5.14cm" style="fill:#000000;font-size:8pt; font-family:sans-serif;">1920</text>
<text x="18.19cm" y="5.14cm" style="fill:#000000;font-size:8pt; font-family:sans-serif;">2020</text>
<text x="3.16cm" y="6.18cm" style="fill:#000000;font-size:10pt; font-family:sans-serif;">BALAUD, Héléne</text>
<text x="3.16cm" y="6.80cm" style="fill:#000000;font-size:10pt; font-family:sans-serif;">POTHIER, Gabriel Joseph</text>
<text x="3.16cm" y="7.42cm" style="fill:#000000;font-size:10pt; font-family:sans-serif;">THOUVENOT, Mathilde Elisabeth</text>
<text x="3.16cm" y="8.03cm" style="fill:#000000;font-size:10pt; font-family:sans-serif;">POIROT, Joseph Arsène</text>
<text x="3.16cm" y="8.65cm" style="fill:#000000;font-size:10pt; font-family:sans-serif;">POIROT, Anne Marie Sidonie</text>
<text x="3.16cm" y="9.27cm" style="fill:#000000;font-size:10pt; font-family:sans-serif;">POTHIER, Félix Lucien</text>
<text x="3.16cm" y="9.88cm" style="fill:#000000;font-size:10pt; font-family:sans-serif;">POIROT, Mathilde</text>
<text x="3.16cm" y="10.50cm" style="fill:#000000;font-size:10pt; font-family:sans-serif;">THOUVENOT, Jules Marie Leon</text>
<text x="3.16cm" y="11.12cm" style="fill:#000000;font-size:10pt; font-family:sans-serif;">RUAUX, Léonie</text>
<text x="3.16cm" y="11.74cm" style="fill:#000000;font-size:10pt; font-family:sans-serif;">POIROT, Marie Arsene Lucien</text>
<text x="3.16cm" y="12.35cm" style="fill:#000000;font-size:10pt; font-family:sans-serif;">COMTE, Lucien Rene</text>
<text x="3.16cm" y="12.97cm" style="fill:#000000;font-size:10pt; font-family:sans-serif;">RUAUX, Marie</text>
<text x="3.16cm" y="13.59cm" style="fill:#000000;font-size:10pt; font-family:sans-serif;">POIROT, Sidonie</text>
<text x="3.16cm" y="14.21cm" style="fill:#000000;font-size:10pt; font-family:sans-serif;">POIROT, Bernard Barthélémy</text>
<text x="3.16cm" y="14.82cm" style="fill:#000000;font-size:10pt; font-family:sans-serif;">POTHIER, Gabriel</text>
<text x="3.16cm" y="15.44cm" style="fill:#000000;font-size:10pt; font-family:sans-serif;">THOUVENOT, Pierre Marie Joseph</text>
<text x="3.16cm" y="16.06cm" style="fill:#000000;font-size:10pt; font-family:sans-serif;">POIROT, Jeanne</text>
<text x="3.16cm" y="16.68cm" style="fill:#000000;font-size:10pt; font-family:sans-serif;">RUAUX, Léon</text>
<text x="3.16cm" y="17.29cm" style="fill:#000000;font-size:10pt; font-family:sans-serif;">GAZER, Jeanne Marie Julie</text>
<text x="3.16cm" y="17.91cm" style="fill:#000000;font-size:10pt; font-family:sans-serif;">POIROT, Berthe Joséphine</text>
<text x="3.16cm" y="18.53cm" style="fill:#000000;font-size:10pt; font-family:sans-serif;">THOUVENOT, Paul Marie Andre</text>
<text x="3.16cm" y="19.15cm" style="fill:#000000;font-size:10pt; font-family:sans-serif;">MARULIER, Marie</text>
<text x="3.16cm" y="19.76cm" style="fill:#000000;font-size:10pt; font-family:sans-serif;">POIROT, Anne Rosalie Germaine</text>
<text x="3.16cm" y="20.38cm" style="fill:#000000;font-size:10pt; font-family:sans-serif;">CUNIN, Marie therese Adele</text>
<text x="3.16cm" y="21.00cm" style="fill:#000000;font-size:10pt; font-family:sans-serif;">JACQUOT, Constant</text>
<text x="3.16cm" y="21.61cm" style="fill:#000000;font-size:10pt; font-family:sans-serif;">NOEL, Marie Camille</text>
<text x="3.16cm" y="22.23cm" style="fill:#000000;font-size:10pt; font-family:sans-serif;">POIROT, Marie Hélène</text>
<text x="3.16cm" y="22.85cm" style="fill:#000000;font-size:10pt; font-family:sans-serif;">POTHIER, Alfred Marcel</text>
<text x="3.16cm" y="23.47cm" style="fill:#000000;font-size:10pt; font-family:sans-serif;">GAUDE, Marie Alice</text>
<text x="3.16cm" y="24.08cm" style="fill:#000000;font-size:10pt; font-family:sans-serif;">AUBRY, Paul</text>
<text x="3.16cm" y="24.70cm" style="fill:#000000;font-size:10pt; font-family:sans-serif;">JACQUOT, Marcel</text>
<text x="3.16cm" y="25.32cm" style="fill:#000000;font-size:10pt; font-family:sans-serif;">MATHIEU, Leon Maurice Andre</text>
</svg>
