<?xml version="1.0" encoding="UTF-8" standalone="no"?>
<!DOCTYPE svg PUBLIC "-//W3C//DTD SVG 1.0//EN" "http://www.w3.org/TR/2001/REC-SVG-20010904/DTD/svg10.dtd">
<svg width="21.59cm" height="27.94cm" xmlns="http://www.w3.org/2000/svg">
<rect width="21.59cm" height="27.94cm" style="fill: none;"/>
<line x1="10.04cm" y1="5.14cm" x2="10.04cm" y2="25.40cm" style="stroke:#000000; stroke-dasharray: 2,4; stroke-width:0.50pt;"/>
<line x1="11.74cm" y1="5.14cm" x2="11.74cm" y2="25.40cm" style="stroke:#000000; stroke-dasharray: 2,4; stroke-width:0.50pt;"/>
<line x1="13.44cm" y1="5.14cm" x2="13.44cm" y2="25.40cm" style="stroke:#000000; stroke-dasharray: 2,4; stroke-width:0.50pt;"/>
<line x1="15.15cm" y1="5.14cm" x2="15.15cm" y2="25.40cm" style="stroke:#000000; stroke-dasharray: 2,4; stroke-width:0.50pt;"/>
<line x1="16.85cm" y1="5.14cm" x2="16.85cm" y2="25.40cm" style="stroke:#000000; stroke-dasharray: 2,4; stroke-width:0.50pt;"/>
<line x1="18.55cm" y1="5.14cm" x2="18.55cm" y2="25.40cm" style="stroke:#000000; stroke-dasharray: 2,4; stroke-width:0.50pt;"/>
<polygon fill="#ffffff" style="stroke:#000000;  stroke-width:0.50pt;" points="391.90,204.00 393.68,210.25 391.90,216.50 390.13,210.25"/>
<polygon fill="#ffffff" style="stroke:#000000;  stroke-width:0.50pt;" points="391.90,225.88 393.68,232.13 391.90,238.38 390.13,232.13"/>
<polygon fill="#000000" style="stroke:#000000;  stroke-width:0.50pt;" points="447.99,225.88 449.77,232.13 447.99,238.38 446.22,232.13"/>
<line x1="11.11cm" y1="6.55cm" x2="12.59cm" y2="6.55cm" style="stroke:#000000; stroke-width:0.50pt;"/>
<polygon fill="#ffffff" style="stroke:#000000;  stroke-width:0.50pt;" points="391.90,247.75 393.68,254.00 391.90,260.25 390.13,254.00"/>
<polygon fill="#000000" style="stroke:#000000;  stroke-width:0.50pt;" points="446.19,247.75 447.96,254.00 446.19,260.25 444.41,254.00"/>
<line x1="11.11cm" y1="7.17cm" x2="12.54cm" y2="7.17cm" style="stroke:#000000; stroke-width:0.50pt;"/>
<polygon fill="#ffffff" style="stroke:#000000;  stroke-width:0.50pt;" points="392.51,269.63 394.28,275.88 392.51,282.13 390.73,275.88"/>
<polygon fill="#000000" style="stroke:#000000;  stroke-width:0.50pt;" points="418.44,269.63 420.21,275.88 418.44,282.13 416.67,275.88"/>
<line x1="11.13cm" y1="7.79cm" x2="11.76cm" y2="7.79cm" style="stroke:#000000; stroke-width:0.50pt;"/>
<polygon fill="#ffffff" style="stroke:#000000;  stroke-width:0.50pt;" points="394.92,291.50 396.69,297.75 394.92,304.00 393.15,297.75"/>
<polygon fill="#ffffff" style="stroke:#000000;  stroke-width:0.50pt;" points="394.92,313.38 396.69,319.63 394.92,325.88 393.15,319.63"/>
<polygon fill="#ffffff" style="stroke:#000000;  stroke-width:0.50pt;" points="400.95,335.25 402.72,341.50 400.95,347.75 399.18,341.50"/>
<polygon fill="#ffffff" style="stroke:#000000;  stroke-width:0.50pt;" points="400.95,357.13 402.72,363.37 400.95,369.62 399.18,363.37"/>
<polygon fill="#ffffff" style="stroke:#000000;  stroke-width:0.50pt;" points="403.36,379.00 405.13,385.25 403.36,391.50 401.59,385.25"/>
<polygon fill="#000000" style="stroke:#000000;  stroke-width:0.50pt;" points="437.14,379.00 438.91,385.25 437.14,391.50 435.37,385.25"/>
<line x1="11.43cm" y1="10.87cm" x2="12.29cm" y2="10.87cm" style="stroke:#000000; stroke-width:0.50pt;"/>
<polygon fill="#ffffff" style="stroke:#000000;  stroke-width:0.50pt;" points="403.97,400.87 405.74,407.12 403.97,413.37 402.19,407.12"/>
<polygon fill="#ffffff" style="stroke:#000000;  stroke-width:0.50pt;" points="403.97,422.75 405.74,429.00 403.97,435.25 402.19,429.00"/>
<polygon fill="#ffffff" style="stroke:#000000;  stroke-width:0.50pt;" points="403.97,444.62 405.74,450.87 403.97,457.12 402.19,450.87"/>
<polygon fill="#ffffff" style="stroke:#000000;  stroke-width:0.50pt;" points="408.79,466.50 410.56,472.75 408.79,479.00 407.02,472.75"/>
<polygon fill="#000000" style="stroke:#000000;  stroke-width:0.50pt;" points="447.39,466.50 449.16,472.75 447.39,479.00 445.62,472.75"/>
<line x1="11.59cm" y1="13.34cm" x2="12.58cm" y2="13.34cm" style="stroke:#000000; stroke-width:0.50pt;"/>
<polygon fill="#ffffff" style="stroke:#000000;  stroke-width:0.50pt;" points="410.00,488.37 411.77,494.62 410.00,500.87 408.23,494.62"/>
<polygon fill="#000000" style="stroke:#000000;  stroke-width:0.50pt;" points="450.41,488.37 452.18,494.62 450.41,500.87 448.64,494.62"/>
<line x1="11.62cm" y1="13.96cm" x2="12.66cm" y2="13.96cm" style="stroke:#000000; stroke-width:0.50pt;"/>
<polygon fill="#ffffff" style="stroke:#000000;  stroke-width:0.50pt;" points="411.81,510.25 413.58,516.50 411.81,522.75 410.04,516.50"/>
<polygon fill="#000000" style="stroke:#000000;  stroke-width:0.50pt;" points="457.64,510.25 459.42,516.50 457.64,522.75 455.87,516.50"/>
<line x1="11.67cm" y1="14.58cm" x2="12.87cm" y2="14.58cm" style="stroke:#000000; stroke-width:0.50pt;"/>
<polygon fill="#ffffff" style="stroke:#000000;  stroke-width:0.50pt;" points="413.01,532.12 414.78,538.37 413.01,544.62 411.24,538.37"/>
<polygon fill="#000000" style="stroke:#000000;  stroke-width:0.50pt;" points="446.79,532.12 448.56,538.37 446.79,544.62 445.02,538.37"/>
<line x1="11.71cm" y1="15.19cm" x2="12.56cm" y2="15.19cm" style="stroke:#000000; stroke-width:0.50pt;"/>
<polygon fill="#ffffff" style="stroke:#000000;  stroke-width:0.50pt;" points="413.01,554.00 414.78,560.25 413.01,566.50 411.24,560.25"/>
<polygon fill="#000000" style="stroke:#000000;  stroke-width:0.50pt;" points="435.93,554.00 437.70,560.25 435.93,566.50 434.16,560.25"/>
<line x1="11.71cm" y1="15.81cm" x2="12.25cm" y2="15.81cm" style="stroke:#000000; stroke-width:0.50pt;"/>
<polygon fill="#ffffff" style="stroke:#000000;  stroke-width:0.50pt;" points="414.22,575.87 415.99,582.12 414.22,588.37 412.45,582.12"/>
<polygon fill="#000000" style="stroke:#000000;  stroke-width:0.50pt;" points="456.44,575.87 458.21,582.12 456.44,588.37 454.67,582.12"/>
<line x1="11.74cm" y1="16.43cm" x2="12.83cm" y2="16.43cm" style="stroke:#000000; stroke-width:0.50pt;"/>
<polygon fill="#ffffff" style="stroke:#000000;  stroke-width:0.50pt;" points="414.22,597.75 415.99,604.00 414.22,610.25 412.45,604.00"/>
<polygon fill="#ffffff" style="stroke:#000000;  stroke-width:0.50pt;" points="416.03,619.62 417.80,625.87 416.03,632.12 414.26,625.87"/>
<polygon fill="#000000" style="stroke:#000000;  stroke-width:0.50pt;" points="464.88,619.62 466.65,625.87 464.88,632.12 463.11,625.87"/>
<line x1="11.79cm" y1="17.66cm" x2="13.07cm" y2="17.66cm" style="stroke:#000000; stroke-width:0.50pt;"/>
<polygon fill="#ffffff" style="stroke:#000000;  stroke-width:0.50pt;" points="416.03,641.50 417.80,647.75 416.03,654.00 414.26,647.75"/>
<polygon fill="#000000" style="stroke:#000000;  stroke-width:0.50pt;" points="457.64,641.50 459.42,647.75 457.64,654.00 455.87,647.75"/>
<line x1="11.79cm" y1="18.28cm" x2="12.87cm" y2="18.28cm" style="stroke:#000000; stroke-width:0.50pt;"/>
<polygon fill="#ffffff" style="stroke:#000000;  stroke-width:0.50pt;" points="419.04,663.37 420.82,669.62 419.04,675.87 417.27,669.62"/>
<polygon fill="#ffffff" style="stroke:#000000;  stroke-width:0.50pt;" points="419.04,685.25 420.82,691.50 419.04,697.75 417.27,691.50"/>
<polygon fill="#000000" style="stroke:#000000;  stroke-width:0.50pt;" points="470.31,685.25 472.08,691.50 470.31,697.75 468.54,691.50"/>
<line x1="11.88cm" y1="19.52cm" x2="13.22cm" y2="19.52cm" style="stroke:#000000; stroke-width:0.50pt;"/>
<polygon fill="#ffffff" style="stroke:#000000;  stroke-width:0.50pt;" points="419.04,707.12 420.82,713.37 419.04,719.62 417.27,713.37"/>
<polygon fill="#ffffff" style="stroke:#000000;  stroke-width:0.50pt;" points="419.04,729.00 420.82,735.25 419.04,741.50 417.27,735.25"/>
<polygon fill="#ffffff" style="stroke:#000000;  stroke-width:0.50pt;" points="419.65,750.87 421.42,757.12 419.65,763.37 417.88,757.12"/>
<polygon fill="#000000" style="stroke:#000000;  stroke-width:0.50pt;" points="460.06,750.87 461.83,757.12 460.06,763.37 458.29,757.12"/>
<line x1="11.89cm" y1="21.37cm" x2="12.93cm" y2="21.37cm" style="stroke:#000000; stroke-width:0.50pt;"/>
<polygon fill="#ffffff" style="stroke:#000000;  stroke-width:0.50pt;" points="420.85,772.75 422.63,779.00 420.85,785.25 419.08,779.00"/>
<polygon fill="#000000" style="stroke:#000000;  stroke-width:0.50pt;" points="446.79,772.75 448.56,779.00 446.79,785.25 445.02,779.00"/>
<line x1="11.93cm" y1="21.99cm" x2="12.56cm" y2="21.99cm" style="stroke:#000000; stroke-width:0.50pt;"/>
<polygon fill="#ffffff" style="stroke:#000000;  stroke-width:0.50pt;" points="422.06,794.62 423.83,800.87 422.06,807.12 420.29,800.87"/>
<polygon fill="#000000" style="stroke:#000000;  stroke-width:0.50pt;" points="471.52,794.62 473.29,800.87 471.52,807.12 469.75,800.87"/>
<line x1="11.96cm" y1="22.60cm" x2="13.26cm" y2="22.60cm" style="stroke:#000000; stroke-width:0.50pt;"/>
<polygon fill="#ffffff" style="stroke:#000000;  stroke-width:0.50pt;" points="425.08,816.50 426.85,822.75 425.08,829.00 423.30,822.75"/>
<polygon fill="#ffffff" style="stroke:#000000;  stroke-width:0.50pt;" points="425.08,838.37 426.85,844.62 425.08,850.87 423.30,844.62"/>
<polygon fill="#000000" style="stroke:#000000;  stroke-width:0.50pt;" points="473.93,838.37 475.70,844.62 473.93,850.87 472.16,844.62"/>
<line x1="12.05cm" y1="23.84cm" x2="13.33cm" y2="23.84cm" style="stroke:#000000; stroke-width:0.50pt;"/>
<polygon fill="#ffffff" style="stroke:#000000;  stroke-width:0.50pt;" points="428.09,860.25 429.86,866.50 428.09,872.75 426.32,866.50"/>
<polygon fill="#000000" style="stroke:#000000;  stroke-width:0.50pt;" points="473.93,860.25 475.70,866.50 473.93,872.75 472.16,866.50"/>
<line x1="12.13cm" y1="24.45cm" x2="13.33cm" y2="24.45cm" style="stroke:#000000; stroke-width:0.50pt;"/>
<polygon fill="#ffffff" style="stroke:#000000;  stroke-width:0.50pt;" points="428.69,882.12 430.47,888.37 428.69,894.62 426.92,888.37"/>
<polygon fill="#000000" style="stroke:#000000;  stroke-width:0.50pt;" points="473.93,882.12 475.70,888.37 473.93,894.62 472.16,888.37"/>
<line x1="12.15cm" y1="25.07cm" x2="13.33cm" y2="25.07cm" style="stroke:#000000; stroke-width:0.50pt;"/>
<text x="7.01cm" y="3.13cm" style="fill:#000000;font-size:14pt; font-family:sans-serif;">Graphique temporel -- Trié par Naissance</text>
<text x="8.22cm" y="3.74cm" style="fill:#000000;font-size:14pt; font-family:sans-serif;">(Toute la base de données)</text>
<text x="6.17cm" y="4.34cm" style="fill:#000000;font-size:14pt; font-family:sans-serif;">(Individus vivants : Inclus, avec toutes les données)</text>
<text x="9.68cm" y="5.14cm" style="fill:#000000;font-size:8pt; font-family:sans-serif;">1520</text>
<text x="11.38cm" y="5.14cm" style="fill:#000000;font-size:8pt; font-family:sans-serif;">1620</text>
<text x="13.09cm" y="5.14cm" style="fill:#000000;font-size:8pt; font-family:sans-serif;">1720</text>
<text x="14.79cm" y="5.14cm" style="fill:#000000;font-size:8pt; font-family:sans-serif;">1820</text>
<text x="16.49cm" y="5.14cm" style="fill:#000000;font-size:8pt; font-family:sans-serif;">1920</text>
<text x="18.19cm" y="5.14cm" style="fill:#000000;font-size:8pt; font-family:sans-serif;">2020</text>
<text x="3.16cm" y="6.18cm" style="fill:#000000;font-size:10pt; font-family:sans-serif;">DAVILLERD, Jean</text>
<text x="3.16cm" y="6.80cm" style="fill:#000000;font-size:10pt; font-family:sans-serif;">EURIAT, Claude dit Le Jeune</text>
<text x="3.16cm" y="7.42cm" style="fill:#000000;font-size:10pt; font-family:sans-serif;">P, Jehannon</text>
<text x="3.16cm" y="8.03cm" style="fill:#000000;font-size:10pt; font-family:sans-serif;">BISET, Francoise</text>
<text x="3.16cm" y="8.65cm" style="fill:#000000;font-size:10pt; font-family:sans-serif;">COLLIN, Francoise</text>
<text x="3.16cm" y="9.27cm" style="fill:#000000;font-size:10pt; font-family:sans-serif;">MARULIER, Gérard</text>
<text x="3.16cm" y="9.88cm" style="fill:#000000;font-size:10pt; font-family:sans-serif;">BARTHELEMY, Demenge</text>
<text x="3.16cm" y="10.50cm" style="fill:#000000;font-size:10pt; font-family:sans-serif;">BENNEY, Marguerite</text>
<text x="3.16cm" y="11.12cm" style="fill:#000000;font-size:10pt; font-family:sans-serif;">RUAUX, Nicolas</text>
<text x="3.16cm" y="11.74cm" style="fill:#000000;font-size:10pt; font-family:sans-serif;">CHAMPION, Nicolle</text>
<text x="3.16cm" y="12.35cm" style="fill:#000000;font-size:10pt; font-family:sans-serif;">POIROT, Jean</text>
<text x="3.16cm" y="12.97cm" style="fill:#000000;font-size:10pt; font-family:sans-serif;">THOMASSIN, Nicolas</text>
<text x="3.16cm" y="13.59cm" style="fill:#000000;font-size:10pt; font-family:sans-serif;">THIRIET, Claudon</text>
<text x="3.16cm" y="14.21cm" style="fill:#000000;font-size:10pt; font-family:sans-serif;">DAVILLERS, Claude</text>
<text x="3.16cm" y="14.82cm" style="fill:#000000;font-size:10pt; font-family:sans-serif;">MARULIER, Demenge</text>
<text x="3.16cm" y="15.44cm" style="fill:#000000;font-size:10pt; font-family:sans-serif;">EURIAT, Jean</text>
<text x="3.16cm" y="16.06cm" style="fill:#000000;font-size:10pt; font-family:sans-serif;">HOYE, Claudine</text>
<text x="3.16cm" y="16.68cm" style="fill:#000000;font-size:10pt; font-family:sans-serif;">ROGNON, Barbe</text>
<text x="3.16cm" y="17.29cm" style="fill:#000000;font-size:10pt; font-family:sans-serif;">BARTHELEMY, Jean</text>
<text x="3.16cm" y="17.91cm" style="fill:#000000;font-size:10pt; font-family:sans-serif;">CHAPELLE, Claude Claudy</text>
<text x="3.16cm" y="18.53cm" style="fill:#000000;font-size:10pt; font-family:sans-serif;">MARCHAND, Francoise</text>
<text x="3.16cm" y="19.15cm" style="fill:#000000;font-size:10pt; font-family:sans-serif;">POIROT, Jean</text>
<text x="3.16cm" y="19.76cm" style="fill:#000000;font-size:10pt; font-family:sans-serif;">THIRIET, Jeanne</text>
<text x="3.16cm" y="20.38cm" style="fill:#000000;font-size:10pt; font-family:sans-serif;">THOMASSIN, Claudine</text>
<text x="3.16cm" y="21.00cm" style="fill:#000000;font-size:10pt; font-family:sans-serif;">VINCENT, Claudette Claudia</text>
<text x="3.16cm" y="21.61cm" style="fill:#000000;font-size:10pt; font-family:sans-serif;">LOIZARD, Jeanne</text>
<text x="3.16cm" y="22.23cm" style="fill:#000000;font-size:10pt; font-family:sans-serif;">RUAUX, Jean</text>
<text x="3.16cm" y="22.85cm" style="fill:#000000;font-size:10pt; font-family:sans-serif;">GURY, Jeanne</text>
<text x="3.16cm" y="23.47cm" style="fill:#000000;font-size:10pt; font-family:sans-serif;">LACHAMBRE, Claudotte</text>
<text x="3.16cm" y="24.08cm" style="fill:#000000;font-size:10pt; font-family:sans-serif;">TACHET, Jean</text>
<text x="3.16cm" y="24.70cm" style="fill:#000000;font-size:10pt; font-family:sans-serif;">URBAIN, Dominique</text>
<text x="3.16cm" y="25.32cm" style="fill:#000000;font-size:10pt; font-family:sans-serif;">RAOUL</text>
</svg>
