<?xml version="1.0" encoding="UTF-8" standalone="no"?>
<!DOCTYPE svg PUBLIC "-//W3C//DTD SVG 1.0//EN" "http://www.w3.org/TR/2001/REC-SVG-20010904/DTD/svg10.dtd">
<svg width="21.59cm" height="27.94cm" xmlns="http://www.w3.org/2000/svg">
<rect width="21.59cm" height="27.94cm" style="fill: none;"/>
<line x1="10.04cm" y1="5.14cm" x2="10.04cm" y2="25.40cm" style="stroke:#000000; stroke-dasharray: 2,4; stroke-width:0.50pt;"/>
<line x1="11.74cm" y1="5.14cm" x2="11.74cm" y2="25.40cm" style="stroke:#000000; stroke-dasharray: 2,4; stroke-width:0.50pt;"/>
<line x1="13.44cm" y1="5.14cm" x2="13.44cm" y2="25.40cm" style="stroke:#000000; stroke-dasharray: 2,4; stroke-width:0.50pt;"/>
<line x1="15.15cm" y1="5.14cm" x2="15.15cm" y2="25.40cm" style="stroke:#000000; stroke-dasharray: 2,4; stroke-width:0.50pt;"/>
<line x1="16.85cm" y1="5.14cm" x2="16.85cm" y2="25.40cm" style="stroke:#000000; stroke-dasharray: 2,4; stroke-width:0.50pt;"/>
<line x1="18.55cm" y1="5.14cm" x2="18.55cm" y2="25.40cm" style="stroke:#000000; stroke-dasharray: 2,4; stroke-width:0.50pt;"/>
<polygon fill="#ffffff" style="stroke:#000000;  stroke-width:0.50pt;" points="603.60,204.00 605.37,210.25 603.60,216.50 601.83,210.25"/>
<polygon fill="#000000" style="stroke:#000000;  stroke-width:0.50pt;" points="646.43,204.00 648.20,210.25 646.43,216.50 644.65,210.25"/>
<line x1="17.09cm" y1="5.93cm" x2="18.19cm" y2="5.93cm" style="stroke:#000000; stroke-width:0.50pt;"/>
<polygon fill="#ffffff" style="stroke:#000000;  stroke-width:0.50pt;" points="603.60,225.88 605.37,232.13 603.60,238.38 601.83,232.13"/>
<polygon fill="#000000" style="stroke:#000000;  stroke-width:0.50pt;" points="651.25,225.88 653.02,232.13 651.25,238.38 649.48,232.13"/>
<line x1="17.09cm" y1="6.55cm" x2="18.33cm" y2="6.55cm" style="stroke:#000000; stroke-width:0.50pt;"/>
<polygon fill="#ffffff" style="stroke:#000000;  stroke-width:0.50pt;" points="604.21,247.75 605.98,254.00 604.21,260.25 602.43,254.00"/>
<polygon fill="#ffffff" style="stroke:#000000;  stroke-width:0.50pt;" points="604.81,269.63 606.58,275.88 604.81,282.13 603.04,275.88"/>
<polygon fill="#ffffff" style="stroke:#000000;  stroke-width:0.50pt;" points="605.41,291.50 607.18,297.75 605.41,304.00 603.64,297.75"/>
<polygon fill="#000000" style="stroke:#000000;  stroke-width:0.50pt;" points="617.48,291.50 619.25,297.75 617.48,304.00 615.70,297.75"/>
<line x1="17.14cm" y1="8.40cm" x2="17.38cm" y2="8.40cm" style="stroke:#000000; stroke-width:0.50pt;"/>
<polygon fill="#ffffff" style="stroke:#000000;  stroke-width:0.50pt;" points="605.41,313.38 607.18,319.63 605.41,325.88 603.64,319.63"/>
<polygon fill="#ffffff" style="stroke:#000000;  stroke-width:0.50pt;" points="606.02,335.25 607.79,341.50 606.02,347.75 604.24,341.50"/>
<polygon fill="#ffffff" style="stroke:#000000;  stroke-width:0.50pt;" points="607.22,357.13 608.99,363.37 607.22,369.62 605.45,363.37"/>
<polygon fill="#ffffff" style="stroke:#000000;  stroke-width:0.50pt;" points="608.43,379.00 610.20,385.25 608.43,391.50 606.66,385.25"/>
<polygon fill="#ffffff" style="stroke:#000000;  stroke-width:0.50pt;" points="608.43,400.87 610.20,407.12 608.43,413.37 606.66,407.12"/>
<polygon fill="#ffffff" style="stroke:#000000;  stroke-width:0.50pt;" points="608.43,422.75 610.20,429.00 608.43,435.25 606.66,429.00"/>
<polygon fill="#000000" style="stroke:#000000;  stroke-width:0.50pt;" points="648.84,422.75 650.61,429.00 648.84,435.25 647.07,429.00"/>
<line x1="17.22cm" y1="12.11cm" x2="18.26cm" y2="12.11cm" style="stroke:#000000; stroke-width:0.50pt;"/>
<polygon fill="#ffffff" style="stroke:#000000;  stroke-width:0.50pt;" points="612.05,444.62 613.82,450.87 612.05,457.12 610.28,450.87"/>
<polygon fill="#000000" style="stroke:#000000;  stroke-width:0.50pt;" points="654.87,444.62 656.64,450.87 654.87,457.12 653.10,450.87"/>
<line x1="17.32cm" y1="12.72cm" x2="18.43cm" y2="12.72cm" style="stroke:#000000; stroke-width:0.50pt;"/>
<polygon fill="#ffffff" style="stroke:#000000;  stroke-width:0.50pt;" points="612.05,466.50 613.82,472.75 612.05,479.00 610.28,472.75"/>
<polygon fill="#ffffff" style="stroke:#000000;  stroke-width:0.50pt;" points="612.05,488.37 613.82,494.62 612.05,500.87 610.28,494.62"/>
<polygon fill="#000000" style="stroke:#000000;  stroke-width:0.50pt;" points="655.47,488.37 657.24,494.62 655.47,500.87 653.70,494.62"/>
<line x1="17.32cm" y1="13.96cm" x2="18.45cm" y2="13.96cm" style="stroke:#000000; stroke-width:0.50pt;"/>
<polygon fill="#ffffff" style="stroke:#000000;  stroke-width:0.50pt;" points="612.65,510.25 614.42,516.50 612.65,522.75 610.88,516.50"/>
<polygon fill="#ffffff" style="stroke:#000000;  stroke-width:0.50pt;" points="612.65,532.12 614.42,538.37 612.65,544.62 610.88,538.37"/>
<polygon fill="#ffffff" style="stroke:#000000;  stroke-width:0.50pt;" points="613.25,554.00 615.03,560.25 613.25,566.50 611.48,560.25"/>
<polygon fill="#ffffff" style="stroke:#000000;  stroke-width:0.50pt;" points="613.25,575.87 615.03,582.12 613.25,588.37 611.48,582.12"/>
<polygon fill="#ffffff" style="stroke:#000000;  stroke-width:0.50pt;" points="613.86,597.75 615.63,604.00 613.86,610.25 612.08,604.00"/>
<polygon fill="#ffffff" style="stroke:#000000;  stroke-width:0.50pt;" points="613.86,619.62 615.63,625.87 613.86,632.12 612.08,625.87"/>
<polygon fill="#ffffff" style="stroke:#000000;  stroke-width:0.50pt;" points="613.86,641.50 615.63,647.75 613.86,654.00 612.08,647.75"/>
<polygon fill="#ffffff" style="stroke:#000000;  stroke-width:0.50pt;" points="613.86,663.37 615.63,669.62 613.86,675.87 612.08,669.62"/>
<polygon fill="#ffffff" style="stroke:#000000;  stroke-width:0.50pt;" points="614.46,685.25 616.23,691.50 614.46,697.75 612.69,691.50"/>
<polygon fill="#ffffff" style="stroke:#000000;  stroke-width:0.50pt;" points="615.06,707.12 616.83,713.37 615.06,719.62 613.29,713.37"/>
<polygon fill="#ffffff" style="stroke:#000000;  stroke-width:0.50pt;" points="615.67,729.00 617.44,735.25 615.67,741.50 613.89,735.25"/>
<polygon fill="#ffffff" style="stroke:#000000;  stroke-width:0.50pt;" points="615.67,750.87 617.44,757.12 615.67,763.37 613.89,757.12"/>
<polygon fill="#ffffff" style="stroke:#000000;  stroke-width:0.50pt;" points="615.67,772.75 617.44,779.00 615.67,785.25 613.89,779.00"/>
<polygon fill="#000000" style="stroke:#000000;  stroke-width:0.50pt;" points="616.27,772.75 618.04,779.00 616.27,785.25 614.50,779.00"/>
<line x1="17.43cm" y1="21.99cm" x2="17.34cm" y2="21.99cm" style="stroke:#000000; stroke-width:0.50pt;"/>
<polygon fill="#ffffff" style="stroke:#000000;  stroke-width:0.50pt;" points="616.27,794.62 618.04,800.87 616.27,807.12 614.50,800.87"/>
<polygon fill="#ffffff" style="stroke:#000000;  stroke-width:0.50pt;" points="616.27,816.50 618.04,822.75 616.27,829.00 614.50,822.75"/>
<polygon fill="#000000" style="stroke:#000000;  stroke-width:0.50pt;" points="628.33,816.50 630.10,822.75 628.33,829.00 626.56,822.75"/>
<line x1="17.44cm" y1="23.22cm" x2="17.68cm" y2="23.22cm" style="stroke:#000000; stroke-width:0.50pt;"/>
<polygon fill="#ffffff" style="stroke:#000000;  stroke-width:0.50pt;" points="616.87,838.37 618.64,844.62 616.87,850.87 615.10,844.62"/>
<polygon fill="#ffffff" style="stroke:#000000;  stroke-width:0.50pt;" points="616.87,860.25 618.64,866.50 616.87,872.75 615.10,866.50"/>
<polygon fill="#ffffff" style="stroke:#000000;  stroke-width:0.50pt;" points="616.87,882.12 618.64,888.37 616.87,894.62 615.10,888.37"/>
<text x="7.01cm" y="3.13cm" style="fill:#000000;font-size:14pt; font-family:sans-serif;">Graphique temporel -- Trié par Naissance</text>
<text x="8.22cm" y="3.74cm" style="fill:#000000;font-size:14pt; font-family:sans-serif;">(Toute la base de données)</text>
<text x="6.17cm" y="4.34cm" style="fill:#000000;font-size:14pt; font-family:sans-serif;">(Individus vivants : Inclus, avec toutes les données)</text>
<text x="9.68cm" y="5.14cm" style="fill:#000000;font-size:8pt; font-family:sans-serif;">1520</text>
<text x="11.38cm" y="5.14cm" style="fill:#000000;font-size:8pt; font-family:sans-serif;">1620</text>
<text x="13.09cm" y="5.14cm" style="fill:#000000;font-size:8pt; font-family:sans-serif;">1720</text>
<text x="14.79cm" y="5.14cm" style="fill:#000000;font-size:8pt; font-family:sans-serif;">1820</text>
<text x="16.49cm" y="5.14cm" style="fill:#000000;font-size:8pt; font-family:sans-serif;">1920</text>
<text x="18.19cm" y="5.14cm" style="fill:#000000;font-size:8pt; font-family:sans-serif;">2020</text>
<text x="3.16cm" y="6.18cm" style="fill:#000000;font-size:10pt; font-family:sans-serif;">CUNIN, Jacques</text>
<text x="3.16cm" y="6.80cm" style="fill:#000000;font-size:10pt; font-family:sans-serif;">JACQUOT, Alice</text>
<text x="3.16cm" y="7.42cm" style="fill:#000000;font-size:10pt; font-family:sans-serif;">JACQUOT, Roger</text>
<text x="3.16cm" y="8.03cm" style="fill:#000000;font-size:10pt; font-family:sans-serif;">AUBRY, Lucien</text>
<text x="3.16cm" y="8.65cm" style="fill:#000000;font-size:10pt; font-family:sans-serif;">GEGONNE, Christian</text>
<text x="3.16cm" y="9.27cm" style="fill:#000000;font-size:10pt; font-family:sans-serif;">RUAUX, René</text>
<text x="3.16cm" y="9.88cm" style="fill:#000000;font-size:10pt; font-family:sans-serif;">RUAUX, Andrée</text>
<text x="3.16cm" y="10.50cm" style="fill:#000000;font-size:10pt; font-family:sans-serif;">GEGONNE, Colette</text>
<text x="3.16cm" y="11.12cm" style="fill:#000000;font-size:10pt; font-family:sans-serif;">COLIN, Simone</text>
<text x="3.16cm" y="11.74cm" style="fill:#000000;font-size:10pt; font-family:sans-serif;">MANGIN, Josette</text>
<text x="3.16cm" y="12.35cm" style="fill:#000000;font-size:10pt; font-family:sans-serif;">POTHIER, Jean</text>
<text x="3.16cm" y="12.97cm" style="fill:#000000;font-size:10pt; font-family:sans-serif;">ARCILLÀ, Emiglio</text>
<text x="3.16cm" y="13.59cm" style="fill:#000000;font-size:10pt; font-family:sans-serif;">MANGIN, Michèle</text>
<text x="3.16cm" y="14.21cm" style="fill:#000000;font-size:10pt; font-family:sans-serif;">LAVEINE, Robert</text>
<text x="3.16cm" y="14.82cm" style="fill:#000000;font-size:10pt; font-family:sans-serif;">GEGONNE, Anne-Marie</text>
<text x="3.16cm" y="15.44cm" style="fill:#000000;font-size:10pt; font-family:sans-serif;">LECHAT, Gerard</text>
<text x="3.16cm" y="16.06cm" style="fill:#000000;font-size:10pt; font-family:sans-serif;">GEHIN, Paul</text>
<text x="3.16cm" y="16.68cm" style="fill:#000000;font-size:10pt; font-family:sans-serif;">MANGIN, Jean-Marie</text>
<text x="3.16cm" y="17.29cm" style="fill:#000000;font-size:10pt; font-family:sans-serif;">BRETZNER, Odette</text>
<text x="3.16cm" y="17.91cm" style="fill:#000000;font-size:10pt; font-family:sans-serif;">GEGONNE, Ghislaine</text>
<text x="3.16cm" y="18.53cm" style="fill:#000000;font-size:10pt; font-family:sans-serif;">TOUSSAINT, Michel</text>
<text x="3.16cm" y="19.15cm" style="fill:#000000;font-size:10pt; font-family:sans-serif;">RUAUX, Elisabeth</text>
<text x="3.16cm" y="19.76cm" style="fill:#000000;font-size:10pt; font-family:sans-serif;">LIPP, Bernard</text>
<text x="3.16cm" y="20.38cm" style="fill:#000000;font-size:10pt; font-family:sans-serif;">GEHIN, René</text>
<text x="3.16cm" y="21.00cm" style="fill:#000000;font-size:10pt; font-family:sans-serif;">ANTOINE, Bernard</text>
<text x="3.16cm" y="21.61cm" style="fill:#000000;font-size:10pt; font-family:sans-serif;">BRETZNER, André</text>
<text x="3.16cm" y="22.23cm" style="fill:#000000;font-size:10pt; font-family:sans-serif;">RUAUX, Bernard</text>
<text x="3.16cm" y="22.85cm" style="fill:#000000;font-size:10pt; font-family:sans-serif;">GEHIN, Liliane</text>
<text x="3.16cm" y="23.47cm" style="fill:#000000;font-size:10pt; font-family:sans-serif;">VILLIERES, Annette</text>
<text x="3.16cm" y="24.08cm" style="fill:#000000;font-size:10pt; font-family:sans-serif;">LHUILLIER, Jean-Pierre</text>
<text x="3.16cm" y="24.70cm" style="fill:#000000;font-size:10pt; font-family:sans-serif;">BRETZNER, Guy</text>
<text x="3.16cm" y="25.32cm" style="fill:#000000;font-size:10pt; font-family:sans-serif;">RUAUX, Jacques</text>
</svg>
